<svg width="40" height="39" viewBox="0 0 40 39" fill="none" xmlns="http://www.w3.org/2000/svg">
<rect width="40" height="39" fill="white"/>
<path fill-rule="evenodd" clip-rule="evenodd" d="M33.333 35.75C31.4921 35.75 29.9997 34.2949 29.9997 32.5C29.9997 30.7051 31.4921 29.25 33.333 29.25C35.174 29.25 36.6663 30.7051 36.6663 32.5C36.6663 34.2949 35.174 35.75 33.333 35.75ZM33.333 22.75C31.4921 22.75 29.9997 21.2949 29.9997 19.5C29.9997 17.7051 31.4921 16.25 33.333 16.25C35.174 16.25 36.6663 17.7051 36.6663 19.5C36.6663 21.2949 35.174 22.75 33.333 22.75ZM33.333 9.75C31.4921 9.75 29.9997 8.29493 29.9997 6.5C29.9997 4.70507 31.4921 3.25 33.333 3.25C35.174 3.25 36.6663 4.70507 36.6663 6.5C36.6663 8.29493 35.174 9.75 33.333 9.75ZM19.9997 35.75C18.1587 35.75 16.6663 34.2949 16.6663 32.5C16.6663 30.7051 18.1587 29.25 19.9997 29.25C21.8406 29.25 23.333 30.7051 23.333 32.5C23.333 34.2949 21.8406 35.75 19.9997 35.75ZM19.9997 22.75C18.1587 22.75 16.6663 21.2949 16.6663 19.5C16.6663 17.7051 18.1587 16.25 19.9997 16.25C21.8406 16.25 23.333 17.7051 23.333 19.5C23.333 21.2949 21.8406 22.75 19.9997 22.75ZM19.9997 9.75C18.1587 9.75 16.6663 8.29493 16.6663 6.5C16.6663 4.70507 18.1587 3.25 19.9997 3.25C21.8406 3.25 23.333 4.70507 23.333 6.5C23.333 8.29493 21.8406 9.75 19.9997 9.75ZM6.66634 35.75C4.82539 35.75 3.33301 34.2949 3.33301 32.5C3.33301 30.7051 4.82539 29.25 6.66634 29.25C8.50729 29.25 9.99967 30.7051 9.99967 32.5C9.99967 34.2949 8.50729 35.75 6.66634 35.75ZM6.66634 22.75C4.82539 22.75 3.33301 21.2949 3.33301 19.5C3.33301 17.7051 4.82539 16.25 6.66634 16.25C8.50729 16.25 9.99967 17.7051 9.99967 19.5C9.99967 21.2949 8.50729 22.75 6.66634 22.75ZM6.66634 9.75C4.82539 9.75 3.33301 8.29493 3.33301 6.5C3.33301 4.70507 4.82539 3.25 6.66634 3.25C8.50729 3.25 9.99967 4.70507 9.99967 6.5C9.99967 8.29493 8.50729 9.75 6.66634 9.75Z" fill="#3E4259"/>
<rect x="24.8652" y="23.1892" width="14.0541" height="14.7568" fill="white"/>
<path d="M40 28H26L33 37L40 28Z" fill="#3E4259"/>
</svg>
