<svg width="91" height="93" viewBox="0 0 91 93" fill="none" xmlns="http://www.w3.org/2000/svg">
<path d="M56.875 61.9987V54.2484C58.5812 53.3842 63.4611 47.4475 63.973 42.8089C65.3152 42.7043 67.4234 41.4449 68.0452 36.473C68.3789 33.803 67.0518 32.3033 66.248 31.8306C66.248 31.8306 68.25 27.9438 68.25 23.251C68.25 13.8421 64.6365 5.81274 56.875 5.81274C56.875 5.81274 54.1791 0 45.5 0C29.4157 0 22.75 10.5443 22.75 23.251C22.75 27.5291 24.752 31.8306 24.752 31.8306C23.9482 32.3033 22.6211 33.8069 22.9548 36.473C23.5766 41.4449 25.6848 42.7043 27.027 42.8089C27.5389 47.4475 32.4188 53.3842 34.125 54.2484V61.9987C30.3333 73.6242 0 65.8739 0 93H91C91 65.8739 60.6667 73.6242 56.875 61.9987Z" fill="#FA60A9"/>
</svg>
