<svg width="760" height="741" viewBox="0 0 760 741" fill="none" xmlns="http://www.w3.org/2000/svg">
<ellipse cx="317.628" cy="730.068" rx="221.628" ry="10.0684" fill="#C6DCF6"/>
<ellipse cx="317.628" cy="730.068" rx="221.628" ry="10.0684" fill="#C6DCF6"/>
<path d="M97.7998 694.088C97.7998 694.088 4.95868 674.95 0.225323 607.342C-5.22262 529.527 90.0375 525.191 78.5441 468.786C62.5017 390.059 70.8988 335.35 141.191 338.584C200.463 341.312 253.103 400.983 284.813 359.395C319.013 314.543 382.983 281.404 446.287 309.184C509.591 336.963 512.797 449.605 556.578 468.786C678.978 516.648 651.285 690.874 508.492 694.795C476.955 695.506 121.29 694.145 97.7998 694.088Z" fill="url(#paint0_linear_1515_3484)"/>
<path d="M97.7998 694.088C97.7998 694.088 4.95868 674.95 0.225323 607.342C-5.22262 529.527 90.0375 525.191 78.5441 468.786C62.5017 390.059 70.8988 335.35 141.191 338.584C200.463 341.312 253.103 400.983 284.813 359.395C319.013 314.543 382.983 281.404 446.287 309.184C509.591 336.963 512.797 449.605 556.578 468.786C678.978 516.648 651.285 690.874 508.492 694.795C476.955 695.506 121.29 694.145 97.7998 694.088Z" fill="url(#paint1_linear_1515_3484)"/>
<path d="M516.288 432.205V609.441H413.342V432.205H516.288Z" fill="#AED3FF" stroke="black" stroke-width="0.9"/>
<path d="M410.087 609.437V432.201H513.033V609.437H410.087Z" fill="#D2E4FF" stroke="black" stroke-width="0.9"/>
<path d="M417.161 503.301V442.153H506.209V503.301H417.161Z" fill="#F3F9FF" stroke="black" stroke-width="0.9"/>
<path d="M457.28 594.655V562.427H504.655V594.655H457.28Z" fill="#F3F9FF" stroke="black" stroke-width="0.9"/>
<path d="M420.868 473.776C420.946 473.769 421.034 473.761 421.133 473.753C421.564 473.718 422.193 473.676 422.977 473.654C424.546 473.609 426.736 473.641 429.215 473.945C434.183 474.554 440.259 476.252 444.852 480.572C449.706 485.138 456.613 485.302 463.063 484.293C466.3 483.786 469.458 482.977 472.233 482.251C472.396 482.209 472.557 482.166 472.716 482.125C475.3 481.448 477.498 480.872 479.116 480.692C485.175 480.019 490.568 480.695 494.788 482.088C498.951 483.462 501.919 485.513 503.296 487.599V500.497H420.868V473.776Z" fill="#EE9849" stroke="black" stroke-width="0.9"/>
<mask id="path-9-inside-1_1515_3484" fill="white">
<path d="M432.966 451.678H432.322V472.728H432.966V451.678Z"/>
</mask>
<path d="M432.966 451.678H432.322V472.728H432.966V451.678Z" fill="#A6C7F9"/>
<path d="M432.322 451.678V450.778H431.422V451.678H432.322ZM432.966 451.678H433.866V450.778H432.966V451.678ZM432.966 472.728V473.628H433.866V472.728H432.966ZM432.322 472.728H431.422V473.628H432.322V472.728ZM432.322 452.578H432.966V450.778H432.322V452.578ZM432.066 451.678V472.728H433.866V451.678H432.066ZM432.966 471.828H432.322V473.628H432.966V471.828ZM433.222 472.728V451.678H431.422V472.728H433.222Z" fill="black" mask="url(#path-9-inside-1_1515_3484)"/>
<mask id="path-11-inside-2_1515_3484" fill="white">
<path d="M458.222 460.707H457.578V481.758H458.222V460.707Z"/>
</mask>
<path d="M458.222 460.707H457.578V481.758H458.222V460.707Z" fill="#A6C7F9"/>
<path d="M457.578 460.707V459.807H456.678V460.707H457.578ZM458.222 460.707H459.122V459.807H458.222V460.707ZM458.222 481.758V482.658H459.122V481.758H458.222ZM457.578 481.758H456.678V482.658H457.578V481.758ZM457.578 461.607H458.222V459.807H457.578V461.607ZM457.322 460.707V481.758H459.122V460.707H457.322ZM458.222 480.858H457.578V482.658H458.222V480.858ZM458.478 481.758V460.707H456.678V481.758H458.478Z" fill="black" mask="url(#path-11-inside-2_1515_3484)"/>
<mask id="path-13-inside-3_1515_3484" fill="white">
<path d="M484.282 455.948H483.639V476.999H484.282V455.948Z"/>
</mask>
<path d="M484.282 455.948H483.639V476.999H484.282V455.948Z" fill="#A6C7F9"/>
<path d="M483.639 455.948V455.048H482.739V455.948H483.639ZM484.282 455.948H485.182V455.048H484.282V455.948ZM484.282 476.999V477.899H485.182V476.999H484.282ZM483.639 476.999H482.739V477.899H483.639V476.999ZM483.639 456.848H484.282V455.048H483.639V456.848ZM483.382 455.948V476.999H485.182V455.948H483.382ZM484.282 476.099H483.639V477.899H484.282V476.099ZM484.539 476.999V455.948H482.739V476.999H484.539Z" fill="black" mask="url(#path-13-inside-3_1515_3484)"/>
<path d="M440.151 454.455H435.218C435.18 454.455 435.132 454.418 435.132 454.357C435.132 454.296 435.18 454.26 435.218 454.26H440.151C440.189 454.26 440.237 454.296 440.237 454.357C440.237 454.419 440.189 454.455 440.151 454.455Z" fill="#A6C7F9" stroke="black" stroke-width="0.9"/>
<path d="M440.151 456.428H435.218C435.18 456.428 435.132 456.392 435.132 456.331C435.132 456.269 435.18 456.233 435.218 456.233H440.151C440.189 456.233 440.237 456.269 440.237 456.331C440.237 456.392 440.189 456.428 440.151 456.428Z" fill="#A6C7F9" stroke="black" stroke-width="0.9"/>
<path d="M465.032 465.187H460.099C460.061 465.187 460.012 465.151 460.012 465.09C460.012 465.028 460.061 464.992 460.099 464.992H465.032C465.07 464.992 465.118 465.028 465.118 465.09H465.568L465.118 465.089C465.118 465.151 465.07 465.187 465.032 465.187Z" fill="#A6C7F9" stroke="black" stroke-width="0.9"/>
<path d="M465.032 467.113H460.099C460.061 467.113 460.012 467.077 460.012 467.015C460.012 466.954 460.061 466.918 460.099 466.918H465.032C465.07 466.918 465.118 466.954 465.118 467.015H465.568L465.118 467.015C465.118 467.077 465.069 467.113 465.032 467.113Z" fill="#A6C7F9" stroke="black" stroke-width="0.9"/>
<path d="M491.522 457.247H486.589C486.551 457.247 486.503 457.211 486.503 457.149C486.503 457.088 486.551 457.052 486.589 457.052H491.522C491.56 457.052 491.608 457.088 491.608 457.149C491.608 457.211 491.56 457.247 491.522 457.247Z" fill="#A6C7F9" stroke="black" stroke-width="0.9"/>
<path d="M491.522 459.18H486.589C486.551 459.18 486.503 459.144 486.503 459.083C486.503 459.021 486.551 458.985 486.589 458.985H491.522C491.56 458.985 491.608 459.021 491.608 459.083C491.608 459.144 491.56 459.18 491.522 459.18Z" fill="#A6C7F9" stroke="black" stroke-width="0.9"/>
<path d="M489.345 519.616C489.345 514.848 493.128 510.999 497.776 510.999C502.424 510.999 506.207 514.848 506.207 519.616C506.207 524.384 502.424 528.234 497.776 528.234C493.128 528.234 489.345 524.384 489.345 519.616Z" fill="#F3F9FF" stroke="black" stroke-width="0.9"/>
<path d="M498.111 519.916L498.226 519.788V519.615V511.78C502.249 512.018 505.454 515.427 505.454 519.615C505.454 523.958 502.008 527.464 497.776 527.464C495.933 527.464 494.242 526.801 492.919 525.694L498.111 519.916Z" fill="#C65447" stroke="black" stroke-width="0.9"/>
<mask id="path-23-inside-4_1515_3484" fill="white">
<path d="M494.681 518.156H491.762C491.628 518.156 491.518 518.043 491.518 517.906C491.518 517.768 491.628 517.656 491.762 517.656H494.681C494.816 517.656 494.926 517.768 494.926 517.906C494.926 518.043 494.816 518.156 494.681 518.156Z"/>
</mask>
<path d="M494.681 518.156H491.762C491.628 518.156 491.518 518.043 491.518 517.906C491.518 517.768 491.628 517.656 491.762 517.656H494.681C494.816 517.656 494.926 517.768 494.926 517.906C494.926 518.043 494.816 518.156 494.681 518.156Z" fill="#A6C7F9"/>
<path d="M494.681 517.256H491.762V519.056H494.681V517.256ZM491.762 517.256C492.142 517.256 492.418 517.564 492.418 517.906H490.618C490.618 518.523 491.113 519.056 491.762 519.056V517.256ZM492.418 517.906C492.418 518.249 492.141 518.556 491.762 518.556V516.756C491.114 516.756 490.618 517.288 490.618 517.906H492.418ZM491.762 518.556H494.681V516.756H491.762V518.556ZM494.681 518.556C494.302 518.556 494.026 518.249 494.026 517.906H495.826C495.826 517.288 495.329 516.756 494.681 516.756V518.556ZM494.026 517.906C494.026 517.564 494.301 517.256 494.681 517.256V519.056C495.33 519.056 495.826 518.523 495.826 517.906H494.026Z" fill="black" mask="url(#path-23-inside-4_1515_3484)"/>
<path d="M467.296 519.616C467.296 514.848 471.079 510.999 475.727 510.999C480.375 510.999 484.158 514.848 484.158 519.616C484.158 524.384 480.375 528.234 475.727 528.234C471.079 528.234 467.296 524.384 467.296 519.616Z" fill="#F3F9FF" stroke="black" stroke-width="0.9"/>
<path d="M475.685 519.167L474.877 519.243L475.369 519.888L480.089 526.075C478.85 526.952 477.347 527.464 475.727 527.464C471.494 527.464 468.048 523.959 468.048 519.615C468.048 515.272 471.494 511.766 475.727 511.766C479.574 511.766 482.771 514.662 483.321 518.452L475.685 519.167Z" fill="#E57970" stroke="black" stroke-width="0.9"/>
<mask id="path-27-inside-5_1515_3484" fill="white">
<path d="M481.987 521.669H479.955C479.821 521.669 479.711 521.557 479.711 521.42C479.711 521.282 479.821 521.17 479.955 521.17H481.987C482.121 521.17 482.231 521.282 482.231 521.42C482.231 521.557 482.121 521.669 481.987 521.669Z"/>
</mask>
<path d="M481.987 521.669H479.955C479.821 521.669 479.711 521.557 479.711 521.42C479.711 521.282 479.821 521.17 479.955 521.17H481.987C482.121 521.17 482.231 521.282 482.231 521.42C482.231 521.557 482.121 521.669 481.987 521.669Z" fill="#A6C7F9"/>
<path d="M482.231 521.42L483.131 521.421V521.42H482.231ZM481.987 520.769H479.955V522.569H481.987V520.769ZM479.955 520.769C480.336 520.769 480.611 521.077 480.611 521.42H478.811C478.811 522.036 479.307 522.569 479.955 522.569V520.769ZM480.611 521.42C480.611 521.761 480.336 522.07 479.955 522.07V520.27C479.306 520.27 478.811 520.803 478.811 521.42H480.611ZM479.955 522.07H481.987V520.27H479.955V522.07ZM481.987 522.07C481.607 522.07 481.331 521.762 481.331 521.42H483.131C483.131 520.803 482.636 520.27 481.987 520.27V522.07ZM481.331 521.419C481.332 521.078 481.606 520.769 481.987 520.769V522.569C482.636 522.569 483.131 522.036 483.131 521.421L481.331 521.419Z" fill="black" mask="url(#path-27-inside-5_1515_3484)"/>
<path d="M489.345 544.595C489.345 539.827 493.128 535.977 497.776 535.977C502.424 535.977 506.207 539.827 506.207 544.595C506.207 549.363 502.424 553.212 497.776 553.212C493.128 553.213 489.345 549.363 489.345 544.595Z" fill="#F3F9FF" stroke="black" stroke-width="0.9"/>
<path d="M498.111 544.894L498.226 544.766V544.594V536.758C502.249 536.996 505.454 540.405 505.454 544.593C505.454 548.937 502.008 552.442 497.776 552.442C495.933 552.442 494.242 551.78 492.919 550.673L498.111 544.894Z" fill="#EE9849" stroke="black" stroke-width="0.9"/>
<mask id="path-31-inside-6_1515_3484" fill="white">
<path d="M494.681 543.132H491.762C491.628 543.132 491.518 543.02 491.518 542.883C491.518 542.745 491.628 542.633 491.762 542.633H494.681C494.816 542.633 494.926 542.745 494.926 542.883C494.926 543.02 494.816 543.132 494.681 543.132Z"/>
</mask>
<path d="M494.681 543.132H491.762C491.628 543.132 491.518 543.02 491.518 542.883C491.518 542.745 491.628 542.633 491.762 542.633H494.681C494.816 542.633 494.926 542.745 494.926 542.883C494.926 543.02 494.816 543.132 494.681 543.132Z" fill="#A6C7F9"/>
<path d="M494.681 542.232H491.762V544.032H494.681V542.232ZM491.762 542.232C492.142 542.232 492.418 542.54 492.418 542.883H490.618C490.618 543.499 491.113 544.032 491.762 544.032V542.232ZM492.418 542.883C492.418 543.225 492.142 543.533 491.762 543.533V541.733C491.113 541.733 490.618 542.266 490.618 542.883H492.418ZM491.762 543.533H494.681V541.733H491.762V543.533ZM494.681 543.533C494.301 543.533 494.026 543.225 494.026 542.883H495.826C495.826 542.266 495.33 541.733 494.681 541.733V543.533ZM494.026 542.883C494.026 542.54 494.301 542.232 494.681 542.232V544.032C495.33 544.032 495.826 543.499 495.826 542.883H494.026Z" fill="black" mask="url(#path-31-inside-6_1515_3484)"/>
<path d="M467.296 544.595C467.296 539.827 471.079 535.977 475.727 535.977C480.375 535.977 484.158 539.827 484.158 544.595C484.158 549.363 480.375 553.212 475.727 553.212C471.079 553.213 467.296 549.363 467.296 544.595Z" fill="#F3F9FF" stroke="black" stroke-width="0.9"/>
<path d="M475.685 544.146L474.877 544.221L475.369 544.867L480.089 551.054C478.85 551.931 477.347 552.443 475.727 552.443C471.494 552.443 468.048 548.937 468.048 544.594C468.048 540.25 471.494 536.745 475.727 536.745C479.574 536.745 482.771 539.641 483.321 543.431L475.685 544.146Z" fill="#C65447" stroke="black" stroke-width="0.9"/>
<mask id="path-35-inside-7_1515_3484" fill="white">
<path d="M481.987 546.648H479.955C479.821 546.648 479.711 546.535 479.711 546.398C479.711 546.261 479.821 546.148 479.955 546.148H481.987C482.121 546.148 482.231 546.261 482.231 546.398C482.231 546.535 482.121 546.648 481.987 546.648Z"/>
</mask>
<path d="M481.987 546.648H479.955C479.821 546.648 479.711 546.535 479.711 546.398C479.711 546.261 479.821 546.148 479.955 546.148H481.987C482.121 546.148 482.231 546.261 482.231 546.398C482.231 546.535 482.121 546.648 481.987 546.648Z" fill="#A6C7F9"/>
<path d="M482.231 546.398L483.131 546.399V546.398H482.231ZM481.987 545.748H479.955V547.548H481.987V545.748ZM479.955 545.748C480.336 545.748 480.611 546.056 480.611 546.398H478.811C478.811 547.014 479.306 547.548 479.955 547.548V545.748ZM480.611 546.398C480.611 546.74 480.335 547.048 479.955 547.048V545.248C479.307 545.248 478.811 545.781 478.811 546.398H480.611ZM479.955 547.048H481.987V545.248H479.955V547.048ZM481.987 547.048C481.607 547.048 481.331 546.741 481.331 546.398H483.131C483.131 545.781 482.635 545.248 481.987 545.248V547.048ZM481.331 546.397C481.332 546.057 481.606 545.748 481.987 545.748V547.548C482.637 547.548 483.131 547.014 483.131 546.399L481.331 546.397Z" fill="black" mask="url(#path-35-inside-7_1515_3484)"/>
<mask id="path-37-inside-8_1515_3484" fill="white">
<path d="M503.026 592.79H458.715V566.06H459.266V592.228H503.026V592.79Z"/>
</mask>
<path d="M503.026 592.79H458.715V566.06H459.266V592.228H503.026V592.79Z" fill="#A6C7F9"/>
<path d="M503.026 592.79V593.69H503.926V592.79H503.026ZM458.715 592.79H457.815V593.69H458.715V592.79ZM458.715 566.06V565.16H457.815V566.06H458.715ZM459.266 566.06H460.166V565.16H459.266V566.06ZM459.266 592.228H458.366V593.128H459.266V592.228ZM503.026 592.228H503.926V591.328H503.026V592.228ZM503.026 591.89H458.715V593.69H503.026V591.89ZM459.615 592.79V566.06H457.815V592.79H459.615ZM458.715 566.96H459.266V565.16H458.715V566.96ZM458.366 566.06V592.228H460.166V566.06H458.366ZM459.266 593.128H503.026V591.328H459.266V593.128ZM502.126 592.228V592.79H503.926V592.228H502.126Z" fill="black" mask="url(#path-37-inside-8_1515_3484)"/>
<path d="M501.475 571.65V590.21H461.823V583.356C461.841 583.344 461.86 583.331 461.881 583.318C462.04 583.212 462.276 583.063 462.576 582.898C463.178 582.566 464.034 582.17 465.049 581.906C467.069 581.381 469.709 581.382 472.282 583.473C473.843 584.741 475.886 584.477 478.064 583.573C480.258 582.662 482.763 581.031 485.395 579.286C485.566 579.173 485.738 579.059 485.91 578.945C488.405 577.289 491.021 575.554 493.659 574.184C496.317 572.804 498.958 571.817 501.475 571.65Z" fill="#A6C7F9" stroke="black" stroke-width="0.9"/>
<path d="M461.823 567.627V567.626C461.823 567.618 461.826 567.611 461.831 567.606C461.833 567.604 461.835 567.603 461.836 567.603C461.837 567.602 461.837 567.602 461.837 567.602H480.733C480.734 567.602 480.734 567.602 480.734 567.603C480.735 567.603 480.737 567.604 480.739 567.606C480.744 567.611 480.747 567.618 480.747 567.626C480.747 567.634 480.744 567.641 480.739 567.646C480.737 567.649 480.735 567.65 480.734 567.65C480.734 567.65 480.734 567.65 480.733 567.65H461.837C461.837 567.65 461.837 567.65 461.836 567.65C461.835 567.65 461.833 567.648 461.831 567.646C461.826 567.641 461.823 567.635 461.823 567.627Z" fill="#A6C7F9" stroke="black" stroke-width="0.9"/>
<path d="M461.823 569.943V569.943C461.823 569.935 461.826 569.928 461.831 569.923C461.833 569.92 461.835 569.919 461.836 569.919C461.837 569.919 461.837 569.919 461.837 569.919H480.733C480.734 569.919 480.734 569.919 480.734 569.919C480.735 569.919 480.737 569.92 480.739 569.923C480.744 569.928 480.747 569.934 480.747 569.943C480.747 569.951 480.744 569.958 480.739 569.963C480.737 569.965 480.735 569.966 480.734 569.966C480.734 569.967 480.734 569.967 480.733 569.967H461.837C461.837 569.967 461.837 569.967 461.836 569.966C461.835 569.966 461.833 569.965 461.831 569.963C461.826 569.958 461.823 569.951 461.823 569.943Z" fill="#A6C7F9" stroke="black" stroke-width="0.9"/>
<path d="M474.194 572.104V572.152H461.823V572.104H474.194ZM461.823 572.215V572.214C461.823 572.215 461.823 572.215 461.823 572.215Z" fill="#A6C7F9" stroke="black" stroke-width="0.9"/>
<path d="M250.817 622.389V404.512H392.005V622.389H250.817Z" fill="#D2E4FF" stroke="black" stroke-width="0.9"/>
<path d="M264.546 546.032V416.749H378.043V546.032H264.546Z" fill="#F3F9FF" stroke="black" stroke-width="0.9"/>
<path d="M301.328 573.544C309.189 581.569 309.189 594.581 301.328 602.606C293.468 610.632 280.723 610.632 272.863 602.606C265.002 594.581 265.002 581.569 272.863 573.544C280.723 565.519 293.468 565.519 301.328 573.544Z" fill="#F3F9FF" stroke="black" stroke-width="0.9"/>
<path d="M303.087 593.82L287.266 587.656L285.801 587.085L286.742 588.344L297.023 602.104C294.235 604.167 290.809 605.381 287.103 605.381C277.754 605.381 270.161 597.641 270.161 588.075C270.161 578.509 277.754 570.768 287.103 570.768C296.45 570.768 304.043 578.508 304.043 588.075C304.043 590.09 303.705 592.023 303.087 593.82Z" fill="#EE9849" stroke="black" stroke-width="0.9"/>
<path d="M361.838 568.113C372.646 570.719 379.353 581.783 376.796 592.839C374.239 603.894 363.394 610.727 352.585 608.121C341.776 605.515 335.069 594.451 337.626 583.396C340.183 572.34 351.029 565.508 361.838 568.113Z" fill="#F3F9FF" stroke="black" stroke-width="0.9"/>
<path d="M357.364 587.656L357.089 587.549L356.881 587.757L344.815 599.882C341.988 596.791 340.259 592.641 340.259 588.075C340.259 578.509 347.851 570.768 357.2 570.768C366.547 570.768 374.14 578.508 374.14 588.075C374.14 590.09 373.803 592.023 373.184 593.82L357.364 587.656Z" fill="#EE9849" stroke="black" stroke-width="0.9"/>
<path d="M347.253 579.51H354.656C354.69 579.51 354.735 579.542 354.735 579.6L355.185 579.6H354.735C354.735 579.657 354.69 579.689 354.656 579.689H347.253C347.22 579.689 347.175 579.657 347.175 579.6C347.175 579.542 347.22 579.51 347.253 579.51Z" fill="#DD7C2C" stroke="black" stroke-width="0.9"/>
<path d="M347.253 581.22H354.656C354.69 581.22 354.735 581.252 354.735 581.31C354.735 581.367 354.69 581.4 354.656 581.4H347.253C347.22 581.4 347.175 581.367 347.175 581.31C347.175 581.252 347.22 581.22 347.253 581.22Z" fill="#DD7C2C" stroke="black" stroke-width="0.9"/>
<path d="M347.253 582.927H350.311C350.344 582.927 350.389 582.959 350.389 583.016C350.389 583.074 350.344 583.106 350.311 583.106H347.253C347.22 583.106 347.175 583.074 347.175 583.016C347.175 582.959 347.22 582.927 347.253 582.927Z" fill="#DD7C2C" stroke="black" stroke-width="0.9"/>
<path d="M277.013 579.51H284.416C284.45 579.51 284.495 579.542 284.495 579.6C284.495 579.657 284.45 579.689 284.416 579.689H277.013C276.98 579.689 276.934 579.657 276.934 579.6C276.934 579.542 276.98 579.51 277.013 579.51Z" fill="#DD7C2C" stroke="black" stroke-width="0.9"/>
<path d="M277.013 581.22H284.416C284.45 581.22 284.495 581.252 284.495 581.31C284.495 581.367 284.45 581.4 284.416 581.4H277.013C276.98 581.4 276.934 581.367 276.934 581.31C276.934 581.252 276.98 581.22 277.013 581.22Z" fill="#DD7C2C" stroke="black" stroke-width="0.9"/>
<path d="M277.013 582.927H280.07C280.104 582.927 280.149 582.959 280.149 583.016C280.149 583.074 280.104 583.106 280.07 583.106H277.013C276.98 583.106 276.934 583.074 276.934 583.016C276.934 582.959 276.98 582.927 277.013 582.927Z" fill="#DD7C2C" stroke="black" stroke-width="0.9"/>
<path d="M274.733 539.149V463.273H285.905V539.149H274.733Z" fill="#A6C7F9" stroke="black" stroke-width="0.9"/>
<path d="M294.509 539.147V441.871H305.68V539.147H294.509Z" fill="#A6C7F9" stroke="black" stroke-width="0.9"/>
<path d="M316.089 539.146V481.837H327.26V539.146H316.089Z" fill="#A6C7F9" stroke="black" stroke-width="0.9"/>
<path d="M337.087 539.146V454.977H348.258V539.146H337.087Z" fill="#A6C7F9" stroke="black" stroke-width="0.9"/>
<path d="M358.194 539.147V493.231H369.366V539.147H358.194Z" fill="#A6C7F9" stroke="black" stroke-width="0.9"/>
<path d="M337.915 443.912H348.138C348.463 443.912 348.746 444.187 348.746 444.542C348.746 444.896 348.463 445.171 348.138 445.171H337.915C337.591 445.171 337.307 444.896 337.307 444.542C337.307 444.187 337.591 443.912 337.915 443.912Z" fill="#A6C7F9" stroke="black" stroke-width="0.9"/>
<path d="M337.915 447.845H340.243C340.568 447.845 340.851 448.12 340.851 448.474C340.851 448.828 340.568 449.104 340.243 449.104H337.915C337.591 449.104 337.307 448.828 337.307 448.474C337.307 448.12 337.591 447.845 337.915 447.845Z" fill="#A6C7F9" stroke="black" stroke-width="0.9"/>
<path d="M295.788 427.192H306.011C306.336 427.192 306.619 427.468 306.619 427.822C306.619 428.176 306.335 428.452 306.011 428.452H295.788C295.464 428.452 295.18 428.176 295.18 427.822C295.18 427.468 295.464 427.192 295.788 427.192Z" fill="#A6C7F9" stroke="black" stroke-width="0.9"/>
<path d="M295.788 431.119H298.116C298.441 431.119 298.724 431.394 298.724 431.749C298.724 432.103 298.441 432.379 298.116 432.379H295.788C295.464 432.379 295.18 432.103 295.18 431.749C295.18 431.394 295.464 431.119 295.788 431.119Z" fill="#A6C7F9" stroke="black" stroke-width="0.9"/>
<path d="M316.564 470.382H326.787C327.111 470.382 327.394 470.657 327.394 471.011C327.394 471.366 327.111 471.641 326.787 471.641H316.564C316.239 471.641 315.956 471.365 315.956 471.011C315.956 470.657 316.239 470.382 316.564 470.382Z" fill="#A6C7F9" stroke="black" stroke-width="0.9"/>
<path d="M316.564 474.308H318.892C319.216 474.308 319.499 474.584 319.499 474.938C319.499 475.292 319.216 475.568 318.892 475.568H316.564C316.239 475.568 315.956 475.292 315.956 474.938C315.956 474.584 316.239 474.308 316.564 474.308Z" fill="#A6C7F9" stroke="black" stroke-width="0.9"/>
<path d="M358.671 481.841H368.894C369.218 481.841 369.502 482.116 369.502 482.47C369.502 482.825 369.218 483.1 368.894 483.1H358.671C358.346 483.1 358.063 482.825 358.063 482.47C358.063 482.116 358.347 481.841 358.671 481.841Z" fill="#A6C7F9" stroke="black" stroke-width="0.9"/>
<path d="M361.607 486.4V486.4C361.607 486.754 361.324 487.03 360.999 487.03H358.671C358.347 487.03 358.063 486.754 358.063 486.4C358.063 486.046 358.347 485.77 358.671 485.77H360.999C361.324 485.77 361.607 486.046 361.607 486.4Z" fill="#A6C7F9" stroke="black" stroke-width="0.9"/>
<path d="M127.798 546.229V487.441H230.744V546.229H127.798Z" fill="#AED3FF" stroke="black" stroke-width="0.9"/>
<path d="M131.173 546.229V487.441H234.119V546.229H131.173Z" fill="#D2E4FF" stroke="black" stroke-width="0.9"/>
<path d="M172.084 502.254C179.243 509.562 179.243 521.412 172.084 528.721C164.925 536.03 153.319 536.03 146.16 528.721C139.001 521.412 139.001 509.562 146.16 502.254C153.319 494.945 164.925 494.945 172.084 502.254Z" fill="#F3F9FF" stroke="black" stroke-width="0.9"/>
<path d="M191.792 505.229H222.897C223.767 505.229 224.497 505.961 224.497 506.872C224.497 507.783 223.767 508.514 222.897 508.514H191.792C190.922 508.514 190.192 507.783 190.192 506.872C190.192 505.961 190.922 505.229 191.792 505.229Z" fill="#F3F9FF" stroke="black" stroke-width="0.9"/>
<path d="M191.792 513.847H222.897C223.767 513.847 224.497 514.579 224.497 515.49C224.497 516.401 223.767 517.133 222.897 517.133H191.792C190.922 517.133 190.192 516.401 190.192 515.49C190.192 514.579 190.922 513.847 191.792 513.847Z" fill="#F3F9FF" stroke="black" stroke-width="0.9"/>
<path d="M191.792 522.461H222.897C223.767 522.461 224.497 523.192 224.497 524.103C224.497 525.015 223.767 525.746 222.897 525.746H191.792C190.922 525.746 190.192 525.015 190.192 524.103C190.192 523.192 190.922 522.461 191.792 522.461Z" fill="#F3F9FF" stroke="black" stroke-width="0.9"/>
<path d="M158.675 498.111V514.757H142.389C142.619 505.665 149.792 498.351 158.675 498.111Z" fill="#A8D29F" stroke="black" stroke-width="0.9"/>
<path d="M159.127 516.221H175.863C175.629 525.466 168.217 532.872 159.127 532.873H159.127C150.037 532.872 142.625 525.466 142.391 516.221H159.127H159.127Z" fill="#F1A34F" stroke="black" stroke-width="0.9"/>
<path d="M146.825 506.634H156.155C156.428 506.634 156.67 506.867 156.67 507.169C156.67 507.472 156.428 507.705 156.155 507.705H146.825C146.551 507.705 146.309 507.471 146.309 507.169C146.309 506.867 146.551 506.634 146.825 506.634Z" fill="#82B378" stroke="black" stroke-width="0.9"/>
<path d="M146.825 510.221H148.95C149.223 510.221 149.465 510.454 149.465 510.756C149.465 511.058 149.223 511.291 148.95 511.291H146.825C146.551 511.291 146.309 511.058 146.309 510.756C146.309 510.454 146.551 510.221 146.825 510.221Z" fill="#82B378" stroke="black" stroke-width="0.9"/>
<path d="M160.678 520.512H170.008C170.282 520.512 170.523 520.745 170.523 521.047C170.523 521.349 170.282 521.582 170.008 521.582H160.678C160.405 521.582 160.163 521.349 160.163 521.047C160.163 520.745 160.405 520.512 160.678 520.512Z" fill="#DD8936" stroke="black" stroke-width="0.9"/>
<path d="M163.318 524.634V524.634C163.318 524.936 163.076 525.169 162.803 525.169H160.678C160.405 525.169 160.163 524.936 160.163 524.634C160.163 524.331 160.405 524.098 160.678 524.098H162.803C163.077 524.098 163.318 524.332 163.318 524.634Z" fill="#DD8936" stroke="black" stroke-width="0.9"/>
<path d="M223.429 617.956H120.483V557.813H223.429V617.956Z" fill="#AED3FF" stroke="black" stroke-width="0.9"/>
<path d="M226.804 617.956H123.858V557.813H226.804V617.956Z" fill="#D2E4FF" stroke="black" stroke-width="0.9"/>
<path d="M152.343 567.274C162.452 567.575 170.424 576.188 170.129 586.532C169.834 596.875 161.385 605 151.276 604.7C141.167 604.399 133.195 595.786 133.49 585.443C133.785 575.099 142.234 566.974 152.343 567.274Z" fill="#F3F9FF" stroke="black" stroke-width="0.9"/>
<path d="M215.581 579.024H184.475C183.605 579.024 182.876 578.293 182.876 577.382C182.876 576.47 183.605 575.739 184.475 575.739H215.581C216.451 575.739 217.18 576.47 217.18 577.382C217.18 578.293 216.451 579.024 215.581 579.024Z" fill="#F3F9FF" stroke="black" stroke-width="0.9"/>
<path d="M184.475 584.357H215.581C216.451 584.357 217.18 585.089 217.18 586C217.18 586.911 216.451 587.642 215.581 587.642H184.475C183.605 587.642 182.876 586.911 182.876 586C182.876 585.089 183.605 584.357 184.475 584.357Z" fill="#F3F9FF" stroke="black" stroke-width="0.9"/>
<path d="M184.475 592.971H215.581C216.451 592.971 217.18 593.702 217.18 594.613C217.18 595.524 216.451 596.256 215.581 596.256H184.475C183.605 596.256 182.876 595.524 182.876 594.613C182.876 593.702 183.605 592.971 184.475 592.971Z" fill="#F3F9FF" stroke="black" stroke-width="0.9"/>
<path d="M135.071 586.543L151.559 586.757L160.416 600.981C157.901 602.525 154.958 603.412 151.811 603.412C142.65 603.412 135.193 595.889 135.071 586.543Z" fill="#F1A34F" stroke="black" stroke-width="0.9"/>
<path d="M143.114 592.285H152.444C152.717 592.285 152.959 592.518 152.959 592.82C152.959 593.123 152.717 593.356 152.444 593.356H143.114C142.84 593.356 142.598 593.123 142.598 592.82C142.598 592.518 142.84 592.285 143.114 592.285Z" fill="#DD8936" stroke="black" stroke-width="0.9"/>
<path d="M143.114 595.872H145.239C145.512 595.872 145.754 596.105 145.754 596.407C145.754 596.71 145.512 596.943 145.239 596.943H143.114C142.84 596.943 142.598 596.71 142.598 596.407C142.598 596.105 142.84 595.872 143.114 595.872Z" fill="#DD8936" stroke="black" stroke-width="0.9"/>
<path d="M120.483 476.757V422.342H223.431V476.757H120.483Z" fill="#AED3FF" stroke="black" stroke-width="0.9"/>
<path d="M123.858 476.757V422.342H226.804V476.757H123.858Z" fill="#D2E4FF" stroke="black" stroke-width="0.9"/>
<path d="M164.77 437.131C171.928 444.439 171.928 456.289 164.77 463.598C157.611 470.907 146.004 470.907 138.846 463.598C131.687 456.289 131.687 444.439 138.846 437.131C146.004 429.822 157.611 429.822 164.77 437.131Z" fill="#F3F9FF" stroke="black" stroke-width="0.9"/>
<path d="M168.551 450.363C168.551 456.715 165.161 462.255 160.132 465.203L152.209 450.153L151.815 449.406L151.415 450.149L151.811 450.363C151.415 450.149 151.415 450.149 151.415 450.149L151.414 450.15L151.414 450.151L151.411 450.157L151.399 450.179L151.352 450.265L151.173 450.598L150.513 451.823C149.954 452.861 149.181 454.298 148.322 455.897C146.692 458.931 144.752 462.552 143.381 465.14C138.411 462.176 135.069 456.669 135.069 450.363C135.069 440.909 142.574 433.262 151.811 433.262C161.048 433.262 168.551 440.909 168.551 450.363Z" fill="#A8D29F" stroke="black" stroke-width="0.9"/>
<path d="M184.475 440.102H215.581C216.451 440.102 217.18 440.834 217.18 441.745C217.18 442.656 216.451 443.388 215.581 443.388H184.475C183.606 443.388 182.876 442.656 182.876 441.745C182.876 440.834 183.605 440.102 184.475 440.102Z" fill="#F3F9FF" stroke="black" stroke-width="0.9"/>
<path d="M184.475 448.721H215.581C216.451 448.721 217.18 449.452 217.18 450.363C217.18 451.274 216.451 452.006 215.581 452.006H184.475C183.605 452.006 182.876 451.274 182.876 450.363C182.876 449.452 183.605 448.721 184.475 448.721Z" fill="#F3F9FF" stroke="black" stroke-width="0.9"/>
<path d="M184.475 457.335H215.581C216.451 457.335 217.18 458.066 217.18 458.977C217.18 459.889 216.451 460.62 215.581 460.62H184.475C183.605 460.62 182.876 459.889 182.876 458.977C182.876 458.066 183.605 457.335 184.475 457.335Z" fill="#F3F9FF" stroke="black" stroke-width="0.9"/>
<path d="M143.114 442.429H152.444C152.717 442.429 152.959 442.663 152.959 442.965C152.959 443.267 152.717 443.5 152.444 443.5H143.114C142.84 443.5 142.598 443.267 142.598 442.965C142.598 442.663 142.84 442.429 143.114 442.429Z" fill="#82B378" stroke="black" stroke-width="0.9"/>
<path d="M143.114 446.016H145.238C145.512 446.016 145.754 446.25 145.754 446.552C145.754 446.854 145.512 447.087 145.238 447.087H143.114C142.84 447.087 142.598 446.854 142.598 446.552C142.598 446.25 142.84 446.016 143.114 446.016Z" fill="#82B378" stroke="black" stroke-width="0.9"/>
<path d="M258.502 546.343L252.162 518.97C252.386 519.215 252.636 519.491 252.909 519.794C254.051 521.063 255.578 522.803 257.123 524.693C258.669 526.584 260.226 528.617 261.43 530.471C262.033 531.398 262.543 532.274 262.918 533.06C263.296 533.852 263.526 534.527 263.59 535.058C263.723 536.159 263.461 537.455 262.959 538.808C262.46 540.154 261.737 541.52 260.989 542.748C260.241 543.975 259.475 545.054 258.896 545.828C258.752 546.019 258.62 546.192 258.502 546.343Z" fill="#E58638" stroke="black" stroke-width="0.9"/>
<path d="M237.946 656.314H237.942H237.942H237.941H237.941L230.378 656.27C230.417 656.152 230.472 656.021 230.547 655.887C230.795 655.446 231.289 654.929 232.334 654.743C233.571 654.523 235.207 653.974 236.724 653.067C238.238 652.161 239.671 650.875 240.439 649.163L240.029 648.979L240.439 649.163C240.757 648.456 241.2 648.2 241.676 648.145C242.197 648.085 242.824 648.259 243.468 648.567C244.103 648.87 244.701 649.277 245.145 649.614C245.366 649.781 245.546 649.929 245.67 650.034C245.68 650.042 245.689 650.051 245.698 650.058C245.697 650.079 245.695 650.102 245.694 650.126C245.68 650.309 245.659 650.572 245.63 650.888C245.572 651.52 245.481 652.362 245.351 653.204C245.22 654.051 245.053 654.878 244.846 655.491C244.742 655.8 244.636 656.028 244.536 656.172C244.473 656.264 244.432 656.294 244.418 656.303C244.407 656.303 244.387 656.304 244.357 656.304C244.302 656.305 244.227 656.305 244.132 656.306C243.943 656.307 243.681 656.308 243.371 656.309C242.752 656.311 241.943 656.312 241.138 656.313C240.333 656.314 239.534 656.314 238.936 656.314L238.214 656.314L238.012 656.314L237.959 656.314L237.946 656.314Z" fill="#163560" stroke="black" stroke-width="0.9"/>
<path d="M256.005 656.314H256.002H256.001H256.001L248.419 656.287C248.46 656.168 248.516 656.034 248.594 655.898C248.848 655.45 249.35 654.929 250.394 654.743C251.63 654.523 253.267 653.974 254.783 653.067C256.298 652.161 257.73 650.875 258.499 649.163L258.088 648.979L258.499 649.163C258.817 648.456 259.259 648.2 259.736 648.145C260.257 648.085 260.883 648.259 261.528 648.567C262.162 648.87 262.76 649.277 263.204 649.614C263.425 649.781 263.605 649.929 263.729 650.034C263.739 650.042 263.749 650.051 263.758 650.058C263.757 650.079 263.755 650.102 263.753 650.126C263.74 650.309 263.719 650.572 263.69 650.888C263.631 651.52 263.541 652.362 263.411 653.204C263.28 654.051 263.112 654.878 262.905 655.491C262.801 655.8 262.695 656.028 262.596 656.172C262.532 656.264 262.492 656.294 262.478 656.303C262.466 656.303 262.447 656.304 262.417 656.304C262.362 656.305 262.286 656.305 262.191 656.306C262.002 656.307 261.741 656.308 261.431 656.309C260.812 656.311 260.002 656.312 259.198 656.313C258.393 656.314 257.594 656.314 256.996 656.314L256.274 656.314L256.072 656.314L256.019 656.314L256.005 656.314Z" fill="#163560" stroke="black" stroke-width="0.9"/>
<path d="M256.611 650.343C256.605 650.293 256.598 650.238 256.59 650.178C256.544 649.834 256.471 649.318 256.358 648.623C256.132 647.232 255.748 645.125 255.117 642.251C253.855 636.501 251.604 627.68 247.644 615.376C243.692 603.097 241.188 593.501 239.671 586.978C238.913 583.716 238.402 581.223 238.081 579.546C237.92 578.708 237.807 578.073 237.734 577.649C237.714 577.535 237.697 577.436 237.683 577.352L259.82 567.428C259.805 567.613 259.787 567.831 259.768 568.078C259.697 568.984 259.599 570.292 259.493 571.901C259.282 575.117 259.038 579.535 258.909 584.34C258.779 589.145 258.763 594.342 259.009 599.116C259.254 603.881 259.76 608.255 260.688 611.398C262.494 617.522 263.386 627.28 263.824 635.545C264.042 639.669 264.147 643.409 264.197 646.117C264.222 647.471 264.234 648.567 264.239 649.324C264.241 649.664 264.242 649.935 264.243 650.131C264.219 650.136 264.195 650.14 264.17 650.145C263.901 650.197 263.529 650.266 263.112 650.336C262.269 650.475 261.28 650.609 260.606 650.609C259.495 650.609 258.41 650.531 257.602 650.453C257.198 650.414 256.864 650.375 256.631 650.346C256.625 650.345 256.618 650.344 256.611 650.343Z" fill="#163560" stroke="black" stroke-width="0.9"/>
<path d="M239.11 650.084C239.113 650.048 239.115 650.01 239.118 649.97C239.145 649.618 239.178 649.088 239.207 648.373C239.264 646.942 239.304 644.772 239.232 641.802C239.089 635.862 238.503 626.72 236.733 613.893C234.967 601.099 234.159 589.49 233.793 581.081C233.609 576.876 233.537 573.471 233.51 571.119C233.496 569.943 233.494 569.029 233.495 568.411C233.496 568.222 233.496 568.061 233.497 567.928L257.058 568.707C257.001 568.923 256.929 569.198 256.844 569.529C256.617 570.408 256.295 571.678 255.913 573.242C255.149 576.37 254.145 580.674 253.186 585.381C252.228 590.087 251.314 595.2 250.73 599.942C250.147 604.678 249.89 609.074 250.259 612.335C250.977 618.685 250.083 628.249 248.999 636.262C248.458 640.261 247.871 643.86 247.42 646.459C247.194 647.759 247.003 648.808 246.867 649.533C246.805 649.869 246.754 650.135 246.718 650.324C246.653 650.329 246.581 650.335 246.502 650.342C246.163 650.371 245.701 650.41 245.204 650.447C244.2 650.522 243.092 650.589 242.575 650.572C242.097 650.555 241.143 650.419 240.28 650.281C239.855 650.212 239.461 650.145 239.173 650.095C239.152 650.091 239.13 650.087 239.11 650.084Z" fill="#1C468A" stroke="black" stroke-width="0.9"/>
<path d="M241.508 512.377L241.502 512.412L241.381 513.107C241.28 513.69 241.142 514.488 240.993 515.346C240.973 515.461 240.953 515.579 240.932 515.695L240.931 515.7C240.644 517.373 240.334 519.182 240.191 520.057L245.346 521.165L248.902 518.477C248.87 518.394 248.834 518.297 248.796 518.186C248.656 517.787 248.476 517.208 248.309 516.476C247.974 515.012 247.688 512.931 247.881 510.454C247.881 510.454 247.881 510.454 247.881 510.454L248.33 510.489C248.344 510.308 248.415 509.423 248.463 508.838L241.508 512.377ZM241.508 512.377L246.7 509.735L246.7 509.735L247.992 509.078L241.508 512.377Z" fill="#FFB27D" stroke="black" stroke-width="0.9"/>
<path d="M249.515 516.621L238.409 519.185C238.449 519.128 238.491 519.071 238.534 519.012C238.966 518.435 239.557 517.822 240.254 517.52C240.253 517.52 240.252 517.52 240.252 517.521C240.253 517.521 240.272 517.514 240.328 517.497C240.39 517.477 240.478 517.45 240.59 517.416C240.814 517.348 241.128 517.254 241.504 517.144C242.258 516.923 243.258 516.637 244.281 516.361C245.304 516.085 246.344 515.821 247.176 515.645C247.594 515.556 247.951 515.491 248.224 515.457C248.362 515.439 248.47 515.431 248.55 515.43C248.612 515.429 248.639 515.433 248.643 515.433C248.742 515.469 248.863 515.557 248.997 515.716C249.131 515.876 249.254 516.077 249.36 516.284C249.419 516.401 249.471 516.516 249.515 516.621Z" fill="#E58638" stroke="black" stroke-width="0.9"/>
<path d="M234.229 538.484C234.257 535.648 234.639 532.74 235.151 530.09L235.151 530.09C235.695 527.268 236.382 524.748 236.933 522.933C237.208 522.026 237.45 521.296 237.622 520.793C237.707 520.545 237.775 520.353 237.822 520.222C237.89 520.2 237.975 520.172 238.073 520.14C238.367 520.046 238.79 519.911 239.303 519.752C240.329 519.433 241.717 519.013 243.167 518.613C244.618 518.213 246.122 517.833 247.383 517.591C248.014 517.47 248.576 517.385 249.035 517.348C249.51 517.309 249.822 517.328 249.985 517.376L249.985 517.376C251.037 517.692 252.051 518.595 253.011 520.051C253.965 521.499 254.83 523.442 255.605 525.742C257.155 530.338 258.32 536.281 259.148 542.345C259.975 548.405 260.462 554.567 260.661 559.592C260.76 562.105 260.787 564.33 260.749 566.115C260.71 567.91 260.606 569.228 260.452 569.945L260.892 570.039L260.452 569.945C260.316 570.577 259.909 571.173 259.229 571.723C258.548 572.274 257.617 572.76 256.488 573.17C254.229 573.988 251.255 574.473 248.126 574.597C245 574.722 241.746 574.485 238.934 573.879C236.106 573.269 233.793 572.299 232.48 571.005L232.164 571.326L232.48 571.005C232.422 570.948 232.321 570.763 232.234 570.348C232.152 569.956 232.097 569.433 232.069 568.79C232.012 567.506 232.063 565.801 232.184 563.825C232.383 560.555 232.769 556.585 233.153 552.634C233.222 551.924 233.291 551.215 233.359 550.511C233.804 545.896 234.199 541.48 234.229 538.484ZM234.229 538.484L233.779 538.479L234.229 538.484Z" fill="#EE9849" stroke="black" stroke-width="0.9"/>
<path d="M234.229 538.483C234.256 535.755 234.611 532.96 235.093 530.393L240.769 529.37C240.807 529.551 240.855 529.787 240.911 530.075C241.05 530.799 241.232 531.845 241.402 533.128C241.742 535.696 242.034 539.208 241.84 542.989C241.466 550.33 239.275 558.553 232.238 562.973C232.449 559.878 232.802 556.248 233.153 552.634C233.222 551.924 233.291 551.215 233.359 550.51C233.804 545.896 234.199 541.48 234.229 538.483ZM234.229 538.483L233.779 538.479M234.229 538.483L233.779 538.479M233.779 538.479C233.745 541.904 233.228 547.219 232.706 552.588C232.342 556.325 231.976 560.088 231.768 563.259L234.709 530.005C234.194 532.671 233.808 535.608 233.779 538.479Z" fill="#E58638" stroke="black" stroke-width="0.9"/>
<path d="M235.685 553.045C235.689 553.06 235.693 553.076 235.696 553.092C235.729 553.23 235.762 553.424 235.759 553.648C235.752 554.107 235.591 554.695 235.001 555.155L235.685 553.045ZM235.685 553.045C235.696 553.022 235.71 552.997 235.725 552.97C235.797 552.844 235.898 552.704 236.026 552.602C236.147 552.505 236.285 552.446 236.456 552.454C236.634 552.461 236.905 552.542 237.281 552.838L235.685 553.045ZM233.86 557.413L233.86 557.413C233.884 557.512 233.985 557.688 234.199 557.916C234.401 558.134 234.668 558.358 234.954 558.555C235.242 558.752 235.533 558.911 235.782 559.007C235.907 559.055 236.01 559.083 236.09 559.095C236.167 559.106 236.201 559.1 236.204 559.099C236.205 559.099 236.205 559.099 236.204 559.099M233.86 557.413L237.281 552.838C237.942 553.358 238.108 554.346 238.063 555.429C238.041 555.949 237.973 556.445 237.918 556.856L237.917 556.86L237.917 556.86C237.89 557.061 237.864 557.25 237.85 557.403C237.844 557.481 237.839 557.558 237.84 557.63C237.841 557.677 237.844 557.743 237.858 557.813C237.848 557.835 237.828 557.87 237.795 557.916C237.701 558.046 237.546 558.208 237.349 558.377C236.946 558.723 236.471 559.014 236.204 559.099M233.86 557.413C233.789 557.128 233.846 556.738 234.056 556.309M233.86 557.413L234.056 556.309M236.204 559.099C236.204 559.099 236.204 559.099 236.204 559.099L236.341 559.527L236.204 559.099ZM234.056 556.309C234.262 555.887 234.596 555.472 235.001 555.155L234.056 556.309ZM237.869 557.787C237.869 557.786 237.869 557.785 237.869 557.785L237.869 557.787Z" fill="#FFB27D" stroke="black" stroke-width="0.9"/>
<path d="M231.516 527.228L231.516 527.228C233.961 523.549 236.712 521.425 238.841 520.221C239.907 519.619 240.818 519.247 241.458 519.026C241.648 518.96 241.815 518.908 241.954 518.867C241.963 518.997 241.973 519.148 241.985 519.319C242.027 519.946 242.086 520.836 242.151 521.892C242.282 524.002 242.438 526.769 242.542 529.397C242.646 532.03 242.696 534.505 242.617 536.042C242.606 536.253 242.593 536.444 242.577 536.614C242.394 536.358 242.144 536.181 241.844 536.086C241.441 535.959 240.986 535.989 240.539 536.092C239.643 536.297 238.587 536.837 237.59 537.452C236.584 538.073 235.598 538.794 234.834 539.395C234.451 539.696 234.122 539.969 233.871 540.186C233.631 540.394 233.439 540.571 233.352 540.672C233.072 540.998 233.065 541.462 233.118 541.857C233.174 542.281 233.322 542.78 233.521 543.31C233.921 544.374 234.561 545.648 235.227 546.864C235.895 548.082 236.598 549.257 237.134 550.126C237.402 550.561 237.629 550.92 237.788 551.17C237.859 551.28 237.916 551.37 237.958 551.435C237.863 552.408 237.353 553.115 236.696 553.595C235.995 554.107 235.147 554.345 234.522 554.345C234.523 554.345 234.524 554.345 234.524 554.344C234.525 554.344 234.479 554.338 234.373 554.285C234.261 554.23 234.119 554.143 233.945 554.02C233.599 553.775 233.167 553.413 232.673 552.958C231.687 552.052 230.489 550.809 229.304 549.477C228.118 548.146 226.951 546.733 226.026 545.489C225.087 544.227 224.436 543.188 224.232 542.59C224.043 542.033 224.056 541.277 224.302 540.297C224.547 539.323 225.01 538.172 225.666 536.854C226.978 534.216 229.027 530.973 231.516 527.228Z" fill="#EE9849" stroke="black" stroke-width="0.9"/>
<path d="M247.525 510.368L247.525 510.369C246.996 511.402 245.699 512.426 244.223 513.304C243.117 513.962 241.961 514.509 241.072 514.893C241.19 514.21 241.298 513.585 241.382 513.106L241.503 512.411L241.509 512.376L246.606 509.782C246.842 509.782 247.045 509.798 247.211 509.828C247.406 509.863 247.52 509.913 247.578 509.955C247.623 509.986 247.626 510.005 247.629 510.025C247.633 510.066 247.626 510.172 247.525 510.368Z" fill="#FCA56B" stroke="black" stroke-width="0.9"/>
<path d="M239.519 511.779C239.414 511.734 239.29 511.621 239.171 511.367C239.048 511.105 238.954 510.739 238.894 510.28C238.775 509.364 238.805 508.174 238.929 506.935C239.052 505.701 239.266 504.441 239.504 503.395C239.746 502.329 240.001 501.541 240.189 501.21L240.189 501.21C240.616 500.459 241.158 499.766 242.134 499.439C243.126 499.106 244.659 499.12 247.132 500.023L247.132 500.023C248.35 500.468 249.081 500.969 249.504 501.507C249.918 502.033 250.074 502.64 250.046 503.383C250.018 504.142 249.801 505.017 249.483 506.051C249.364 506.44 249.229 506.856 249.087 507.293C248.861 507.989 248.617 508.739 248.391 509.52C248.061 510.665 247.375 511.367 246.523 511.794C245.654 512.229 244.596 512.386 243.542 512.387C242.493 512.387 241.481 512.235 240.728 512.08C240.352 512.002 240.044 511.925 239.83 511.868C239.723 511.839 239.64 511.815 239.584 511.799C239.557 511.79 239.536 511.784 239.522 511.78L239.519 511.779Z" fill="#FFB27D" stroke="black" stroke-width="0.9"/>
<path d="M240.56 500.458L240.56 500.458L240.551 500.346L240.489 500.251C239.986 499.48 239.804 498.875 239.812 498.415C239.819 497.975 240.001 497.622 240.341 497.332C241.063 496.717 242.486 496.402 244.255 496.462C245.995 496.522 247.959 496.941 249.66 497.667C251.373 498.398 252.755 499.412 253.419 500.617C253.476 500.719 253.519 500.954 253.467 501.372C253.417 501.772 253.288 502.27 253.088 502.837C252.687 503.969 252.017 505.321 251.198 506.613C250.378 507.906 249.423 509.117 248.459 509.98C247.476 510.859 246.572 511.299 245.839 511.237C244.943 511.16 244.452 510.982 244.189 510.789C243.958 510.619 243.873 510.416 243.865 510.137C243.855 509.826 243.943 509.454 244.069 508.994C244.081 508.949 244.094 508.903 244.107 508.856C244.218 508.455 244.344 508 244.387 507.558C244.435 507.076 244.404 506.667 244.267 506.34C244.12 505.99 243.865 505.766 243.55 505.653C243.257 505.548 242.935 505.546 242.642 505.575C242.356 505.603 242.052 505.665 241.764 505.726C241.756 505.72 241.746 505.71 241.733 505.696C241.658 505.616 241.565 505.464 241.464 505.222C241.266 504.746 241.096 504.066 240.959 503.347C240.823 502.635 240.723 501.913 240.657 501.366C240.624 501.093 240.6 500.866 240.584 500.706C240.576 500.627 240.57 500.564 240.566 500.522L240.562 500.474L240.561 500.462L240.56 500.459L240.56 500.458L240.56 500.458ZM241.78 505.738C241.78 505.738 241.779 505.737 241.776 505.736C241.779 505.737 241.78 505.737 241.78 505.738Z" fill="#163560" stroke="black" stroke-width="0.9"/>
<path d="M99.1737 648.399L96.9534 638.851H102.135L102.013 648.383L99.1737 648.399Z" fill="#FFB27D" stroke="black" stroke-width="0.9"/>
<path d="M136.083 645.275L133.939 648.086L127.745 639.125L132.222 637.994L136.083 645.275Z" fill="#FFB27D" stroke="black" stroke-width="0.9"/>
<path d="M75.9922 531.631C76.0624 531.673 76.1357 531.721 76.2138 531.776C76.2342 531.741 76.2556 531.704 76.2779 531.667C76.2127 531.658 76.121 531.647 75.9922 531.631ZM75.9922 531.631L76.2238 531.245C76.2964 531.289 76.3698 531.337 76.4449 531.389M75.9922 531.631C75.9922 531.631 76.0167 531.433 76.1064 531.081L76.4449 531.389M76.4449 531.389C76.4711 531.346 76.498 531.303 76.5257 531.259L76.4449 531.389ZM78.3592 529.33C78.3561 529.337 78.3435 529.365 78.323 529.41C78.2708 529.527 78.1673 529.756 78.0401 530.048C78.0458 530.043 78.0516 530.038 78.0574 530.033C78.2378 529.873 78.3811 529.791 78.4814 529.763L78.3592 529.33ZM78.3592 529.33L77.9439 529.156C77.945 529.154 77.943 529.158 77.9334 529.18L77.9003 529.253C77.8724 529.315 77.8337 529.401 77.787 529.506C77.7508 529.588 77.7098 529.68 77.6653 529.782C77.8987 529.559 78.135 529.393 78.3592 529.33ZM110.359 525.025C110.632 524.748 110.88 524.435 111.106 524.09L110.359 525.025ZM110.359 525.025C110.613 524.495 110.829 523.93 111.012 523.371C110.911 523.555 110.805 523.731 110.694 523.897L110.359 525.025ZM88.4535 540.318C88.2969 540.646 88.2366 541.176 88.2193 541.681L88.0093 540.39L88.4535 540.318ZM88.4535 540.318L88.6706 541.653C88.6752 541.536 88.6823 541.419 88.6926 541.304C88.7242 540.951 88.7821 540.674 88.8596 540.512L88.4535 540.318ZM92.0186 545.921C92.0186 545.921 91.8686 545.778 91.5968 545.519L92.0186 545.921ZM92.0186 545.921C92.0054 545.773 92.0316 545.588 92.0939 545.371L92.0186 545.921ZM108.804 501.468L108.804 501.468C109.119 501.651 109.482 502.053 109.858 502.698C110.229 503.332 110.587 504.156 110.915 505.124C111.57 507.059 112.089 509.524 112.347 512.085C112.605 514.646 112.599 517.283 112.219 519.565C112.063 520.504 111.845 521.372 111.561 522.146C111.7 521.364 111.819 520.45 111.907 519.381L111.012 519.287C110.993 519.431 110.856 520.467 110.542 521.736C110.232 522.985 109.763 524.415 109.097 525.449C106.025 527.533 101.627 531.93 98.0271 536.111C96.2082 538.224 94.5804 540.297 93.4189 542.008C92.8388 542.863 92.3686 543.637 92.0489 544.287C91.9197 544.549 91.8123 544.797 91.7319 545.026C91.6479 544.946 91.5559 544.859 91.4563 544.764C90.926 544.261 90.1818 543.556 89.3016 542.73L88.8977 540.246L88.6669 538.827L88.0474 540.124C87.8977 540.438 87.8298 540.849 87.7962 541.224C87.7935 541.254 87.7911 541.283 87.7888 541.313C84.4938 538.241 80.1715 534.285 77.6337 532.276C77.9536 531.333 78.5403 530.026 78.7215 529.622C78.7503 529.558 78.7689 529.516 78.7745 529.503L79.1331 528.644L78.237 528.897C77.9489 528.978 77.6858 529.16 77.4611 529.358C77.3041 529.497 77.1514 529.657 77.0063 529.827C77.2191 529.316 77.5086 528.723 77.9008 528.074C79.1843 525.95 81.5769 523.217 86.0141 520.87C86.7477 520.482 87.4384 520.133 88.0911 519.804C88.4901 519.602 88.8749 519.408 89.2466 519.216C90.2146 518.716 91.0805 518.242 91.7963 517.739C92.5127 517.235 93.1027 516.687 93.4984 516.031C93.8995 515.366 94.0857 514.615 94.0333 513.737L94.0332 513.736C93.9409 512.202 94.2451 508.069 95.6791 504.784C96.3952 503.144 97.3694 501.77 98.662 501.011C99.931 500.266 101.576 500.072 103.742 500.924L103.919 500.994L104.093 500.916L104.093 500.916L104.093 500.916L104.093 500.915L104.093 500.915L104.096 500.914L104.106 500.909L104.15 500.89C104.179 500.878 104.218 500.861 104.265 500.841L105.241 500.782C106.261 500.721 107.661 500.805 108.804 501.468Z" fill="#163560" stroke="black" stroke-width="0.9"/>
<path d="M101.119 523.791C101.121 523.794 101.122 523.797 101.124 523.801C101.272 524.055 101.494 524.402 101.778 524.764C102.358 525.505 103.146 526.247 104.049 526.499L104.049 526.499C105.03 526.773 106.219 526.569 107.206 526.261C107.691 526.11 108.109 525.94 108.402 525.807C108.409 525.804 108.417 525.801 108.424 525.797C108.415 525.772 108.407 525.747 108.399 525.723C108.323 525.479 108.271 525.174 108.234 524.842C108.158 524.175 108.134 523.323 108.136 522.464M101.119 523.791L108.586 522.465M101.119 523.791C101.235 523.702 101.341 523.589 101.433 523.449C101.631 523.147 101.759 522.737 101.848 522.216C102.015 521.247 102.077 519.727 102.077 517.385M101.119 523.791L102.077 517.385M108.136 522.464L108.586 522.465M108.136 522.464C108.136 522.464 108.136 522.464 108.136 522.464L108.586 522.465M108.136 522.464C108.139 521.438 108.178 520.382 108.217 519.585C108.236 519.198 108.255 518.871 108.269 518.637M108.586 522.465C108.591 520.432 108.744 518.273 108.744 518.273M108.269 518.637L108.654 518.715L108.744 518.273M108.269 518.637L102.077 517.385M108.269 518.637C108.27 518.629 108.27 518.622 108.27 518.615C108.278 518.497 108.284 518.404 108.288 518.34L108.293 518.267L108.294 518.248L108.295 518.244L108.295 518.242L108.295 518.242L108.295 518.242L108.744 518.273M108.744 518.273L102.077 517.385" fill="#FFB27D" stroke="black" stroke-width="0.9"/>
<path d="M107.114 502.546C106.141 502.522 104.791 502.544 103.053 502.698C103.276 502.578 103.525 502.463 103.797 502.368C104.694 502.053 105.86 501.936 107.197 502.548C107.17 502.547 107.142 502.546 107.114 502.546Z" fill="#E37970" stroke="black" stroke-width="0.9"/>
<path d="M102.802 517.53L108.269 518.635C108.254 518.87 108.236 519.197 108.217 519.584C108.184 520.257 108.15 521.114 108.14 521.982C106.633 521.813 105.449 521.042 104.528 520.067C103.773 519.267 103.206 518.341 102.802 517.53Z" fill="#D68D5D" stroke="black" stroke-width="0.9"/>
<path d="M99.333 510.196L99.333 510.196C99.2597 509.775 99.252 509.015 99.4003 508.118C99.5477 507.226 99.8441 506.231 100.354 505.332C100.863 504.435 101.579 503.643 102.567 503.133C103.552 502.623 104.842 502.375 106.533 502.623L106.543 502.624L106.552 502.625L106.553 502.625L106.553 502.625L106.553 502.625L106.553 502.625L106.555 502.626L106.569 502.627C106.581 502.629 106.602 502.631 106.629 502.635C106.683 502.642 106.765 502.655 106.87 502.674C107.079 502.711 107.382 502.776 107.743 502.88C108.466 503.089 109.415 503.456 110.331 504.087C111.054 504.586 111.902 505.348 112.298 506.699C112.697 508.059 112.66 510.092 111.442 513.174L111.436 513.191L111.43 513.209L110.876 515.033L101.577 515.7C101.53 515.621 101.474 515.523 101.409 515.409C101.221 515.074 100.964 514.6 100.693 514.043C100.147 512.921 99.5585 511.492 99.333 510.196Z" fill="#163560" stroke="black" stroke-width="0.9"/>
<path d="M114.638 616.333L114.638 616.332L113.839 615.32L114.265 615.177C114.265 615.177 114.265 615.176 114.265 615.176C112.971 611.323 111.025 607.013 109.027 602.587C108.902 602.309 108.777 602.032 108.651 601.754C106.519 597.025 104.366 592.183 102.882 587.588C102.408 586.119 101.982 584.737 101.601 583.43C101.479 583.01 101.36 582.6 101.247 582.196L101.246 582.195C99.123 574.662 98.4623 569.642 97.8902 564.364L118.541 564.533C118.542 564.542 118.543 564.552 118.544 564.562C118.573 564.847 118.617 565.27 118.677 565.822C118.798 566.928 118.986 568.551 119.252 570.628C119.783 574.781 120.628 580.746 121.883 587.996C124.368 602.361 128.462 621.777 134.912 642.146L131.946 642.238L131.96 642.688L131.946 642.238L128.307 642.352C128.245 642.279 128.162 642.18 128.061 642.057C127.811 641.753 127.447 641.298 126.995 640.702C126.089 639.509 124.828 637.748 123.411 635.482C120.577 630.949 117.121 624.399 114.638 616.333Z" fill="#80BDCC" stroke="black" stroke-width="0.9"/>
<path d="M116.892 566.169C116.854 566.033 116.807 565.86 116.755 565.65C116.607 565.052 116.411 564.15 116.217 562.921C115.83 560.463 115.452 556.697 115.48 551.436C115.48 551.436 115.48 551.436 115.48 551.436L115.93 551.439C115.93 551.351 116.212 550.229 116.606 548.659C117.54 544.943 119.104 538.719 119.053 537.788L116.892 566.169ZM116.892 566.169C116.872 566.178 116.852 566.187 116.831 566.197C116.565 566.317 116.17 566.487 115.661 566.68C114.643 567.067 113.169 567.548 111.357 567.921C107.731 568.666 102.762 568.976 97.3689 567.243L97.3686 567.243C97.3305 567.231 97.1471 567.187 96.9077 567.13C96.6499 567.069 96.2891 566.984 95.8601 566.883C95.0021 566.682 93.8704 566.417 92.7428 566.154C91.6152 565.89 90.4917 565.628 89.65 565.432L88.713 565.213M116.892 566.169L95.2071 539.988M88.2745 565.111L88.3492 565.128L88.6337 565.195L88.713 565.213M88.2745 565.111L97.2313 567.672C97.1194 567.636 90.3929 566.067 88.5881 565.646C88.6238 565.542 88.6672 565.385 88.7124 565.215C88.7126 565.215 88.7128 565.214 88.713 565.213M88.2745 565.111C88.4589 564.422 88.7943 563.042 89.1315 561.654C89.5899 559.768 90.0515 557.868 90.1419 557.671C91.2441 555.254 92.2201 553.483 92.9701 552.123C93.7962 550.623 94.3481 549.622 94.4922 548.804L88.2745 565.111ZM88.713 565.213C88.7764 564.976 88.8565 564.661 88.9473 564.298C89.1254 563.585 89.3468 562.674 89.5685 561.761L89.5833 561.7C89.8102 560.767 90.0364 559.836 90.217 559.115C90.3074 558.754 90.3858 558.448 90.4469 558.22C90.4776 558.106 90.5031 558.015 90.5233 557.947C90.5378 557.899 90.5465 557.873 90.5501 557.862C90.5523 557.856 90.5524 557.855 90.5508 557.859L90.5514 557.858C91.6464 555.457 92.6154 553.698 93.3648 552.339C93.4027 552.27 93.44 552.202 93.4768 552.135C93.8573 551.444 94.1824 550.848 94.4292 550.326C94.6753 549.804 94.8564 549.33 94.9354 548.882L94.9354 548.881C95.4536 545.917 95.4636 542.86 95.2071 539.988M95.2071 539.988C94.87 536.196 94.2006 532.729 93.616 530.211C93.3235 528.951 93.052 527.928 92.8533 527.219C92.7808 526.96 92.718 526.743 92.6674 526.571C95.108 525.962 97.4845 525.042 99.9517 524.088C100.283 523.96 100.615 523.831 100.95 523.703C101.402 524.147 102.082 524.545 102.83 524.841C103.729 525.197 104.791 525.431 105.811 525.408L95.2071 539.988ZM108.972 523.642C109.883 524.174 110.694 524.677 111.31 525.069C111.685 525.307 111.987 525.505 112.195 525.642C112.297 525.709 112.376 525.762 112.43 525.798L108.972 523.642ZM108.972 523.642C108.874 524.013 108.673 524.362 108.338 524.651C107.794 525.122 106.956 525.382 105.811 525.408L108.972 523.642Z" fill="#E7F1FD" stroke="black" stroke-width="0.9"/>
<path d="M90.9327 562.519C91.5735 562.194 92.1596 561.696 92.6983 561.073C93.4774 560.173 94.134 559.038 94.6914 557.87C95.248 556.705 95.6967 555.526 96.0692 554.541L96.0971 554.468C96.2712 554.007 96.4302 553.587 96.5742 553.239C96.7221 552.881 96.8692 552.562 97.0175 552.348C97.2492 552.012 97.6058 551.292 98.0019 550.271C98.3939 549.26 98.8137 547.982 99.179 546.552C99.9112 543.685 100.415 540.237 100.061 537.104L90.9327 562.519ZM90.9327 562.519C91.8771 560.194 92.714 558.43 93.3778 557.031C93.4157 556.951 93.4531 556.872 93.4899 556.794C94.2421 555.208 94.7881 554.039 94.9377 553.051L94.9378 553.051C95.4467 549.669 95.4637 546.179 95.2185 542.891C95.9414 541.599 96.5721 540.51 97.0259 539.738C97.2597 539.34 97.4464 539.026 97.5747 538.812C97.6388 538.705 97.6882 538.623 97.7216 538.567L97.7594 538.505L97.7689 538.489L97.7713 538.485L97.7718 538.484L97.772 538.484L97.772 538.484L97.3876 538.25L97.772 538.484L97.8051 538.43L97.8218 538.368C97.8466 538.277 98.0057 537.761 98.2431 537.137C98.482 536.509 98.7866 535.808 99.0971 535.326C99.2562 535.079 99.3894 534.934 99.4826 534.871C99.4872 534.868 99.4914 534.865 99.4952 534.863C99.5427 534.915 99.6368 535.054 99.7403 535.381C99.8599 535.758 99.971 536.315 100.061 537.104L90.9327 562.519Z" fill="#5F9AA8" stroke="black" stroke-width="0.9"/>
<path d="M112.416 508.727L112.416 508.727C112.512 509.127 112.541 510.014 112.475 511.176C112.41 512.318 112.258 513.67 112.021 514.969C111.783 516.273 111.463 517.499 111.071 518.4C110.875 518.851 110.67 519.198 110.466 519.43C110.267 519.656 110.102 519.736 109.975 519.751L109.97 519.751C109.955 519.751 109.931 519.751 109.9 519.751C109.839 519.751 109.747 519.75 109.629 519.746C109.393 519.739 109.055 519.724 108.648 519.687C107.833 519.615 106.753 519.461 105.68 519.137C104.603 518.813 103.563 518.328 102.799 517.612C102.047 516.908 101.549 515.973 101.548 514.693C101.547 513.827 101.519 512.988 101.493 512.209C101.476 511.719 101.461 511.253 101.453 510.818C101.433 509.666 101.468 508.703 101.663 507.916C101.855 507.144 102.194 506.567 102.776 506.153C103.371 505.731 104.269 505.443 105.645 505.362C108.436 505.197 110.013 505.652 110.937 506.302C111.848 506.943 112.201 507.827 112.416 508.727Z" fill="#FFB27D" stroke="black" stroke-width="0.9"/>
<path d="M112.643 511.663C112.635 511.689 112.627 511.715 112.619 511.741C112.529 511.515 112.444 511.216 112.362 510.861C112.281 510.512 112.207 510.135 112.133 509.753C112.113 509.649 112.093 509.545 112.072 509.44C111.978 508.963 111.879 508.486 111.76 508.1L111.76 508.1C111.568 507.475 111.163 506.873 110.762 506.383C110.356 505.886 109.927 505.472 109.653 505.224L109.644 505.215L109.895 504.995C110.132 504.788 110.416 504.648 110.749 504.685C111.09 504.723 111.595 504.957 112.242 505.758C113.152 506.884 113.229 508.489 113.033 509.901C112.937 510.596 112.778 511.216 112.643 511.663ZM102.016 506.228C102.045 506.209 102.077 506.188 102.112 506.166C102.277 506.058 102.516 505.908 102.809 505.736C103.397 505.391 104.195 504.965 105.045 504.629C105.902 504.291 106.777 504.06 107.531 504.074C108.237 504.086 108.798 504.309 109.175 504.833L108.938 505.378C108.556 506.257 107.843 507.739 106.871 509.091C105.889 510.458 104.698 511.609 103.385 511.954L103.499 512.389L103.385 511.954C101.57 512.431 100.292 512.415 99.4861 512.292C99.2856 512.261 99.1135 512.224 98.969 512.186C99.2542 511.893 99.625 511.476 100.012 510.943C100.808 509.849 101.68 508.254 102.016 506.228Z" fill="#163560" stroke="black" stroke-width="0.9"/>
<path d="M99.1958 649.589C99.2041 649.281 99.1986 649.011 99.1885 648.795L102.076 649.227L102.109 649.4C102.168 649.702 102.249 650.122 102.34 650.596C102.522 651.543 102.741 652.7 102.892 653.546L102.892 653.546C102.964 653.953 102.967 654.215 102.927 654.388C102.894 654.533 102.831 654.618 102.71 654.689C102.564 654.775 102.318 654.847 101.907 654.888C101.502 654.929 100.982 654.936 100.317 654.923C99.7294 654.912 99.3704 654.754 99.1439 654.565C98.9142 654.373 98.7776 654.114 98.7017 653.827C98.6252 653.538 98.6159 653.241 98.6285 653.008C98.6347 652.894 98.6459 652.799 98.6554 652.734C98.6597 652.704 98.6637 652.681 98.6665 652.666C99.0556 651.514 99.1739 650.407 99.1958 649.589Z" fill="#FFB27D" stroke="black" stroke-width="0.9"/>
<path d="M98.5512 653.435C99.1193 653.868 99.6636 654.122 100.18 654.234C100.891 654.389 101.511 654.269 102.012 654.04C102.388 653.869 102.695 653.639 102.931 653.423C103.021 653.932 103.074 654.537 103.104 655.11C103.127 655.554 103.136 655.961 103.138 656.256C103.138 656.27 103.138 656.283 103.138 656.296H98.424C98.3568 655.672 98.3964 654.869 98.4678 654.151C98.4936 653.891 98.5229 653.647 98.5512 653.435Z" fill="#C45446" stroke="black" stroke-width="0.9"/>
<path d="M141.299 654.615L133.715 647.342L136.437 645.918C137.277 647.359 138.756 649.314 140.053 650.942C140.767 651.837 141.433 652.643 141.92 653.225C142.164 653.517 142.363 653.752 142.502 653.915C142.543 653.963 142.579 654.006 142.61 654.041L142.61 654.438L141.299 654.615Z" fill="#FFB27D" stroke="black" stroke-width="0.9"/>
<path d="M134.683 656.277V652.039V651.449L135.252 651.605C136.215 651.869 137.281 652.379 137.771 653.398L134.683 656.277ZM134.683 656.277H134.066L132.843 651.627L132.831 651.578L132.807 651.533C132.102 650.184 132.521 648.936 133.081 647.697C133.855 647.838 135.744 648.62 138.889 652.308L138.889 652.308C140.134 653.768 141.539 654.343 142.957 654.331C144.329 654.979 145.022 655.715 145.373 656.277H139.431C139.216 656.046 138.987 655.715 138.734 655.277C138.436 654.762 138.123 654.13 137.771 653.398L134.683 656.277Z" fill="#C45446" stroke="black" stroke-width="0.9"/>
<path d="M138.014 534.29L138.014 534.29C137.275 534.63 135.935 535.267 134.561 535.922L134.561 535.922C133.733 536.316 132.894 536.719 132.169 537.067L132.168 537.067C130.754 537.746 129.075 537.372 128.063 536.166C126.499 534.3 123.687 531.342 120.224 528.726C116.959 526.26 113.154 524.128 109.292 523.469C109.776 524.709 110.801 527.364 111.799 530.125C112.418 531.835 113.028 533.591 113.492 535.077C113.95 536.541 114.287 537.802 114.326 538.491M138.014 534.29L114.928 581.535L114.928 581.536M138.014 534.29C139.075 533.801 141.071 532.719 142.788 531.767C143.649 531.29 144.445 530.843 145.026 530.515C145.196 530.419 145.348 530.333 145.477 530.259L146.181 532.663C146.176 532.669 146.171 532.676 146.166 532.682C146.067 532.811 145.923 532.998 145.743 533.227C145.384 533.687 144.885 534.319 144.322 535.011C143.191 536.401 141.823 538.006 140.831 538.935C139.147 540.511 137.462 541.976 136.024 542.887C134.277 543.992 132.843 544.794 131.847 545.319C131.349 545.582 130.961 545.775 130.698 545.902C130.591 545.954 130.505 545.995 130.44 546.025C130.408 546.017 130.37 546.007 130.327 545.996C130.154 545.952 129.9 545.885 129.579 545.795C128.937 545.615 128.027 545.341 126.957 544.969C124.814 544.223 122.045 543.086 119.51 541.519L118.642 540.982L118.831 541.985C119.198 543.931 119.352 545.792 119.18 547.431C118.721 551.812 119.332 560.242 120.05 567.531C120.41 571.185 120.798 574.569 121.096 577.038C121.246 578.273 121.372 579.28 121.462 579.978C121.506 580.327 121.542 580.599 121.566 580.783L121.566 580.786M138.014 534.29L121.566 580.786M114.326 538.491L113.877 538.517L114.326 538.491ZM114.326 538.491C114.403 539.817 114.554 550.573 114.686 560.972C114.753 566.178 114.814 571.301 114.859 575.123C114.882 577.033 114.9 578.619 114.913 579.727L114.927 581.011L114.931 581.349L114.932 581.436L114.932 581.458L114.932 581.463L114.932 581.464C114.932 581.465 114.932 581.465 114.482 581.47L114.932 581.465L114.933 581.504L114.928 581.536M114.928 581.536C114.928 581.536 114.928 581.536 114.928 581.536C114.927 581.54 114.926 581.549 114.926 581.562C114.925 581.588 114.926 581.628 114.934 581.676C114.949 581.771 114.989 581.885 115.088 581.986C115.277 582.179 115.862 582.49 117.563 582.112C119.281 581.731 120.35 581.353 120.98 581.077C121.252 580.958 121.442 580.858 121.566 580.786M114.928 581.536L121.566 580.786M121.762 580.66C121.763 580.659 121.763 580.659 121.761 580.66L121.762 580.66Z" fill="#E37970" stroke="black" stroke-width="0.9"/>
<path d="M114.265 615.176C112.97 611.323 111.024 607.012 109.027 602.586C108.901 602.309 108.776 602.031 108.651 601.753C106.518 597.024 104.365 592.182 102.881 587.587C102.407 586.119 101.982 584.737 101.6 583.429L101.6 583.429C101.507 583.11 101.416 582.796 101.328 582.486L103.86 580.524C103.906 580.602 103.957 580.69 104.013 580.788C104.278 581.245 104.661 581.916 105.129 582.767C106.065 584.471 107.345 586.896 108.716 589.783C111.462 595.564 114.565 603.173 116.03 610.536L116.471 610.448L116.03 610.536C117.325 617.043 120.558 624.186 123.784 630.167C126.685 635.545 129.595 640.008 131.124 642.263L128.306 642.352C128.244 642.278 128.161 642.179 128.06 642.056C127.81 641.752 127.446 641.298 126.994 640.701C126.088 639.509 124.827 637.748 123.41 635.482C120.576 630.948 117.12 624.398 114.637 616.332L114.637 616.331C114.52 615.951 114.396 615.566 114.265 615.176ZM114.265 615.176L113.838 615.319M114.265 615.176C114.265 615.176 114.265 615.176 114.265 615.176L113.838 615.319M113.838 615.319C112.551 611.489 110.614 607.197 108.613 602.764C106.364 597.781 104.033 592.617 102.453 587.726C101.978 586.253 101.551 584.867 101.168 583.555L114.207 616.464C114.091 616.087 113.968 615.706 113.838 615.319Z" fill="#5F9AA8" stroke="black" stroke-width="0.9"/>
<path d="M103.867 611.832V611.832C103.855 610.09 104.173 605.785 104.566 600.467C104.651 599.315 104.739 598.116 104.829 596.886C105.319 590.134 105.841 582.394 105.976 576.172L88.2547 577.936C88.2543 578.321 88.258 578.715 88.2658 579.118L103.867 611.832ZM103.867 611.832C103.921 618.911 103.577 634.987 102.699 642.038H99.6804C98.7391 642.038 98.0342 642.031 97.5652 642.024C97.4331 642.022 97.3197 642.02 97.225 642.019C94.9544 630.249 93.3346 620.492 92.1522 612.075C91.8773 610.118 91.6111 608.239 91.3555 606.435C90.6988 601.801 90.1123 597.662 89.6301 593.954L89.6301 593.954C88.9556 588.771 88.4885 584.442 88.3214 580.793M103.867 611.832L88.3214 580.793M88.3214 580.793C88.2958 580.217 88.2763 579.659 88.2658 579.118L88.3214 580.793Z" fill="#80BDCC" stroke="black" stroke-width="0.9"/>
<path d="M89.6313 593.957L89.6313 593.957C89.0079 589.166 88.5616 585.106 88.3657 581.636L93.8534 584.932C93.8222 584.957 93.7903 584.984 93.7577 585.013C93.3264 585.388 92.7954 586.007 92.3281 587.002C91.3952 588.989 90.7255 592.453 91.5649 598.452C91.8271 600.326 92.14 602.665 92.4902 605.284C93.2497 610.963 94.1844 617.952 95.1566 624.338C95.8669 629.004 96.5989 633.359 97.2994 636.656C97.6494 638.303 97.9938 639.697 98.3264 640.737C98.4915 641.254 98.6572 641.694 98.824 642.039C98.2992 642.036 97.88 642.032 97.5664 642.027C97.4343 642.025 97.3209 642.023 97.2262 642.021C94.9556 630.251 93.3358 620.495 92.1534 612.078C91.8785 610.12 91.6123 608.241 91.3567 606.438C90.7 601.804 90.1135 597.665 89.6313 593.957Z" fill="#5F9AA8" stroke="black" stroke-width="0.9"/>
<path d="M84.9597 581.544C84.6756 581.431 84.4402 581.334 84.2632 581.261C84.3188 581.081 84.393 580.84 84.4839 580.543C84.7036 579.828 85.0217 578.788 85.4151 577.491C86.202 574.897 87.2905 571.276 88.4971 567.162C91.4173 557.209 95.0377 544.36 96.7458 536.245C97.215 534.021 97.5425 532.138 97.6719 530.762L101.038 524.227C101.173 524.548 101.34 524.946 101.531 525.404C102.054 526.66 102.755 528.367 103.464 530.175C104.174 531.984 104.892 533.89 105.451 535.543C106.015 537.213 106.399 538.577 106.469 539.328C106.502 539.677 106.439 540.576 106.284 541.946C106.131 543.294 105.897 545.045 105.606 547.061C105.025 551.091 104.222 556.162 103.409 561.134C102.595 566.106 101.773 570.977 101.153 574.605C100.844 576.419 100.585 577.922 100.403 578.972C100.313 579.497 100.241 579.908 100.192 580.188L100.137 580.508L100.123 580.59L100.122 580.594C100.12 580.6 100.118 580.608 100.115 580.618C100.105 580.649 100.091 580.696 100.07 580.756C100.029 580.877 99.9641 581.052 99.8728 581.261C99.6894 581.681 99.4018 582.231 98.9846 582.759C98.158 583.804 96.8397 584.753 94.7697 584.471C92.5473 584.169 89.8342 583.332 87.6586 582.562C86.5747 582.178 85.6316 581.813 84.9597 581.544Z" fill="#E37970" stroke="black" stroke-width="0.9"/>
<path d="M112.556 548.758L112.791 548.745L112.915 548.544C113.296 547.923 113.767 547.012 113.926 546.065C114.052 545.32 114.302 544.72 114.734 544.274C115.163 543.831 115.816 543.494 116.835 543.357L116.775 542.911L116.835 543.357C117.939 543.209 118.673 543.136 119.126 543.167C119.307 543.179 119.4 543.206 119.443 543.224C119.441 543.235 119.438 543.254 119.432 543.284C119.421 543.335 119.404 543.403 119.379 543.488C119.328 543.657 119.251 543.877 119.146 544.138C118.937 544.661 118.624 545.333 118.214 546.069C117.392 547.546 116.195 549.248 114.685 550.511L114.685 550.511C114.104 550.997 113.69 551.188 113.413 551.236L113.377 551.242L113.342 551.254C108.565 552.924 104.387 553.837 100.94 554.311L101.241 549.421C105.508 549.148 110.445 548.873 112.556 548.758Z" fill="#FFB27D" stroke="black" stroke-width="0.9"/>
<path d="M99.9113 546.068C99.7153 551.144 98.5764 560.71 88.7966 566.144C91.5338 556.782 94.7925 545.17 96.5167 537.316C97.3105 538.588 98.0933 539.978 98.7079 541.353C99.4788 543.077 99.9625 544.726 99.9113 546.068Z" fill="#C45446" stroke="black" stroke-width="0.9"/>
<path d="M90.036 529.068L90.036 529.068C91.0605 526.738 93.7471 525.359 96.3158 524.566C97.5825 524.175 98.784 523.938 99.6699 523.799C99.995 523.748 100.277 523.71 100.503 523.682L100.427 524.026C100.292 524.634 100.098 525.505 99.8639 526.556C99.3955 528.657 98.7647 531.48 98.115 534.363C96.8119 540.147 95.4424 546.132 95.1466 547.089C95.0381 547.439 95.0666 547.778 95.2338 548.075C95.3919 548.356 95.6494 548.556 95.9201 548.701C96.456 548.989 97.1942 549.141 97.893 549.226C98.6047 549.313 99.3303 549.336 99.874 549.338C100.147 549.338 100.376 549.334 100.537 549.329C100.58 549.328 100.618 549.327 100.65 549.325C100.898 549.511 101.062 549.858 101.119 550.4C101.183 550.999 101.103 551.734 100.955 552.47C100.809 553.2 100.602 553.901 100.43 554.422C100.345 554.681 100.268 554.895 100.214 555.042C100.212 555.043 100.209 555.043 100.207 555.044L100.207 555.044C96.8065 555.693 94.1527 555.737 92.3567 555.62C91.4585 555.562 90.7744 555.464 90.3185 555.382C90.1012 555.342 89.9357 555.306 89.8236 555.28C89.21 554.113 88.7627 552.28 88.4815 550.051C88.1885 547.73 88.0817 545.032 88.1318 542.324C88.182 539.617 88.3889 536.909 88.7202 534.568C89.053 532.217 89.5067 530.271 90.036 529.068Z" fill="#E37970" stroke="black" stroke-width="0.9"/>
<path d="M152.793 528.08L152.793 528.08C152.613 528.388 152.47 528.56 152.347 528.676C152.231 528.785 152.123 528.855 151.968 528.956C151.954 528.965 151.94 528.974 151.925 528.984C151.542 529.234 151.104 529.552 150.451 530.507C149.868 531.359 149.284 531.846 148.699 532.104C148.195 532.326 147.658 532.393 147.064 532.343L146.259 529.592C146.265 529.576 146.27 529.559 146.277 529.54C146.317 529.427 146.38 529.262 146.471 529.065C146.654 528.671 146.944 528.153 147.376 527.658C148.222 526.687 149.623 525.779 151.912 526.067C152.186 526.158 152.61 526.34 152.866 526.642C152.99 526.789 153.069 526.958 153.079 527.167C153.089 527.38 153.028 527.678 152.793 528.08Z" fill="#FFB27D" stroke="black" stroke-width="0.9"/>
<path d="M138.015 534.288L138.016 534.288C139.076 533.8 141.073 532.717 142.789 531.766C143.651 531.289 144.447 530.841 145.028 530.514C145.198 530.417 145.35 530.332 145.479 530.258L146.184 532.665C146.104 532.772 145.99 532.922 145.847 533.11C145.548 533.501 145.121 534.05 144.613 534.681C143.596 535.944 142.259 537.526 140.967 538.821L140.967 538.821C139.581 540.21 137.994 541.538 136.659 542.465C136.378 539.222 135.651 537.07 134.984 535.72C136.205 535.138 137.353 534.593 138.015 534.288Z" fill="#FFB27D" stroke="black" stroke-width="0.9"/>
<path d="M401.15 571.146L402.381 573.169C402.037 573.19 401.598 573.225 401.1 573.281C399.918 573.416 398.385 573.678 397.041 574.194C395.882 574.638 394.366 574.488 392.936 574.151C392.232 573.985 391.569 573.779 391.008 573.595C390.851 573.544 390.699 573.493 390.555 573.444C390.2 573.325 389.894 573.223 389.684 573.168C389.418 573.099 389.231 573.034 389.105 572.97C389.01 572.922 388.975 572.888 388.964 572.875C388.964 572.866 388.967 572.85 388.976 572.823C389.002 572.74 389.07 572.609 389.215 572.416C389.246 572.373 389.324 572.298 389.474 572.202C389.618 572.109 389.806 572.009 390.033 571.909C390.488 571.71 391.072 571.519 391.711 571.374C393.007 571.078 394.443 570.986 395.454 571.298C396.673 571.672 398.197 571.602 399.374 571.455C399.97 571.381 400.494 571.284 400.869 571.206C400.975 571.184 401.07 571.164 401.15 571.146ZM388.964 572.884C388.964 572.884 388.964 572.883 388.964 572.88C388.964 572.882 388.964 572.884 388.964 572.884Z" fill="#E49963" stroke="black" stroke-width="0.9"/>
<path d="M416.275 562.334C417.152 561.076 417.423 559.223 417.45 557.187C417.474 555.34 417.295 553.256 417.117 551.183C417.097 550.952 417.077 550.722 417.058 550.493C416.861 548.18 416.694 545.912 416.819 543.961C416.945 541.995 417.363 540.449 418.248 539.499C420.185 537.419 422.761 535.961 425.206 535.757C426.423 535.655 427.603 535.863 428.669 536.451C429.703 537.022 430.655 537.965 431.43 539.385C431.423 539.433 431.415 539.492 431.405 539.562C431.374 539.772 431.328 540.081 431.268 540.476C431.147 541.266 430.967 542.398 430.73 543.765C430.256 546.499 429.557 550.169 428.653 553.917C427.748 557.669 426.643 561.483 425.361 564.512C424.72 566.027 424.041 567.33 423.33 568.328C422.613 569.332 421.895 569.983 421.192 570.259C419.615 570.878 415.264 571.91 410.735 572.829C406.373 573.714 401.924 574.478 399.743 574.659C399.674 574.555 399.578 574.38 399.483 574.109C399.292 573.561 399.108 572.617 399.191 571.082C399.292 571.044 399.42 570.995 399.572 570.936C399.988 570.776 400.584 570.544 401.306 570.255C402.751 569.678 404.7 568.877 406.717 567.979C408.732 567.082 410.823 566.085 412.548 565.118C413.41 564.634 414.188 564.154 414.822 563.693C415.448 563.237 415.965 562.779 416.275 562.334ZM416.275 562.334L415.906 562.077L416.275 562.334C416.275 562.334 416.275 562.334 416.275 562.334Z" fill="#4A75CB" stroke="black" stroke-width="0.9"/>
<path d="M430.937 650.257V650.674L431.352 650.706C434.812 650.973 437.913 651.742 440.333 652.843C442.418 653.793 443.956 654.97 444.807 656.25H412.479C413.33 654.97 414.867 653.793 416.953 652.843C419.372 651.742 422.473 650.973 425.933 650.706L426.349 650.674V650.257V643.979V643.529H425.899H416.217C416.215 643.529 416.21 643.528 416.203 643.522C416.196 643.515 416.192 643.505 416.192 643.494V642.488C416.192 642.477 416.196 642.468 416.203 642.46C416.21 642.454 416.215 642.453 416.217 642.453H425.899H426.349V642.003V606.263C426.349 605.5 426.96 604.889 427.685 604.889H429.601C430.326 604.889 430.937 605.5 430.937 606.263V642.003V642.453H431.387H441.068C441.071 642.453 441.076 642.454 441.082 642.46C441.089 642.467 441.093 642.477 441.093 642.488V643.494C441.093 643.505 441.089 643.515 441.082 643.522C441.076 643.528 441.071 643.529 441.068 643.529H431.387H430.937V643.979V650.257Z" fill="#2B478B" stroke="black" stroke-width="0.9"/>
<path d="M430.167 599.744L430.167 599.745C429.023 601.725 427.698 603.586 426.325 605.356C425.285 606.697 424.222 607.98 423.193 609.222L423.13 609.298C422.083 610.562 421.072 611.785 420.168 612.972C418.368 615.333 416.947 617.61 416.521 619.863L416.521 619.864C416.365 620.691 416.117 621.589 415.788 622.543L415.788 622.543C415.456 623.508 415.044 624.527 414.566 625.584L414.566 625.584C412.771 629.566 410.079 634.04 407.382 638.121L407.757 638.369L407.382 638.121C405.05 641.649 402.787 644.886 401.107 647.24C400.267 648.418 399.573 649.374 399.089 650.036C398.847 650.367 398.658 650.625 398.529 650.799C398.509 650.826 398.491 650.851 398.474 650.874L391.275 650.561C391.366 650.314 391.482 650 391.62 649.624C392.077 648.382 392.784 646.461 393.685 644.05C395.191 640.018 397.243 634.6 399.592 628.64C400.394 626.606 401.217 624.518 402.048 622.412C403.194 619.504 404.353 616.563 405.489 613.684L405.489 613.683C405.673 613.215 405.857 612.748 406.04 612.284C406.117 612.091 406.193 611.898 406.269 611.706L406.269 611.705L406.314 611.591C406.897 610.111 407.471 608.653 408.032 607.233L408.032 607.233C410.239 601.634 412.221 596.605 413.651 592.977L415.343 588.687L415.801 587.524L415.888 587.303C415.892 587.302 415.896 587.3 415.899 587.299C416.028 587.251 416.217 587.18 416.458 587.092C416.941 586.915 417.634 586.667 418.472 586.383C420.147 585.814 422.397 585.104 424.7 584.532C427.009 583.958 429.345 583.53 431.203 583.512C432.133 583.503 432.913 583.598 433.499 583.809C434.079 584.018 434.433 584.324 434.598 584.724L435.014 584.552L434.598 584.724C435.308 586.436 435.384 588.131 434.697 590.423C434.003 592.741 432.536 595.643 430.167 599.744Z" fill="#163560" stroke="black" stroke-width="0.9"/>
<path d="M390.225 656.288H390.222H390.221H390.22H390.22L382.658 656.243C382.697 656.126 382.751 655.995 382.827 655.86C383.074 655.42 383.568 654.903 384.613 654.717C385.85 654.497 387.486 653.948 389.003 653.041C390.517 652.135 391.95 650.849 392.719 649.137C393.036 648.429 393.479 648.174 393.955 648.119C394.476 648.059 395.103 648.233 395.747 648.541C396.382 648.844 396.98 649.251 397.424 649.588C397.645 649.755 397.825 649.902 397.949 650.008C397.959 650.016 397.969 650.024 397.978 650.032C397.976 650.053 397.975 650.076 397.973 650.099C397.959 650.283 397.938 650.546 397.909 650.861C397.851 651.494 397.76 652.336 397.63 653.178C397.499 654.025 397.332 654.852 397.125 655.465C397.021 655.773 396.915 656.001 396.815 656.146C396.752 656.238 396.712 656.268 396.697 656.277C396.686 656.277 396.666 656.277 396.636 656.278C396.582 656.278 396.506 656.279 396.411 656.28C396.222 656.281 395.96 656.282 395.651 656.283C395.032 656.285 394.222 656.286 393.417 656.287C392.613 656.287 391.813 656.288 391.215 656.288L390.493 656.288L390.292 656.288L390.238 656.288L390.225 656.288Z" fill="#163560" stroke="black" stroke-width="0.9"/>
<path d="M418.591 640.922L414.869 647.635C414.792 647.547 414.712 647.44 414.639 647.315C414.382 646.879 414.179 646.181 414.532 645.151C414.946 643.944 415.274 642.22 415.237 640.429C415.201 638.641 414.801 636.739 413.711 635.219C413.262 634.592 413.255 634.067 413.444 633.605C413.649 633.106 414.107 632.63 414.684 632.206C415.253 631.788 415.892 631.454 416.396 631.222C416.647 631.106 416.861 631.018 417.011 630.959C417.02 630.955 417.029 630.952 417.037 630.949C417.052 630.958 417.067 630.969 417.083 630.979C417.233 631.081 417.447 631.228 417.703 631.408C418.216 631.768 418.891 632.259 419.547 632.785C420.208 633.314 420.833 633.866 421.255 634.348C421.468 634.591 421.611 634.796 421.686 634.956C421.74 635.07 421.742 635.123 421.742 635.136C421.742 635.137 421.741 635.137 421.741 635.138C421.736 635.147 421.726 635.166 421.71 635.197C421.684 635.246 421.647 635.314 421.602 635.399C421.511 635.568 421.384 635.802 421.234 636.078C420.933 636.631 420.54 637.353 420.148 638.071C419.757 638.789 419.367 639.502 419.076 640.035L418.724 640.678L418.626 640.858L418.6 640.906L418.593 640.918L418.592 640.92L418.592 640.921L418.591 640.922L418.591 640.922Z" fill="#163560" stroke="black" stroke-width="0.9"/>
<path d="M414.596 636.06C414.483 636.171 414.384 636.266 414.303 636.343C414.283 636.33 414.262 636.317 414.24 636.303C414.008 636.153 413.667 635.933 413.234 635.648C412.369 635.079 411.134 634.256 409.66 633.238C406.711 631.201 402.808 628.389 398.984 625.284C395.156 622.176 391.424 618.787 388.807 615.599C387.499 614.004 386.482 612.475 385.869 611.07C385.254 609.662 385.062 608.421 385.336 607.373C385.924 605.118 387.708 602.531 390.121 599.892C392.523 597.265 395.503 594.633 398.416 592.289C401.327 589.946 404.163 587.897 406.272 586.433C407.326 585.701 408.198 585.116 408.806 584.714C409.109 584.513 409.347 584.358 409.509 584.253C409.559 584.22 409.602 584.193 409.638 584.17L435.057 585.128C435.08 585.254 435.105 585.416 435.128 585.611C435.192 586.143 435.241 586.919 435.177 587.875C435.049 589.785 434.473 592.421 432.665 595.294C432.257 595.942 431.449 596.635 430.284 597.357C429.13 598.072 427.671 598.788 426.013 599.497C422.698 600.915 418.634 602.285 414.729 603.553C413.893 603.824 413.064 604.091 412.252 604.352C409.277 605.309 406.52 606.197 404.442 606.982C403.123 607.48 402.045 607.949 401.351 608.382C401.011 608.594 400.713 608.828 400.54 609.091C400.449 609.228 400.378 609.397 400.375 609.59C400.372 609.79 400.444 609.968 400.559 610.113L400.559 610.113C402.127 612.095 406.52 617.5 410.518 622.406C412.518 624.86 414.419 627.191 415.821 628.907C416.522 629.766 417.098 630.471 417.499 630.961L417.962 631.528L417.973 631.541C417.817 631.997 417.543 632.502 417.195 633.023C416.795 633.621 416.313 634.216 415.845 634.746C415.377 635.275 414.928 635.733 414.596 636.06Z" fill="#1C468A" stroke="black" stroke-width="0.9"/>
<path d="M452.498 603.48V603.48V612.733C452.498 613.419 451.949 613.966 451.3 613.966H405.984C405.335 613.966 404.786 613.419 404.786 612.733V603.48C404.786 602.795 405.335 602.248 405.984 602.248H451.3C451.949 602.248 452.498 602.795 452.498 603.48Z" fill="#EE9849" stroke="black" stroke-width="0.9"/>
<path d="M420.259 534.581L419.992 534.75C418.945 535.412 418.131 536.165 417.578 536.754C417.425 536.916 417.293 537.066 417.182 537.197C418.262 537.36 419.48 537.293 420.742 537.073C422.276 536.806 423.844 536.32 425.258 535.786C426.672 535.253 427.923 534.676 428.821 534.232C429.156 534.066 429.441 533.919 429.667 533.8C429.654 533.788 429.64 533.776 429.626 533.764C429.271 533.45 428.787 532.98 428.264 532.344C427.218 531.074 426.012 529.142 425.361 526.491M420.259 534.581L425.798 526.384M420.259 534.581L420.191 534.273C420.076 533.75 419.976 533.259 419.889 532.801L419.889 532.801C419.637 531.489 419.489 530.454 419.404 529.748C419.361 529.395 419.335 529.125 419.318 528.944C419.317 528.924 419.315 528.905 419.313 528.887M420.259 534.581L419.313 528.887M425.361 526.491L425.798 526.384M425.361 526.491C425.361 526.491 425.361 526.492 425.361 526.492L425.798 526.384M425.361 526.491C425.295 526.224 425.235 525.95 425.182 525.669M425.798 526.384C425.734 526.124 425.675 525.858 425.624 525.586M425.182 525.669C425.182 525.67 425.182 525.67 425.182 525.67L425.624 525.586M425.182 525.669C425.182 525.669 425.182 525.669 425.182 525.669L425.624 525.586M425.182 525.669L425.624 525.586M419.313 528.887L423.204 525.328L422.9 524.996L419.313 528.887ZM425.357 523.359C425.347 523.164 425.34 522.967 425.337 522.768L424.898 523.169C424.906 523.365 424.917 523.558 424.931 523.749L425.357 523.359Z" fill="#E49963" stroke="black" stroke-width="0.9"/>
<path d="M422.844 589.135C426.227 589.927 434.981 591.33 435.725 588.959C436.15 587.606 436.055 583.074 435.941 577.576C435.823 571.907 435.683 565.212 436.069 559.915L422.844 589.135ZM422.844 589.135C421.592 588.842 420.075 588.423 418.508 587.929L422.844 589.135ZM435.62 559.884C435.238 565.126 435.369 571.722 435.485 577.329L435.491 577.581C435.547 580.291 435.598 582.758 435.586 584.726C435.579 585.74 435.555 586.616 435.507 587.319C435.458 588.034 435.386 588.536 435.296 588.824C435.246 588.985 435.121 589.144 434.868 589.292C434.612 589.443 434.251 589.567 433.789 589.656C432.865 589.835 431.639 589.86 430.3 589.784C427.628 589.632 424.621 589.089 422.946 588.697L422.946 588.697C421.707 588.407 420.201 587.991 418.644 587.5C416.47 586.812 414.208 585.981 412.433 585.144C411.544 584.725 410.79 584.31 410.233 583.919C409.655 583.512 409.37 583.184 409.292 582.963C409.276 582.915 409.266 582.882 409.262 582.858L409.262 582.857L409.259 582.845C409.229 582.709 409.234 582.579 409.268 582.428C409.301 582.281 409.361 582.121 409.447 581.914C409.467 581.866 409.488 581.816 409.51 581.764C409.58 581.597 409.66 581.405 409.738 581.197C409.946 580.635 410.141 579.924 410.182 578.945L435.62 559.884ZM435.62 559.884C436.065 553.554 435.429 547.514 434.089 542.595C432.756 537.7 430.745 533.986 428.478 532.163C428.476 532.164 428.474 532.165 428.472 532.165C428.375 532.194 428.227 532.266 427.981 532.405C427.878 532.462 427.763 532.529 427.636 532.603C427.179 532.867 426.556 533.228 425.729 533.628L425.729 533.629C423.802 534.561 421.668 534.86 419.81 534.505L418.37 535.766C416.173 537.785 413.795 540.506 412.716 544.668C412.047 547.255 411.536 551.377 411.155 556.05L435.62 559.884ZM410.373 570.815L410.371 570.918L410.371 570.939L410.369 570.96C410.34 571.228 410.336 571.527 410.332 571.826L410.332 571.833H410.332C410.298 572.996 410.282 574.137 410.266 575.228C410.247 576.558 410.23 577.814 410.182 578.945L410.373 570.815ZM410.373 570.815L410.373 570.811L410.373 570.799C410.374 570.749 410.375 570.699 410.376 570.648C410.45 567.741 410.599 564.684 410.771 561.648C410.881 559.742 411.008 557.856 411.154 556.05L410.373 570.815Z" fill="#739AF0" stroke="black" stroke-width="0.9"/>
<path d="M410.356 571.851L410.356 571.851C410.322 573.014 410.306 574.155 410.29 575.246C410.272 576.577 410.254 577.833 410.206 578.963L410.356 571.851ZM410.356 571.851L410.356 571.844M410.356 571.851L410.356 571.844M410.356 571.844C410.36 571.545 410.364 571.247 410.393 570.979L410.395 570.957M410.356 571.844L410.395 570.957M410.395 570.957L410.395 570.946M410.395 570.957L410.395 570.946M410.395 570.946L426.031 563.706C426.038 564.089 426.039 564.628 426.016 565.298C425.967 566.731 425.81 568.761 425.379 571.143C424.529 575.84 422.614 581.888 418.369 587.423C416.288 586.755 414.151 585.961 412.457 585.162C411.568 584.743 410.814 584.329 410.257 583.937C409.679 583.53 409.394 583.203 409.316 582.982C409.307 582.954 409.3 582.931 409.294 582.913C409.297 582.742 409.299 582.573 409.302 582.405C409.337 582.269 409.393 582.12 409.471 581.932C409.491 581.885 409.512 581.835 409.534 581.782C409.604 581.615 409.685 581.424 409.762 581.215C409.97 580.654 410.165 579.943 410.206 578.964L410.395 570.946Z" fill="#4A75CB" stroke="black" stroke-width="0.9"/>
<path d="M423.032 525.482C424.02 525.695 424.927 525.892 425.457 526.007C425.434 526.071 425.408 526.142 425.378 526.217L425.378 526.218C424.816 527.668 423.212 530.912 419.792 532.278C419.598 531.21 419.477 530.354 419.404 529.745C419.361 529.392 419.334 529.122 419.318 528.941C419.316 528.921 419.315 528.901 419.313 528.883L423.032 525.482Z" fill="#D68D5D" stroke="black" stroke-width="0.9"/>
<path d="M417.315 528.212C417.193 528.186 417.04 528.093 416.867 527.853C416.689 527.607 416.521 527.249 416.37 526.788C416.07 525.869 415.87 524.639 415.757 523.34C415.645 522.047 415.621 520.708 415.663 519.585C415.705 518.441 415.814 517.576 415.945 517.195L417.315 528.212ZM417.315 528.212L417.319 528.213C417.334 528.214 417.357 528.217 417.387 528.22C417.448 528.225 417.538 528.233 417.653 528.241C417.884 528.257 418.217 528.274 418.618 528.278C419.423 528.285 420.493 528.238 421.572 528.025C422.656 527.811 423.717 527.436 424.53 526.81C425.328 526.195 425.9 525.33 426.019 524.08C426.019 524.08 426.019 524.08 426.019 524.08L417.315 528.212ZM417.612 514.969C416.664 515.507 416.238 516.335 415.945 517.195L417.612 514.969ZM417.612 514.969C418.573 514.423 420.157 514.129 422.874 514.558M417.612 514.969L422.874 514.558M422.874 514.558L422.944 514.113L422.874 514.558Z" fill="#E49963" stroke="black" stroke-width="0.9"/>
<path d="M427.357 522.026C427.116 522.515 426.878 522.947 426.671 523.301C426.665 523.279 426.66 523.257 426.654 523.235C426.472 522.504 426.142 521.52 425.552 520.508C424.362 518.469 422.127 516.342 418.007 515.946C416.712 515.822 416.014 515.452 415.649 515.039C415.29 514.633 415.185 514.108 415.252 513.511C415.319 512.91 415.557 512.281 415.825 511.743C416.012 511.366 416.208 511.048 416.352 510.835C416.466 510.851 416.615 510.872 416.794 510.898C417.25 510.964 417.901 511.059 418.685 511.176C420.253 511.411 422.353 511.735 424.477 512.094C426.616 512.454 427.765 513.317 428.344 514.353C428.935 515.409 428.986 516.739 428.727 518.131C428.468 519.516 427.911 520.905 427.357 522.026Z" fill="#2B478B" stroke="black" stroke-width="0.9"/>
<mask id="path-152-inside-9_1515_3484" fill="white">
<path d="M377.9 557.539L377.139 557.791L383.612 578.134L384.373 577.881L377.9 557.539Z"/>
</mask>
<path d="M377.9 557.539L377.139 557.791L383.612 578.134L384.373 577.881L377.9 557.539Z" fill="#4A75CB"/>
<path d="M377.139 557.791L376.866 556.933L376.011 557.217L376.284 558.074L377.139 557.791ZM377.9 557.539L378.754 557.255L378.481 556.398L377.627 556.681L377.9 557.539ZM384.373 577.881L384.646 578.739L385.5 578.456L385.227 577.598L384.373 577.881ZM383.612 578.134L382.758 578.417L383.031 579.275L383.885 578.991L383.612 578.134ZM377.412 558.649L378.173 558.396L377.627 556.681L376.866 556.933L377.412 558.649ZM377.045 557.822L383.519 578.165L385.227 577.598L378.754 557.255L377.045 557.822ZM384.1 577.024L383.339 577.276L383.885 578.991L384.646 578.739L384.1 577.024ZM384.466 577.85L377.993 557.508L376.284 558.074L382.758 578.417L384.466 577.85Z" fill="black" mask="url(#path-152-inside-9_1515_3484)"/>
<path d="M384.06 577.619L384.051 577.176L405.131 576.716L405.14 577.158L384.06 577.619Z" fill="#4A75CB" stroke="black" stroke-width="0.9"/>
<path d="M403.025 575.595L404.466 577.468C404.126 577.527 403.692 577.611 403.203 577.724C402.042 577.991 400.547 578.424 399.267 579.088C398.162 579.66 396.64 579.681 395.182 579.507C394.464 579.422 393.783 579.292 393.206 579.172C393.044 579.138 392.887 579.105 392.739 579.073C392.373 578.995 392.058 578.927 391.843 578.896L391.843 578.896C391.571 578.858 391.379 578.814 391.247 578.765C391.15 578.729 391.111 578.699 391.098 578.688C391.098 578.678 391.099 578.662 391.105 578.635C391.122 578.549 391.176 578.411 391.298 578.203L391.298 578.203C391.326 578.156 391.395 578.073 391.533 577.96C391.667 577.851 391.843 577.731 392.058 577.606C392.489 577.356 393.048 577.101 393.669 576.884C394.925 576.445 396.342 576.192 397.381 576.387C398.632 576.623 400.14 576.381 401.293 576.103C401.878 575.962 402.388 575.807 402.753 575.687C402.856 575.654 402.947 575.623 403.025 575.595ZM391.1 578.697C391.099 578.697 391.099 578.696 391.099 578.693C391.1 578.695 391.1 578.697 391.1 578.697Z" fill="#E49963" stroke="black" stroke-width="0.9"/>
<path d="M422.846 572.458L422.846 572.458C421.345 573.251 417.132 574.767 412.73 576.19C408.491 577.561 404.151 578.821 402.003 579.246C401.924 579.15 401.809 578.988 401.687 578.731C401.437 578.208 401.153 577.29 401.07 575.754C401.167 575.704 401.289 575.641 401.434 575.566C401.83 575.359 402.398 575.061 403.084 574.693C404.458 573.958 406.308 572.942 408.216 571.822C410.122 570.704 412.092 569.478 413.702 568.322C414.507 567.744 415.228 567.179 415.808 566.65C416.382 566.127 416.846 565.614 417.106 565.137C417.841 563.788 417.91 561.916 417.717 559.89C417.541 558.051 417.138 556 416.737 553.959C416.693 553.733 416.648 553.506 416.604 553.28C416.159 551.004 415.749 548.769 415.662 546.815C415.575 544.847 415.823 543.264 416.601 542.218C418.302 539.932 420.705 538.193 423.114 537.715C424.312 537.477 425.507 537.551 426.629 538.015C427.719 538.466 428.766 539.296 429.689 540.619C429.688 540.667 429.686 540.726 429.683 540.797C429.675 541.01 429.663 541.322 429.646 541.722C429.611 542.52 429.554 543.666 429.466 545.051C429.291 547.821 428.992 551.548 428.498 555.375C428.004 559.205 427.318 563.12 426.371 566.276C425.897 567.853 425.363 569.226 424.763 570.297C424.16 571.377 423.516 572.105 422.846 572.458Z" fill="#739AF0" stroke="black" stroke-width="0.9"/>
<mask id="path-157-inside-10_1515_3484" fill="white">
<path d="M526.336 657.625H80.6789C80.4399 657.625 80.2441 657.425 80.2441 657.181C80.2441 656.937 80.4399 656.737 80.6789 656.737H526.336C526.575 656.737 526.77 656.937 526.77 657.181C526.77 657.425 526.575 657.625 526.336 657.625Z"/>
</mask>
<path d="M526.336 657.625H80.6789C80.4399 657.625 80.2441 657.425 80.2441 657.181C80.2441 656.937 80.4399 656.737 80.6789 656.737H526.336C526.575 656.737 526.77 656.937 526.77 657.181C526.77 657.425 526.575 657.625 526.336 657.625Z" fill="#202F4E"/>
<path d="M526.77 657.181H525.87H526.77ZM526.336 656.725H80.6789V658.525H526.336V656.725ZM80.6789 656.725C80.9543 656.725 81.1441 656.946 81.1441 657.181H79.3441C79.3441 657.905 79.9255 658.525 80.6789 658.525V656.725ZM81.1441 657.181C81.1441 657.417 80.9543 657.637 80.6789 657.637V655.837C79.9255 655.837 79.3441 656.457 79.3441 657.181H81.1441ZM80.6789 657.637H526.336V655.837H80.6789V657.637ZM526.336 657.637C526.06 657.637 525.87 657.416 525.87 657.181H527.67C527.67 656.458 527.09 655.837 526.336 655.837V657.637ZM525.87 657.181C525.87 656.946 526.06 656.725 526.336 656.725V658.525C527.09 658.525 527.67 657.904 527.67 657.181H525.87Z" fill="black" mask="url(#path-157-inside-10_1515_3484)"/>
<path d="M790.66 407.754C781.646 417.62 776.731 430.551 776.917 443.913L777.479 484.464C778.045 525.311 738.514 554.769 699.534 542.548L691.068 539.893C674.757 534.779 662.687 520.956 659.82 504.104C657.597 491.042 661.178 477.66 669.626 467.454L680.993 453.722C689.082 443.949 693.865 431.865 694.656 419.203L697.772 369.306C699.915 335 733.982 311.853 766.834 321.965C803.674 333.306 816.659 379.296 790.66 407.754Z" fill="url(#paint2_linear_1515_3484)"/>
<path d="M714.872 190.936C706.667 181.163 695.561 174.26 683.165 171.23L612.589 153.978C571.588 143.955 557.685 92.6975 588.002 63.3299C600.772 50.9598 606.584 33.0665 603.521 15.5532L600.747 -0.308799C599.052 -9.99629 600.527 -19.9719 604.952 -28.7547C613.48 -45.6803 631.567 -55.589 650.422 -53.6641L670.716 -51.5922C679.486 -50.6969 688.34 -52.0043 696.477 -55.3959C721.217 -65.7086 749.762 -55.9156 762.961 -32.5871L773.253 -14.3975L849.016 102.554C860.998 121.049 861.876 144.624 851.304 163.96L830.693 201.658C810.432 238.713 759.247 243.797 732.094 211.451L714.872 190.936Z" fill="url(#paint3_linear_1515_3484)"/>
<defs>
<linearGradient id="paint0_linear_1515_3484" x1="141.154" y1="584.447" x2="393.606" y2="254.078" gradientUnits="userSpaceOnUse">
<stop stop-color="#81D3E4"/>
<stop offset="1" stop-color="#6076FA"/>
</linearGradient>
<linearGradient id="paint1_linear_1515_3484" x1="141.154" y1="584.447" x2="393.606" y2="254.078" gradientUnits="userSpaceOnUse">
<stop stop-color="#81D3E4"/>
<stop offset="1" stop-color="#6076FA"/>
</linearGradient>
<linearGradient id="paint2_linear_1515_3484" x1="681.014" y1="326.235" x2="757.637" y2="549.008" gradientUnits="userSpaceOnUse">
<stop stop-color="#81D3E4"/>
<stop offset="1" stop-color="#6076FA"/>
</linearGradient>
<linearGradient id="paint3_linear_1515_3484" x1="840.963" y1="101.351" x2="556.802" y2="165.81" gradientUnits="userSpaceOnUse">
<stop stop-color="#81D3E4"/>
<stop offset="1" stop-color="#6076FA"/>
</linearGradient>
</defs>
</svg>
