<svg width="116" height="87" viewBox="0 0 116 87" fill="none" xmlns="http://www.w3.org/2000/svg">
<path d="M49.0445 61.5992C47.8768 60.6531 46.9372 59.5112 46.3997 57.9996V50.7496C47.8806 50.0645 51.67 45.9502 53.1045 42.0678C51.8904 40.2626 50.9392 37.9897 50.537 35.0354C50.2045 32.5813 50.5989 30.4462 51.3993 28.6735C50.8 26.7197 50.2664 24.2728 50.2664 21.7498C50.2664 16.7256 51.3761 12.1255 53.3558 8.13082C51.5694 6.44883 49.2726 5.43746 46.3997 5.43746C46.3997 5.43746 44.9536 0 36.7331 0C23.2463 0 15.4666 9.86355 15.4666 21.7498C15.4666 25.7518 17.5082 29.7755 17.5082 29.7755C16.6884 30.2178 15.3351 31.6243 15.6754 34.1183C16.3095 38.7691 18.4594 39.9472 19.8281 40.0451C20.3501 44.3878 25.3265 49.9413 27.0665 50.7496V57.9996C23.1999 68.8745 0 61.6246 0 86.9994H34.7998C34.7998 71.8615 42.0072 65.2133 49.0445 61.5992Z" fill="#6076FA"/>
<path d="M88.9329 58.0002V50.7503C90.6729 49.9419 95.6493 44.3885 96.1713 40.0494C97.5401 39.9515 99.6899 38.7734 100.324 34.1225C100.664 31.6249 99.311 30.2221 98.4913 29.7798C98.4913 29.7798 100.533 26.144 100.533 21.7541C100.533 12.9527 96.8479 5.44173 88.9329 5.44173C88.9329 5.44173 87.4868 0.00427346 79.2663 0.00427346C65.7795 0.000648486 57.9998 9.8642 57.9998 21.7505C57.9998 25.7525 60.0414 29.7762 60.0414 29.7762C59.2216 30.2184 57.8683 31.6249 58.2086 34.1189C58.8427 38.7697 60.9926 39.9479 62.3614 40.0457C62.8834 44.3885 67.8597 49.9419 69.5997 50.7503V58.0002C65.7331 68.8752 42.5332 61.6252 42.5332 87H115.999C115.999 61.6252 92.7996 68.8752 88.9329 58.0002Z" fill="#6076FA"/>
</svg>
