<svg width="25" height="18" viewBox="0 0 25 18" fill="none" xmlns="http://www.w3.org/2000/svg">
<path d="M2.73482 11.9613L3.2 16.0058C3.20625 16.0647 3.21875 16.1227 3.2375 16.179C3.60536 17.2916 4.65804 18 5.78661 18C6.06161 18 6.33929 17.9578 6.61429 17.8699C8.01786 17.4199 8.78929 15.9294 8.33214 14.5469L7.59107 12.3049H7.82411L14.7786 15.7281C14.9054 15.7896 15.0411 15.8204 15.1777 15.8204C15.3411 15.8204 15.5036 15.7764 15.6464 15.6894C15.9107 15.5295 16.0714 15.2465 16.0714 14.9415V11.3012C17.608 10.9084 18.75 9.54347 18.75 7.91053C18.75 6.27758 17.608 4.91269 16.0714 4.51983V0.879532C16.0714 0.574563 15.9107 0.292444 15.6473 0.13161C15.3839 -0.0292241 15.0554 -0.0432862 14.7786 0.0929393L7.825 3.51615H4.46429C2.00268 3.51615 0 5.48747 0 7.91053C0 9.73067 1.12946 11.2951 2.73482 11.9613ZM6.63393 15.0909C6.78661 15.5515 6.53036 16.048 6.06161 16.1983C5.61607 16.3416 5.14018 16.1201 4.9625 15.7044L4.57054 12.3049H5.7125L6.63393 15.0909ZM16.9643 7.91053C16.9643 8.55826 16.6027 9.11898 16.0714 9.42395V6.39798C16.6027 6.70207 16.9643 7.2628 16.9643 7.91053ZM14.2857 13.5195L8.92857 10.8829V4.93817L14.2857 2.30155V13.5195ZM4.46429 5.2739H7.14286V10.5471H4.46429C2.9875 10.5471 1.78571 9.36418 1.78571 7.91053C1.78571 6.45687 2.9875 5.2739 4.46429 5.2739Z" fill="#38479B"/>
<path d="M22.3206 8.78949H24.1063C24.6001 8.78949 24.9992 8.39575 24.9992 7.91061C24.9992 7.42547 24.6001 7.03174 24.1063 7.03174H22.3206C21.8268 7.03174 21.4277 7.42547 21.4277 7.91061C21.4277 8.39575 21.8268 8.78949 22.3206 8.78949Z" fill="#38479B"/>
<path d="M22.3208 4.13741C22.5494 4.13741 22.778 4.05128 22.9521 3.8799L24.2146 2.63718C24.5637 2.29354 24.5637 1.73809 24.2146 1.39445C23.8655 1.05081 23.3012 1.05081 22.9521 1.39445L21.6896 2.63718C21.3405 2.98082 21.3405 3.53626 21.6896 3.8799C21.8637 4.05216 22.0922 4.13741 22.3208 4.13741Z" fill="#38479B"/>
<path d="M22.9521 14.4265C23.1262 14.5979 23.3547 14.684 23.5833 14.684C23.8119 14.684 24.0405 14.5979 24.2146 14.4265C24.5637 14.0829 24.5637 13.5274 24.2146 13.1838L22.9521 11.9411C22.603 11.5974 22.0387 11.5974 21.6896 11.9411C21.3405 12.2847 21.3405 12.8402 21.6896 13.1838L22.9521 14.4265Z" fill="#38479B"/>
</svg>
