<svg width="92" height="100" viewBox="0 0 92 100" fill="none" xmlns="http://www.w3.org/2000/svg">
<path d="M67.0827 33.3334C61.716 33.3334 57.4993 28.75 57.4993 22.9167V8.33335C57.4993 5.83335 55.966 4.16669 53.666 4.16669H22.9993C14.566 4.16669 7.66602 11.6667 7.66602 20.8334V79.1667C7.66602 88.3334 14.566 95.8334 22.9993 95.8334H68.9993C77.4327 95.8334 84.3327 88.3334 84.3327 79.1667V37.5C84.3327 35 82.7993 33.3334 80.4993 33.3334H67.0827ZM53.666 70.8334H30.666C28.366 70.8334 26.8327 69.1667 26.8327 66.6667C26.8327 64.1667 28.366 62.5 30.666 62.5H53.666C55.966 62.5 57.4993 64.1667 57.4993 66.6667C57.4993 69.1667 55.966 70.8334 53.666 70.8334ZM61.3327 54.1667H30.666C28.366 54.1667 26.8327 52.5 26.8327 50C26.8327 47.5 28.366 45.8334 30.666 45.8334H61.3327C63.6327 45.8334 65.166 47.5 65.166 50C65.166 52.5 63.6327 54.1667 61.3327 54.1667Z" fill="#F36F56"/>
</svg>
