<svg width="103" height="87" viewBox="0 0 103 87" fill="none" xmlns="http://www.w3.org/2000/svg">
<path fill-rule="evenodd" clip-rule="evenodd" d="M12.875 60.9C5.76433 60.9 0 55.0573 0 47.85L0 39.15C0 31.9427 5.76433 26.1 12.875 26.1H21.4583C28.569 26.1 34.3333 31.9427 34.3333 39.15H42.9167L42.9167 17.4C42.9167 14.9976 44.8381 13.05 47.2083 13.05H55.7917C58.1619 13.05 60.0833 14.9976 60.0833 17.4C60.0833 19.8024 58.1619 21.75 55.7917 21.75H51.5L51.5 65.25H55.7917C58.1619 65.25 60.0833 67.1976 60.0833 69.6C60.0833 72.0024 58.1619 73.95 55.7917 73.95H47.2083C44.8381 73.95 42.9167 72.0024 42.9167 69.6V47.85H34.3333C34.3333 55.0573 28.569 60.9 21.4583 60.9H12.875ZM81.5417 87C74.431 87 68.6667 81.1573 68.6667 73.95V65.25C68.6667 58.0427 74.431 52.2 81.5417 52.2H90.125C97.2357 52.2 103 58.0427 103 65.25V73.95C103 81.1573 97.2357 87 90.125 87H81.5417ZM81.5417 34.8C74.431 34.8 68.6667 28.9573 68.6667 21.75V13.05C68.6667 5.84268 74.431 0 81.5417 0H90.125C97.2357 0 103 5.84268 103 13.05V21.75C103 28.9573 97.2357 34.8 90.125 34.8H81.5417Z" fill="#FFC444"/>
</svg>
