<svg width="199" height="133" viewBox="0 0 199 133" fill="none" xmlns="http://www.w3.org/2000/svg" class="something__went__wrong__svg"><path d="M27.794 61.3689C27.0617 60.9119 26.2251 60.6501 25.3636 60.6081C25.3594 60.6081 25.3553 60.6098 25.3523 60.6128C25.3493 60.6158 25.3477 60.6198 25.3477 60.6241C25.3477 60.6283 25.3493 60.6324 25.3523 60.6353C25.3553 60.6383 25.3594 60.64 25.3636 60.64C26.1965 60.7984 27.0049 61.0667 27.7675 61.438C27.7993 61.446 27.8232 61.3901 27.794 61.3689Z" fill="white"></path><path d="M28.2848 72.2669C27.722 71.943 27.1022 71.7308 26.4593 71.6418C26.4381 71.6418 26.4354 71.671 26.4593 71.6764C27.0871 71.8026 27.6943 72.0157 28.2636 72.3094C28.2875 72.3227 28.3087 72.2802 28.2848 72.2669Z" fill="white"></path><path d="M40.8618 71.2641C40.5263 71.214 40.1863 71.2024 39.8482 71.2295C39.8084 71.2295 39.8111 71.2986 39.8482 71.3013C40.1825 71.3013 40.5195 71.2853 40.8538 71.3013C40.8576 71.3003 40.8611 71.2983 40.8638 71.2954C40.8666 71.2926 40.8685 71.289 40.8693 71.2852C40.8701 71.2813 40.8698 71.2773 40.8685 71.2735C40.8672 71.2698 40.8649 71.2665 40.8618 71.2641Z" fill="white"></path><path d="M37.2026 77.8848C36.6647 77.8958 36.1329 78.002 35.6318 78.1987C35.6318 78.1987 35.6318 78.2253 35.6318 78.2226C36.1625 78.0976 36.6746 78.0471 37.2 77.9566C37.2068 77.9536 37.2127 77.9487 37.2169 77.9425C37.2211 77.9363 37.2235 77.929 37.2238 77.9215C37.224 77.914 37.2222 77.9066 37.2185 77.9001C37.2147 77.8936 37.2092 77.8883 37.2026 77.8848Z" fill="white"></path><path d="M36.1037 75.5972C35.8803 75.5954 35.6573 75.615 35.4377 75.6557C35.4336 75.6572 35.4301 75.6599 35.4276 75.6635C35.4252 75.6671 35.4238 75.6713 35.4238 75.6757C35.4238 75.68 35.4252 75.6843 35.4276 75.6878C35.4301 75.6914 35.4336 75.6941 35.4377 75.6956C35.6601 75.7085 35.8832 75.6987 36.1037 75.6664C36.1128 75.6664 36.1216 75.6627 36.128 75.6562C36.1345 75.6497 36.1381 75.6409 36.1381 75.6318C36.1381 75.6226 36.1345 75.6138 36.128 75.6073C36.1216 75.6008 36.1128 75.5972 36.1037 75.5972Z" fill="white"></path><path d="M26.1036 81.2151C25.6155 81.181 25.1254 81.2415 24.6602 81.3933C24.6602 81.3933 24.6602 81.4173 24.6602 81.4146C25.1348 81.333 25.6144 81.2833 26.0956 81.2657C26.1301 81.2657 26.1381 81.2178 26.1036 81.2151Z" fill="white"></path><path d="M21.7738 75.5227C21.5512 75.5045 21.3271 75.517 21.1078 75.56C21.084 75.56 21.0919 75.6025 21.1078 75.5999C21.3281 75.5759 21.543 75.5839 21.7606 75.5786C21.7673 75.5789 21.774 75.5768 21.7794 75.5727C21.7847 75.5686 21.7885 75.5627 21.7901 75.5561C21.7917 75.5495 21.7909 75.5426 21.7879 75.5365C21.785 75.5304 21.78 75.5255 21.7738 75.5227Z" fill="white"></path><path d="M18.2979 101.66L38.4658 101.596L58.6338 101.572L98.9698 101.527L139.306 101.572L159.474 101.596L179.642 101.66L159.474 101.726L139.306 101.748L98.9698 101.793L58.6338 101.748L38.4658 101.724L18.2979 101.66Z" fill="#263238"></path><path d="M99.4996 121.485C141.518 121.485 175.581 117.743 175.581 113.127C175.581 108.511 141.518 104.769 99.4996 104.769C57.4809 104.769 23.418 108.511 23.418 113.127C23.418 117.743 57.4809 121.485 99.4996 121.485Z" fill="#EBEBEB"></path><path d="M81.7894 111.744C81.1712 111.954 63.4442 112.01 62.765 111.59C62.4997 111.43 62.3484 108.842 62.2343 105.708C62.2104 105.033 62.1919 104.333 62.1759 103.626L60.7617 94.1454L72.6142 94.0682L73.7312 103.551L73.6861 105.637C73.6861 105.637 80.4839 108.656 81.1791 109.204C81.8743 109.752 82.4076 111.534 81.7894 111.744Z" fill="#EB9481"></path><path d="M81.7894 111.744C81.1711 111.954 63.4442 112.01 62.765 111.59C62.4519 111.393 62.282 107.613 62.1865 103.626L73.7179 103.551L73.6728 105.637C73.6728 105.637 80.4706 108.656 81.1658 109.204C81.861 109.752 82.4076 111.534 81.7894 111.744Z" fill="white"></path><path d="M81.7894 111.744C81.1712 111.954 63.4443 112.01 62.765 111.59C62.4997 111.43 62.3485 108.842 62.2344 105.708L73.6623 105.637C73.6623 105.637 80.4601 108.656 81.1553 109.204C81.8505 109.752 82.4077 111.534 81.7894 111.744Z" fill="#A6A6A6"></path><path d="M81.5317 111.034C78.56 110.97 66.5669 110.999 63.6244 111.164C63.6005 111.164 63.6005 111.18 63.6244 111.183C66.5696 111.308 78.5626 111.183 81.5317 111.082C81.5954 111.079 81.5954 111.034 81.5317 111.034Z" fill="#263238"></path><path d="M80.022 108.568C79.6915 108.56 79.3631 108.622 79.0576 108.748C78.752 108.875 78.476 109.063 78.2469 109.302C77.8294 109.728 77.5935 110.301 77.5889 110.898C77.5889 110.917 77.6207 110.917 77.6234 110.898C77.722 110.31 78.0079 109.769 78.4383 109.357C78.8686 108.944 79.4204 108.683 80.0114 108.61C80.017 108.612 80.0229 108.611 80.0279 108.608C80.0329 108.605 80.0365 108.6 80.0379 108.595C80.0393 108.589 80.0384 108.583 80.0354 108.578C80.0324 108.573 80.0276 108.569 80.022 108.568Z" fill="#263238"></path><path d="M74.8243 105.929C73.6356 105.916 72.2585 106.341 71.5208 107.32C71.4943 107.358 71.5474 107.398 71.5819 107.379C72.6204 106.829 73.7145 106.392 74.8455 106.075C74.863 106.071 74.8781 106.06 74.888 106.044C74.898 106.029 74.902 106.011 74.8994 105.993C74.8968 105.975 74.8877 105.959 74.8739 105.947C74.86 105.935 74.8424 105.929 74.8243 105.929Z" fill="#263238"></path><path d="M75.7474 106.283C74.556 106.283 73.1789 106.698 72.444 107.674C72.4148 107.714 72.4679 107.754 72.505 107.735C73.542 107.184 74.6353 106.746 75.7659 106.429C75.7832 106.425 75.7982 106.414 75.8081 106.399C75.818 106.384 75.8223 106.366 75.82 106.348C75.8177 106.33 75.8091 106.314 75.7958 106.302C75.7825 106.29 75.7653 106.283 75.7474 106.283Z" fill="#263238"></path><path d="M76.666 106.639C75.4774 106.639 74.1003 107.052 73.3626 108.031C73.3361 108.068 73.3892 108.108 73.4237 108.089C74.4622 107.54 75.5563 107.103 76.6873 106.786C76.7048 106.781 76.7199 106.77 76.7298 106.755C76.7398 106.739 76.7438 106.721 76.7412 106.703C76.7386 106.685 76.7295 106.669 76.7157 106.657C76.7018 106.645 76.6842 106.639 76.666 106.639Z" fill="#263238"></path><path d="M77.586 106.996C76.3946 106.983 75.0176 107.408 74.2826 108.387C74.2534 108.424 74.3091 108.464 74.3436 108.446C75.382 107.896 76.4761 107.459 77.6072 107.142C77.6247 107.137 77.6398 107.126 77.6498 107.111C77.6597 107.096 77.6637 107.078 77.6611 107.06C77.6585 107.042 77.6494 107.025 77.6356 107.013C77.6218 107.002 77.6041 106.995 77.586 106.996Z" fill="#263238"></path><path d="M64.3729 108.331C63.0463 108.331 63.0463 110.419 64.3729 110.411C65.6996 110.403 65.7102 108.323 64.3729 108.331Z" fill="#263238"></path><path d="M76.1009 102.743C75.4986 102.242 74.7397 102.743 74.3709 103.256C73.757 104.163 73.391 105.216 73.3096 106.31C73.3096 106.334 73.3281 106.344 73.3467 106.344C73.3514 106.367 73.3615 106.388 73.376 106.406C73.3905 106.423 73.4091 106.437 73.4301 106.447C73.4512 106.456 73.4741 106.46 73.497 106.458C73.5199 106.456 73.5421 106.449 73.5616 106.437C74.4054 105.849 75.3818 105.323 76.0213 104.49C76.3848 104.006 76.682 103.208 76.1009 102.743ZM74.6522 105.28C74.2435 105.581 73.8217 105.86 73.4237 106.177C73.6359 105.581 73.819 104.98 74.0897 104.405C74.2147 104.13 74.3583 103.863 74.5195 103.607C74.7848 103.211 75.9417 102.211 76.0637 103.506C76.1327 104.216 75.1377 104.924 74.6522 105.28Z" fill="#263238"></path><path d="M70.3481 106.762C71.3829 106.916 72.4522 106.618 73.4684 106.456C73.4905 106.45 73.5109 106.439 73.528 106.424C73.5451 106.409 73.5585 106.39 73.567 106.369C73.5755 106.348 73.5789 106.325 73.577 106.302C73.5751 106.279 73.5679 106.257 73.556 106.238C73.5598 106.235 73.5629 106.231 73.5651 106.227C73.5672 106.222 73.5684 106.217 73.5684 106.212C73.5684 106.208 73.5672 106.203 73.5651 106.198C73.5629 106.194 73.5598 106.19 73.556 106.187C72.7394 105.457 71.7456 104.955 70.6744 104.732C70.0483 104.612 69.162 104.785 69.0824 105.565C68.9869 106.299 69.7431 106.666 70.3481 106.762ZM69.6264 106.086C68.8304 105.065 70.3507 104.977 70.8071 105.083C71.1032 105.158 71.394 105.252 71.6774 105.365C72.2577 105.607 72.8254 105.877 73.3782 106.177C72.8741 106.227 72.3779 106.318 71.8764 106.387C71.2768 106.467 70.0721 106.647 69.6264 106.086Z" fill="#263238"></path><path d="M43.334 50.3272C43.334 50.3272 57.0968 73.799 57.4656 75.4482C58.0308 77.9806 61.0264 102.987 61.0264 102.987L75.3544 102.721C75.3544 102.721 72.8868 80.6725 70.5492 73.408C68.867 68.1758 56.7201 50.822 56.7201 50.822L43.334 50.3272Z" fill="#37474F"></path><path d="M74.0523 100.529C71.996 100.513 64.7073 100.431 61.969 100.686C61.9478 100.686 61.9505 100.724 61.969 100.726C62.911 100.862 71.9933 100.652 74.0497 100.585C74.054 100.587 74.0586 100.587 74.0631 100.587C74.0676 100.586 74.072 100.585 74.0758 100.582C74.0796 100.58 74.0827 100.576 74.085 100.572C74.0872 100.568 74.0885 100.564 74.0887 100.559C74.089 100.555 74.0881 100.55 74.0862 100.546C74.0844 100.542 74.0816 100.538 74.078 100.535C74.0745 100.532 74.0703 100.53 74.0658 100.529C74.0614 100.528 74.0567 100.528 74.0523 100.529Z" fill="#263238"></path><path d="M45.6831 52.4818C46.5853 53.8996 47.5405 55.2881 48.4585 56.6952C49.3766 58.1024 50.2999 59.5095 51.21 60.914C53.0249 63.7513 54.7938 66.6073 56.5167 69.4819C57.3575 70.8143 58.0768 72.2201 58.6659 73.682C59.2036 75.1443 59.6076 76.6525 59.8731 78.188C60.1544 79.7282 60.3401 81.2843 60.5126 82.8404C60.6895 84.4949 60.8743 86.1503 61.0671 87.8066C61.4439 91.1954 61.8216 94.5843 62.2001 97.9731C62.2452 98.3881 62.2903 98.803 62.3328 99.2207C62.3328 99.2818 62.2293 99.2925 62.2213 99.2207C61.7995 95.8558 61.4492 92.4776 61.0671 89.1127C60.8761 87.4333 60.6859 85.7549 60.4967 84.0773C60.3189 82.5159 60.1491 80.9518 59.9076 79.401C59.6861 77.8703 59.349 76.3586 58.8994 74.879C58.4039 73.347 57.7401 71.8749 56.92 70.49C55.2617 67.6199 53.5051 64.8003 51.7486 61.978C49.9921 59.1557 48.1879 56.3095 46.3358 53.5219C46.1077 53.1787 45.8768 52.8356 45.638 52.4978C45.6194 52.4791 45.6672 52.4552 45.6831 52.4818Z" fill="#263238"></path><path d="M47.8451 113.127C47.1924 113.087 30.3331 106.24 29.8661 105.591C29.8453 105.553 29.8361 105.51 29.8396 105.466C29.8396 104.884 31.0097 102.852 31.9861 100.181C32.0472 100.011 32.4823 99.218 33.0846 98.1513C34.7589 95.228 37.6775 90.1926 37.6775 90.1926L48.6968 94.5816L43.422 102.495L42.6021 104.41C42.6021 104.41 47.7735 109.77 48.2086 110.528C48.6438 111.286 48.4952 113.164 47.8451 113.127Z" fill="#EB9481"></path><path d="M47.8451 113.127C47.1924 113.087 30.3331 106.24 29.8661 105.591C29.8453 105.553 29.8361 105.51 29.8396 105.466C29.8396 104.884 31.0097 102.852 31.9861 100.181C32.0472 100.011 32.4823 99.218 33.0846 98.1513L43.4326 102.495L42.6127 104.41C42.6127 104.41 47.7841 109.77 48.2192 110.528C48.6544 111.286 48.4952 113.164 47.8451 113.127Z" fill="white"></path><path d="M47.8451 113.127C47.1924 113.087 30.3331 106.24 29.8661 105.591C29.6857 105.344 30.4392 103.038 31.9888 100.181L42.6021 104.413C42.6021 104.413 47.7735 109.768 48.2113 110.531C48.6491 111.294 48.4952 113.164 47.8451 113.127Z" fill="#A6A6A6"></path><path d="M47.872 112.372C45.1418 111.196 34.0137 106.711 31.225 105.759C31.2011 105.759 31.1958 105.759 31.225 105.775C33.9075 106.999 45.0701 111.393 47.8614 112.425C47.9145 112.438 47.9304 112.396 47.872 112.372Z" fill="#263238"></path><path d="M47.3942 109.518C47.0914 109.384 46.7644 109.315 46.4337 109.315C46.103 109.315 45.7759 109.384 45.4732 109.518C44.9288 109.756 44.4973 110.197 44.2686 110.746C44.2686 110.762 44.2924 110.776 44.3004 110.76C44.6132 110.25 45.0824 109.855 45.6378 109.635C46.1932 109.415 46.8048 109.381 47.3809 109.539C47.3854 109.538 47.3892 109.535 47.3917 109.531C47.3941 109.527 47.395 109.522 47.3942 109.518Z" fill="#263238"></path><path d="M43.5654 105.118C42.4696 104.658 41.0315 104.535 39.9834 105.166C39.9436 105.19 39.9834 105.246 40.0179 105.243C41.1863 105.124 42.3639 105.13 43.5309 105.262C43.5489 105.263 43.5669 105.259 43.5817 105.248C43.5965 105.238 43.607 105.223 43.6112 105.205C43.6154 105.187 43.6131 105.169 43.6047 105.153C43.5963 105.137 43.5823 105.124 43.5654 105.118Z" fill="#263238"></path><path d="M44.2842 105.794C43.1883 105.333 41.7502 105.211 40.7022 105.841C40.6624 105.865 40.7022 105.921 40.7367 105.919C41.9049 105.798 43.0827 105.805 44.2497 105.937C44.2676 105.939 44.2857 105.934 44.3005 105.924C44.3152 105.914 44.3257 105.898 44.3299 105.881C44.3342 105.863 44.3319 105.844 44.3234 105.828C44.315 105.812 44.301 105.8 44.2842 105.794Z" fill="#263238"></path><path d="M45.0061 106.469C43.9076 106.009 42.4695 105.887 41.4241 106.517C41.3817 106.541 41.4241 106.597 41.456 106.594C42.6242 106.474 43.802 106.48 44.969 106.613C44.9873 106.616 45.0061 106.612 45.0217 106.602C45.0373 106.592 45.0485 106.576 45.0532 106.558C45.0578 106.54 45.0556 106.521 45.0469 106.504C45.0382 106.488 45.0236 106.475 45.0061 106.469Z" fill="#263238"></path><path d="M45.7249 107.145C44.6264 106.685 43.1909 106.562 42.1429 107.19C42.1004 107.217 42.1429 107.272 42.1747 107.27C43.343 107.15 44.5208 107.156 45.6877 107.288C45.706 107.292 45.7248 107.288 45.7404 107.277C45.756 107.267 45.7672 107.252 45.7719 107.234C45.7766 107.216 45.7743 107.197 45.7656 107.18C45.7569 107.164 45.7424 107.151 45.7249 107.145Z" fill="#263238"></path><path d="M32.9763 103.413C31.7372 102.918 30.9677 104.852 32.2121 105.347C33.4565 105.841 34.2287 103.908 32.9763 103.413Z" fill="#263238"></path><path d="M45.9399 102.644C45.5657 101.955 44.6822 102.125 44.1435 102.469C43.2362 103.078 42.5043 103.915 42.0209 104.897C42.0188 104.901 42.0176 104.906 42.0176 104.911C42.0175 104.916 42.0186 104.921 42.0206 104.925C42.0227 104.929 42.0256 104.933 42.0294 104.936C42.0331 104.939 42.0374 104.941 42.0421 104.942C42.0421 105.03 42.1005 105.134 42.204 105.113C43.2096 104.881 44.3107 104.761 45.2128 104.229C45.7302 103.921 46.2927 103.296 45.9399 102.644ZM43.6447 104.45C43.1539 104.575 42.6603 104.676 42.1748 104.82C42.5764 104.335 43.0024 103.871 43.451 103.429C43.6719 103.218 43.9068 103.022 44.1542 102.844C44.5389 102.578 45.9929 102.085 45.6215 103.333C45.4171 104.022 44.2311 104.301 43.6447 104.45Z" fill="#263238"></path><path d="M39.102 104.205C40.0041 104.737 41.1052 104.863 42.1082 105.097C42.2117 105.121 42.2807 105.017 42.2727 104.926C42.2777 104.926 42.2824 104.924 42.2865 104.921C42.2906 104.918 42.2939 104.914 42.296 104.91C42.2981 104.905 42.299 104.9 42.2987 104.895C42.2983 104.89 42.2967 104.885 42.2939 104.881C41.8113 103.897 41.0793 103.058 40.1713 102.447C39.6406 102.101 38.7517 101.929 38.375 102.615C37.9982 103.301 38.574 103.894 39.102 104.205ZM38.688 103.306C38.3192 102.059 39.7706 102.554 40.1553 102.822C40.4024 103.001 40.6365 103.198 40.8558 103.41C41.3036 103.853 41.7287 104.318 42.1294 104.804C41.6439 104.66 41.1503 104.557 40.6595 104.432C40.0651 104.272 38.8897 104.006 38.688 103.306Z" fill="#263238"></path><path d="M44.2787 102.054L31.9434 97.0607C31.9434 97.0607 47.2372 74.5172 47.3486 72.8388C47.4494 71.3545 40.7312 58.4216 40.4685 54.6524C40.182 50.5826 42.1348 47.4358 44.284 45.4807L57.0067 50.9044C57.0067 50.9044 55.6642 53.0564 53.5574 54.256C53.5574 54.256 60.082 69.2052 59.7105 73.8017C59.339 78.3982 44.2787 102.054 44.2787 102.054Z" fill="#37474F"></path><path d="M44.8252 99.7021C43.0422 98.9334 43.5649 99.1276 41.7713 98.3721C40.8957 98.005 35.1379 95.6031 34.2517 95.4036C34.2331 95.4036 34.2199 95.4302 34.2384 95.4408C35.0053 95.9116 40.8107 98.2125 41.6943 98.5636C43.5012 99.2765 42.9891 99.0531 44.804 99.7447C44.8067 99.7483 44.8103 99.7512 44.8145 99.753C44.8186 99.7549 44.8231 99.7556 44.8276 99.7552C44.8321 99.7548 44.8365 99.7533 44.8402 99.7507C44.8439 99.7481 44.847 99.7447 44.849 99.7406C44.851 99.7366 44.8519 99.7321 44.8517 99.7275C44.8515 99.723 44.8502 99.7186 44.8478 99.7147C44.8454 99.7109 44.8421 99.7077 44.8382 99.7055C44.8342 99.7033 44.8298 99.7021 44.8252 99.7021Z" fill="#263238"></path><path d="M55.6435 53.982C54.3189 54.2916 53.023 54.7134 51.7696 55.2429C51.7646 55.2446 51.7599 55.2474 51.7559 55.2509C51.7519 55.2545 51.7486 55.2588 51.7463 55.2636C51.744 55.2684 51.7426 55.2736 51.7423 55.279C51.7419 55.2843 51.7427 55.2897 51.7444 55.2948C51.7462 55.2998 51.7489 55.3045 51.7524 55.3085C51.756 55.3125 51.7603 55.3158 51.7651 55.3181C51.7699 55.3205 51.7751 55.3219 51.7804 55.3222C51.7858 55.3225 51.7911 55.3218 51.7962 55.32C53.0963 54.9396 54.4176 54.5832 55.6966 54.1337C55.7947 54.0991 55.7443 53.9608 55.6435 53.982Z" fill="#263238"></path><path d="M54.1283 53.466C54.0046 53.6864 53.8956 53.9148 53.8019 54.1496C53.7103 54.3278 53.6536 54.5219 53.6348 54.7215C53.6348 54.7614 53.6878 54.7694 53.7117 54.7455C53.8448 54.5858 53.9523 54.4063 54.0301 54.2135C54.1389 54.0033 54.2503 53.7958 54.3538 53.5804C54.4255 53.4234 54.2105 53.3224 54.1283 53.466Z" fill="#263238"></path><path d="M54.287 52.2584C54.3666 52.0615 54.4435 51.8673 54.5258 51.6705C54.608 51.4737 54.7115 51.2715 54.7911 51.064C54.7911 51.0321 54.8548 51.064 54.8415 51.088C54.7619 51.2848 54.7115 51.4923 54.6505 51.6944C54.5895 51.8966 54.5205 52.0988 54.4541 52.3009C54.3294 52.676 54.1888 53.0484 54.0163 53.4128C54.2251 53.4232 54.4336 53.3869 54.6266 53.3064C54.8237 53.1799 54.9753 52.9935 55.0591 52.7744C55.1705 52.5563 55.274 52.3328 55.3881 52.1147C55.5285 51.8789 55.6467 51.6304 55.741 51.3726C55.741 51.3407 55.8047 51.3726 55.7914 51.3965C55.6184 51.9417 55.3918 52.4683 55.1148 52.9686C54.9954 53.1628 54.9025 53.3676 54.685 53.4421C54.4495 53.5081 54.203 53.5253 53.9606 53.4926C53.9288 53.4926 53.8916 53.4926 53.9022 53.4447C54.0109 53.0431 54.1393 52.6472 54.287 52.2584Z" fill="#263238"></path><path d="M53.7458 54.7428C54.1995 55.7031 54.5975 56.6607 55.0194 57.6183C55.4412 58.5759 55.8154 59.5015 56.1948 60.4538C56.9536 62.3743 57.6329 64.3321 58.2299 66.3058C58.5244 67.2847 58.7977 68.2716 59.0418 69.2664C59.3107 70.2581 59.5076 71.268 59.6309 72.2882C59.7373 73.3067 59.6472 74.3362 59.3655 75.3206C59.0729 76.2936 58.6974 77.2396 58.2432 78.1481C57.9646 78.7227 57.8717 78.6456 58.0044 78.3556C58.3838 77.531 59.3788 75.0333 59.3072 72.9345C59.2491 71.9298 59.0945 70.933 58.8455 69.958C58.6137 68.9525 58.3528 67.955 58.0627 66.9655C57.4976 65.0131 56.8263 63.1005 56.1364 61.1906C55.749 60.1266 55.3404 59.0626 54.9424 57.9986C54.5444 56.9346 54.1464 55.9558 53.7007 54.78C53.6874 54.7322 53.7325 54.7135 53.7458 54.7428Z" fill="#263238"></path><path d="M44.3828 51.5694C44.603 51.487 44.9134 51.6226 45.1363 51.6599C45.425 51.709 45.7166 51.7383 46.0093 51.7476C46.2988 51.7579 46.5887 51.7481 46.8769 51.7184C47.1672 51.7109 47.4516 51.6353 47.7074 51.4976C48.1271 51.1911 48.4869 50.8097 48.7687 50.3724C49.1046 49.9256 49.3819 49.4375 49.5939 48.9201C49.5939 48.8881 49.6496 48.9201 49.639 48.9413C49.5462 49.2366 49.4772 49.5345 49.3737 49.8245C49.2593 50.0969 49.1226 50.3593 48.9651 50.6092C48.7096 51.1119 48.3318 51.5419 47.8666 51.8594C47.3545 52.152 46.6965 52.1254 46.126 52.1014C45.7952 52.0821 45.4662 52.0385 45.1416 51.9711C44.9081 51.9205 44.5154 51.8833 44.3669 51.6785C44.3599 51.6706 44.3547 51.6614 44.3517 51.6513C44.3486 51.6412 44.3479 51.6306 44.3494 51.6202C44.3509 51.6098 44.3547 51.5999 44.3605 51.5911C44.3662 51.5823 44.3738 51.5749 44.3828 51.5694Z" fill="#263238"></path><path d="M35.4642 94.696C37.4914 91.6175 39.4814 88.5142 41.4342 85.386C43.3871 82.2578 45.3134 79.1057 47.2132 75.9297C47.6669 75.1716 48.1896 74.4162 48.4815 73.5756C48.7999 72.6632 48.6194 71.7774 48.3329 70.8837C47.7918 69.2532 47.1593 67.6547 46.4384 66.0957C45.7273 64.5236 44.9605 62.9782 44.2069 61.4274C43.4534 59.8766 42.6654 58.3444 42.0843 56.7272C41.5536 55.1817 41.3387 53.5804 41.7526 51.9791C42.1665 50.3777 43.058 48.9626 43.9894 47.63C44.2335 47.2788 44.4855 46.9304 44.7323 46.566C44.7509 46.5394 44.7907 46.566 44.7721 46.5979C43.7453 47.9864 42.745 49.4574 42.1426 51.088C41.8348 51.8917 41.6626 52.7412 41.6332 53.6017C41.6282 54.4751 41.7635 55.3436 42.0339 56.1739C42.5327 57.7912 43.3207 59.3207 44.0557 60.8422C44.7907 62.3637 45.5761 63.9384 46.3004 65.5052C47.0477 67.082 47.7119 68.6971 48.2904 70.3437C48.5372 71.0752 48.8211 71.8413 48.7999 72.626C48.7813 73.4852 48.3727 74.2592 47.9481 74.9827C46.0908 78.1348 44.1884 81.2497 42.2514 84.3459C40.3145 87.4422 38.3218 90.5384 36.3053 93.6027L35.5412 94.7598C35.5014 94.8077 35.4324 94.7519 35.4642 94.696Z" fill="#263238"></path><path d="M57.7132 36.567C58.8621 39.094 64.665 42.576 67.382 42.951C69.3348 43.217 75.273 43.3128 77.3081 43.0016C79.6961 42.6345 77.8706 36.184 76.4617 36.3516C72.5878 36.8038 69.2977 37.3092 68.2629 37.3092C66.9999 37.3092 60.1676 35.112 59.345 34.8008C57.3285 34.048 57.0631 35.1333 57.7132 36.567Z" fill="#EB9481"></path><path d="M57.7498 37.24C59.2039 39.3973 64.0356 42.9244 64.0356 42.9244L64.7069 41.4348L66.9277 36.5085C66.9277 36.5085 62.4887 35.112 59.5674 34.4736C59.2236 34.3952 58.8739 34.3453 58.522 34.3246C56.6567 34.2236 56.4948 35.378 57.7498 37.24Z" fill="#A9BBFD"></path><path d="M57.7498 37.24C59.2039 39.3973 64.0356 42.9244 64.0356 42.9244L64.7069 41.4348C62.9053 39.3361 60.1219 36.1574 58.522 34.33C56.6567 34.2236 56.4948 35.378 57.7498 37.24Z" fill="#263238"></path><path d="M63.1656 41.9243C63.5345 41.0172 65.1742 37.365 65.5828 36.6043C65.6094 36.5511 65.6518 36.5564 65.6279 36.6043C64.9166 38.4205 64.1071 40.1965 63.2028 41.9243C63.1922 41.9562 63.1497 41.9455 63.1656 41.9243Z" fill="#263238"></path><path d="M75.75 36.4181C78.1062 36.1095 81.0222 35.5802 83.4924 36.6309C83.7699 36.74 84.0026 36.9395 84.1531 37.1974C85.2675 37.6496 85.3896 38.312 85.3896 38.312C86.2997 39.0515 86.3315 39.7484 86.3315 39.7484C86.3315 39.7484 87.6369 40.2804 87.4379 41.1369C87.2204 42.0839 85.432 41.1369 84.1319 41.214C81.1469 41.4002 76.9679 42.4988 76.1055 42.6371L75.75 36.4181Z" fill="#EB9481"></path><path d="M80.8688 39.2057C81.7416 39.1459 82.6174 39.1459 83.4902 39.2057C84.4408 39.3253 85.3809 39.5165 86.3028 39.7776C86.3088 39.7798 86.3153 39.7794 86.3211 39.7767C86.3268 39.7739 86.3312 39.769 86.3333 39.763C86.3354 39.757 86.3351 39.7504 86.3323 39.7447C86.3296 39.7389 86.3247 39.7345 86.3187 39.7324C84.5868 39.0512 82.7017 38.8598 80.8688 39.1791C80.8263 39.1738 80.8263 39.2084 80.8688 39.2057Z" fill="#263238"></path><path d="M80.3144 36.442C81.7711 36.5165 82.6812 36.7506 84.1458 37.1921V37.1762C82.5326 36.5005 81.8719 36.4367 80.3064 36.3782C80.256 36.3994 80.2587 36.442 80.3144 36.442Z" fill="#263238"></path><path d="M80.5498 41.6662C80.1704 41.8445 80.2632 42.044 80.9876 42.2115C81.712 42.3791 84.7235 42.4297 84.6174 43.483C84.5112 44.5364 80.2632 44.4034 79.0772 44.031C77.8912 43.6586 76.1055 42.6371 76.1055 42.6371C76.9466 42.4962 78.9207 41.9615 80.5498 41.6662Z" fill="#EB9481"></path><path d="M60.8674 40.5943C60.8488 41.0491 60.8064 41.512 60.7427 41.9721C60.7427 41.9535 60.7427 41.9376 60.7613 41.9216C60.8488 41.6822 60.9364 41.4375 61.0425 41.2061C61.0425 41.2061 61.069 41.2061 61.0664 41.2061C61.0154 41.4596 60.9389 41.7074 60.8382 41.9455C60.7904 42.0599 60.7453 42.1716 60.6949 42.2834C60.6631 42.4882 60.6259 42.6903 60.5861 42.8925C60.5065 43.2729 60.1483 44.8902 60.0555 45.1641C60.0396 45.22 59.9706 45.2067 59.9759 45.1429C59.9944 44.8449 60.2943 43.1612 60.3553 42.7781C60.4738 42.0385 60.6324 41.306 60.8303 40.5836C60.8435 40.5703 60.87 40.581 60.8674 40.5943Z" fill="#263238"></path><path d="M58.1078 52.6893C57.3994 53.0537 56.4866 53.6203 52.374 52.809C52.1086 52.7558 51.8592 52.6919 51.5992 52.6148C47.7439 51.455 43.1085 46.9091 42.8564 46.5872C42.8564 46.5872 48.983 36.6309 56.8183 33.5C57.7867 33.1143 59.3894 33.8591 60.2676 34.7875C60.5834 35.12 61.2706 37.5645 61.0079 39.5436C60.7452 41.5226 58.8136 52.3249 58.1078 52.6893Z" fill="#A9BBFD"></path><path d="M57.5567 39.4531C57.5863 39.8739 57.5275 40.2961 57.3842 40.6927C57.3506 40.2718 57.4094 39.8487 57.5567 39.4531Z" fill="white"></path><path d="M54.8845 46.2335C54.9014 46.4428 54.8942 46.6535 54.8633 46.8612C54.8377 47.0705 54.7869 47.276 54.712 47.473C54.6937 47.2628 54.7009 47.0511 54.7332 46.8426C54.7604 46.6344 54.8111 46.4301 54.8845 46.2335Z" fill="white"></path><path d="M50.3446 41.1076C50.3745 41.5292 50.3157 41.9525 50.1722 42.3499C50.1388 41.9281 50.1977 41.5042 50.3446 41.1076Z" fill="white"></path><path d="M59.3044 45.8877C59.3213 46.0979 59.3142 46.3094 59.2832 46.5181C59.2576 46.7274 59.2068 46.9328 59.1319 47.1299C59.1137 46.9196 59.1208 46.708 59.1532 46.4995C59.18 46.2904 59.2307 46.0851 59.3044 45.8877Z" fill="white"></path><path d="M53.4756 40.2298C53.6843 40.212 53.8944 40.2183 54.1018 40.2485C54.3107 40.275 54.5156 40.3268 54.712 40.4027C54.2923 40.433 53.871 40.374 53.4756 40.2298Z" fill="white"></path><path d="M48.3223 45.1269C48.7419 45.0972 49.1632 45.1561 49.5587 45.2998C49.1389 45.3335 48.7168 45.2745 48.3223 45.1269Z" fill="white"></path><path d="M54.3936 50.4283C54.8132 50.3981 55.2346 50.457 55.63 50.6012C55.2102 50.6344 54.7883 50.5754 54.3936 50.4283Z" fill="white"></path><path d="M46.7334 48.5024C47.1531 48.4728 47.5743 48.5317 47.9698 48.6753C47.5501 48.7086 47.1281 48.6495 46.7334 48.5024Z" fill="white"></path><path d="M57.5166 34.6864C57.9363 34.6567 58.3575 34.7156 58.7531 34.8593C58.3334 34.889 57.9122 34.8301 57.5166 34.6864Z" fill="white"></path><path d="M56.0173 36.3835C55.8832 36.5451 55.7299 36.6898 55.5609 36.8144C55.3965 36.9419 55.2186 37.0507 55.0303 37.1389C55.1635 36.9783 55.3149 36.8337 55.4813 36.708C55.6473 36.5801 55.8271 36.4712 56.0173 36.3835Z" fill="white"></path><path d="M47.8481 41.2061C47.7123 41.3663 47.5582 41.51 47.3891 41.6343C47.2263 41.7642 47.0481 41.8732 46.8584 41.9588C46.9949 41.7993 47.1489 41.6556 47.3174 41.5306C47.4806 41.4013 47.6587 41.2923 47.8481 41.2061Z" fill="white"></path><path d="M58.0502 43.3819C57.9145 43.543 57.7605 43.6876 57.5912 43.8129C57.4281 43.9422 57.2499 44.0511 57.0605 44.1374C57.1963 43.9763 57.3503 43.8317 57.5196 43.7065C57.6836 43.5784 57.8616 43.4696 58.0502 43.3819Z" fill="white"></path><path d="M51.4428 47.5528C51.3071 47.7139 51.153 47.8585 50.9838 47.9837C50.8204 48.1127 50.6422 48.2216 50.4531 48.3083C50.5889 48.1472 50.7429 48.0026 50.9122 47.8773C51.0762 47.7493 51.2542 47.6404 51.4428 47.5528Z" fill="white"></path><path d="M60.5815 37.6842C60.4458 37.8453 60.2917 37.9899 60.1225 38.1151C59.9581 38.2426 59.7801 38.3514 59.5918 38.4397C59.7275 38.2786 59.8816 38.134 60.0508 38.0087C60.2142 37.8798 60.3924 37.7709 60.5815 37.6842Z" fill="white"></path><path d="M60.443 42.5174C60.2823 42.3814 60.1381 42.2269 60.0132 42.0573C59.884 41.8938 59.7753 41.7152 59.6895 41.5253C59.8507 41.6597 59.995 41.8134 60.1193 41.9828C60.2461 42.1488 60.3546 42.3281 60.443 42.5174Z" fill="white"></path><path d="M45.7174 45.8478C45.5567 45.7117 45.4125 45.5572 45.2876 45.3876C45.1599 45.2231 45.0513 45.0447 44.9639 44.8556C45.1245 44.9917 45.2688 45.1461 45.3937 45.3158C45.5223 45.4796 45.631 45.6582 45.7174 45.8478Z" fill="white"></path><path d="M58.652 49.8085C58.4907 49.674 58.3464 49.5204 58.2221 49.351C58.095 49.1862 57.9864 49.0077 57.8984 48.819C58.0591 48.9551 58.2034 49.1095 58.3283 49.2792C58.4563 49.4424 58.565 49.62 58.652 49.8085Z" fill="white"></path><path d="M52.1696 38.5168C52.0089 38.3817 51.8647 38.2281 51.7397 38.0593C51.6131 37.8941 51.5046 37.7157 51.416 37.5273C51.5773 37.6618 51.7216 37.8154 51.8459 37.9848C51.9725 38.15 52.081 38.3284 52.1696 38.5168Z" fill="white"></path><path d="M52.2838 52.0642C52.1231 51.9281 51.9789 51.7737 51.854 51.604C51.7267 51.4393 51.6181 51.2608 51.5303 51.072C51.6915 51.2065 51.8359 51.3601 51.9601 51.5295C52.0878 51.6949 52.1964 51.8743 52.2838 52.0642Z" fill="white"></path><path d="M53.3857 44.0735C53.2265 43.9367 53.0832 43.7823 52.9585 43.6134C52.8289 43.4502 52.7202 43.2715 52.6348 43.0814C52.7946 43.2175 52.938 43.3719 53.062 43.5415C53.1909 43.7051 53.2996 43.8837 53.3857 44.0735Z" fill="white"></path><path d="M58.8324 37.4395C57.8321 37.2533 56.8928 35.1812 56.7734 33.7873C56.7734 33.6916 57.2404 32.9335 57.7737 31.9838C58.0975 31.4066 58.4397 30.7549 58.713 30.1378C58.7687 30.0128 59.0951 30.4357 59.0951 30.4357L59.8062 30.9677L62.1544 32.7739C61.5952 33.4465 61.1203 34.1853 60.7402 34.9737C60.7026 35.0591 60.6742 35.1483 60.6553 35.2397C60.6542 35.2547 60.6542 35.2698 60.6553 35.2849C60.5093 35.8116 59.7956 37.6177 58.8324 37.4395Z" fill="#EB9481"></path><path d="M60.6552 35.253C60.6542 35.268 60.6542 35.2831 60.6552 35.2982C60.5158 35.2572 60.38 35.2047 60.2492 35.1413C57.6782 33.9336 58.8111 30.4809 58.8111 30.4809L59.8194 30.981L62.1676 32.7872C61.6084 33.4598 61.1335 34.1986 60.7534 34.987C60.7113 35.0719 60.6784 35.1611 60.6552 35.253Z" fill="#263238"></path><path d="M64.8525 25.4243C64.8525 25.4243 66.028 26.1717 66.0333 27.5017C66.0386 28.8317 65.5026 30.1325 65.3912 30.1804C65.2797 30.2282 64.8525 25.4243 64.8525 25.4243Z" fill="#263238"></path><path d="M59.0209 26.1159C58.3151 27.5124 58.3522 31.9147 59.2331 33.0478C60.5121 34.6917 62.9743 35.2583 64.4629 33.633C65.9036 32.0583 65.755 26.3234 64.7282 25.254C63.2344 23.674 60.0663 24.0491 59.0209 26.1159Z" fill="#EB9481"></path><path d="M62.767 29.6404C62.767 29.6404 62.7432 29.6563 62.7458 29.667C62.7617 29.9676 62.7299 30.3134 62.4619 30.4198C62.4619 30.4198 62.4619 30.4384 62.4619 30.4357C62.7936 30.3825 62.8307 29.9223 62.767 29.6404Z" fill="#263238"></path><path d="M62.494 29.3345C62.0111 29.3079 61.9952 30.2761 62.4436 30.3001C62.892 30.324 62.8973 29.3558 62.494 29.3345Z" fill="#263238"></path><path d="M64.4047 29.6297C64.4047 29.6297 64.4286 29.6297 64.4286 29.6563C64.4127 29.9569 64.4472 30.3027 64.7178 30.4065C64.7178 30.4065 64.7178 30.4251 64.7178 30.4224C64.3835 30.3719 64.3437 29.9117 64.4047 29.6297Z" fill="#263238"></path><path d="M64.6775 29.3212C65.1578 29.2919 65.1817 30.2602 64.7359 30.2868C64.2901 30.3134 64.2742 29.3451 64.6775 29.3212Z" fill="#263238"></path><path d="M62.1915 28.5977C62.3183 28.5615 62.4432 28.5189 62.5657 28.47C62.705 28.4447 62.832 28.3736 62.9265 28.2678C62.9495 28.2291 62.959 28.1839 62.9537 28.1392C62.9485 28.0945 62.9286 28.0527 62.8973 28.0204C62.8255 27.9657 62.7405 27.9312 62.6509 27.9204C62.5613 27.9097 62.4706 27.9231 62.3879 27.9593C62.2088 28.0073 62.0538 28.1201 61.9527 28.2758C61.9326 28.3129 61.9234 28.3549 61.9263 28.397C61.9293 28.4392 61.9442 28.4795 61.9693 28.5134C61.9944 28.5473 62.0287 28.5732 62.0681 28.5882C62.1075 28.6031 62.1503 28.6064 62.1915 28.5977Z" fill="#263238"></path><path d="M65.007 29.0259C64.8779 28.997 64.7504 28.9615 64.6249 28.9195C64.4851 28.901 64.3554 28.8364 64.2561 28.736C64.2306 28.699 64.2182 28.6544 64.2211 28.6095C64.224 28.5646 64.242 28.522 64.2721 28.4886C64.3405 28.4299 64.4234 28.3908 64.5121 28.3754C64.6008 28.36 64.692 28.3687 64.7762 28.4008C64.9577 28.4385 65.1186 28.5429 65.2273 28.6934C65.25 28.729 65.2619 28.7705 65.2615 28.8128C65.2612 28.8551 65.2486 28.8964 65.2252 28.9316C65.2019 28.9669 65.1688 28.9945 65.1301 29.0113C65.0914 29.028 65.0486 29.0331 65.007 29.0259Z" fill="#263238"></path><path d="M62.0878 32.4839C62.1595 32.5557 62.2285 32.6515 62.3373 32.6621C62.4488 32.6621 62.5591 32.6385 62.661 32.593C62.661 32.593 62.6795 32.593 62.661 32.6089C62.6175 32.6674 62.559 32.7129 62.4916 32.7406C62.4243 32.7682 62.3508 32.777 62.2789 32.7659C62.2183 32.7493 62.1638 32.7153 62.1223 32.668C62.0808 32.6207 62.0541 32.5623 62.0454 32.4999C62.0433 32.4942 62.0435 32.488 62.046 32.4825C62.0485 32.477 62.053 32.4727 62.0587 32.4706C62.0643 32.4685 62.0705 32.4687 62.076 32.4712C62.0815 32.4737 62.0857 32.4783 62.0878 32.4839Z" fill="#263238"></path><path d="M63.8236 31.2018C63.8236 31.2018 63.8368 31.6487 63.8236 31.8588C63.4159 31.8154 63.0041 31.8298 62.6004 31.9014C62.5049 31.9227 62.5155 31.8455 62.6243 31.795C62.9495 31.646 63.3117 31.5978 63.6644 31.6567C63.6856 31.6008 63.6299 30.9651 63.6644 30.9677C63.8249 30.9993 63.9802 31.053 64.126 31.1273C64.126 30.191 63.9775 29.2653 63.9907 28.329C63.9907 28.2971 64.0411 28.2918 64.0464 28.329C64.235 29.3195 64.3239 30.3265 64.3118 31.3348C64.3144 31.4492 63.9032 31.2444 63.8236 31.2018Z" fill="#263238"></path><path d="M63.2268 31.6992C63.1211 31.9781 62.9248 32.2133 62.6696 32.3669C62.269 32.5291 62.139 32.1647 62.5423 31.8349C62.7538 31.7277 62.9906 31.6808 63.2268 31.6992Z" fill="#263238"></path><path d="M62.8102 32.2844C62.7678 32.319 62.7204 32.3468 62.6696 32.3669C62.3008 32.5158 62.1548 32.2206 62.452 31.9227C62.6537 31.9386 62.8845 32.0131 62.8102 32.2844Z" fill="#FF99BA"></path><path d="M58.819 29.8798C59.3045 30.0287 59.8617 28.5657 60.0209 28.0178C60.1589 27.523 60.3181 25.951 60.342 25.8419C60.3659 25.7328 62.4647 27.2331 63.6799 26.8766C64.8951 26.5202 65.7203 25.4163 65.7389 24.9029C65.7575 24.3895 64.2371 23.0861 62.9237 23.0196C61.6103 22.9531 59.8299 24.6156 59.8299 24.6156C60.045 24.371 60.2402 24.1095 60.4136 23.8336C60.3924 23.7751 59.5433 24.1156 59.3868 24.722C59.3868 24.722 59.5566 23.9586 59.4929 23.9453C59.4293 23.932 58.7686 24.5837 58.9172 25.0785C58.9172 25.0785 58.153 25.7408 58.084 26.467C58.015 27.1932 58.2485 29.7042 58.819 29.8798Z" fill="#263238"></path><path d="M64.5506 26.6C64.1892 26.7964 63.8 26.9364 63.3964 27.015C62.9435 27.0555 62.4875 26.9823 62.0698 26.8022C61.6489 26.6392 61.258 26.4073 60.9129 26.1159C60.6078 25.8658 60.3345 25.5599 60.0081 25.3365C59.9259 25.278 59.833 25.3977 59.8834 25.4722C60.4279 26.2432 61.2058 26.8178 62.1016 27.1107C62.5177 27.2467 62.9619 27.2721 63.3907 27.1845C63.8195 27.0968 64.2182 26.8991 64.548 26.6106C64.548 26.6106 64.5559 26.6 64.5506 26.6Z" fill="#263238"></path><path d="M59.326 29.7494C59.326 29.7494 58.5725 28.2173 57.8932 28.4647C57.214 28.712 57.6279 30.8321 58.3257 31.2204C58.4112 31.2759 58.5069 31.3134 58.6073 31.3309C58.7076 31.3483 58.8104 31.3453 58.9095 31.3219C59.0086 31.2986 59.102 31.2554 59.184 31.195C59.2661 31.1346 59.3351 31.0582 59.387 30.9704L59.326 29.7494Z" fill="#EB9481"></path><path d="M58.0286 29.0685C58.0286 29.0685 58.0126 29.0685 58.0286 29.0898C58.5115 29.377 58.7078 29.8878 58.8246 30.4198C58.8026 30.3634 58.7687 30.3126 58.7251 30.2707C58.6816 30.2288 58.6296 30.1969 58.5725 30.1772C58.5155 30.1574 58.4549 30.1504 58.3949 30.1564C58.3349 30.1625 58.2769 30.1815 58.2249 30.2123C58.209 30.2123 58.2249 30.2415 58.2249 30.2415C58.3198 30.2267 58.417 30.2418 58.503 30.2847C58.589 30.3276 58.6596 30.3961 58.7052 30.4809C58.7811 30.623 58.8416 30.7728 58.8856 30.9278C58.9015 30.9784 58.9891 30.9651 58.9811 30.9092C59.0952 30.2469 58.7237 29.244 58.0286 29.0685Z" fill="#263238"></path><path d="M54.3515 36.591C53.8209 39.6047 57.0791 49.758 59.1673 51.6545C62.2744 54.4741 68.0188 56.3282 70.1017 56.932C71.0091 57.198 73.5192 50.7954 72.6011 50.3724C70.635 49.476 64.5271 47.5608 63.946 47.082C63.3649 46.6032 59.8625 41.5306 58.3023 38.6099C56.2142 34.6784 54.6142 35.0668 54.3515 36.591Z" fill="#EB9481"></path><path d="M71.0534 49.8085C71.0534 49.8085 73.7651 50.5028 75.5137 51.0374C76.4901 51.338 78.1192 52.0003 78.7375 52.5483C79.6608 53.3702 82.9987 57.3922 82.0435 58.2247C81.1785 58.9802 78.7481 55.1578 78.7481 55.1578C78.7481 55.1578 81.5394 58.7966 80.3401 59.5122C79.1408 60.2277 76.9465 55.5435 76.9465 55.5435C76.9465 55.5435 79.7298 59.3473 78.3687 59.8872C77.3392 60.2942 75.1316 56.1632 75.1316 56.1632C75.1316 56.1632 77.5037 59.4483 76.4583 59.9138C75.3067 60.4299 73.0328 56.7431 73.0328 56.7431C70.1884 57.4799 68.5221 56.6633 67.4263 55.9451C67.1689 55.7696 71.0534 49.8085 71.0534 49.8085Z" fill="#EB9481"></path><path d="M77.8618 53.8357C78.2068 54.2507 78.557 54.671 78.8621 55.1152C79.1673 55.5594 79.4565 56.0169 79.7192 56.4878C80.0751 57.0967 80.36 57.7447 80.5682 58.4189C80.1119 57.2485 79.0426 55.6392 78.7374 55.195C78.4323 54.7508 78.1484 54.2906 77.8459 53.8464C77.838 53.8357 77.8539 53.8251 77.8618 53.8357Z" fill="#263238"></path><path d="M76.2413 54.913C76.8303 55.3812 78.0641 57.1208 78.5391 58.2886C78.5603 58.3365 78.5391 58.3338 78.5046 58.2886C78.1331 57.7114 76.626 55.477 76.228 54.921C76.2201 54.913 76.2333 54.9051 76.2413 54.913Z" fill="#263238"></path><path d="M74.6832 55.594C75.4151 56.3636 75.9933 57.2665 76.3866 58.254C76.4052 58.3019 76.3681 58.2939 76.3389 58.254C75.7896 57.3576 75.3651 56.658 74.654 55.6179C74.6434 55.594 74.6673 55.5701 74.6832 55.594Z" fill="#263238"></path><path d="M57.3121 36.8117C54.8896 33.3777 53.4409 34.6492 53.9264 38.3785C54.3828 41.8657 55.6007 46.0207 55.6007 46.0207L61.7033 43.0521C61.7033 43.0521 58.8537 39.0116 57.3121 36.8117Z" fill="#A9BBFD"></path><path d="M58.785 38.163C58.8654 38.357 58.9233 38.5596 58.9574 38.7668C58.9947 38.9748 59.0081 39.1863 58.9972 39.3973C58.9177 39.2023 58.8607 38.9988 58.8274 38.7908C58.788 38.584 58.7737 38.3732 58.785 38.163Z" fill="white"></path><path d="M55.168 40.2511C55.5574 40.0923 55.9765 40.0197 56.3965 40.0383C56.2029 40.1181 56.0008 40.1752 55.7942 40.2086C55.5879 40.248 55.3776 40.2623 55.168 40.2511Z" fill="white"></path><path d="M55.3245 34.9098C55.1602 35.2986 54.9151 35.6477 54.6055 35.9339C54.7698 35.5452 55.0149 35.1961 55.3245 34.9098Z" fill="white"></path><path d="M60.4964 41.8551C60.4158 42.0496 60.3135 42.2344 60.1913 42.4057C60.0723 42.5792 59.9333 42.7382 59.7773 42.8792C59.9417 42.4905 60.1868 42.1413 60.4964 41.8551Z" fill="white"></path><path d="M56.251 43.9379C56.0565 43.8581 55.8721 43.7554 55.7018 43.632C55.5286 43.5128 55.3701 43.3735 55.2295 43.217C55.6173 43.3817 55.9655 43.6275 56.251 43.9379Z" fill="white"></path><path d="M58.1084 37.8465C58.4348 38.296 58.7718 38.7349 59.1061 39.1765C59.0212 38.953 58.9469 38.7269 58.8832 38.4982H58.8991C58.9654 38.6737 59.0424 38.8466 59.1061 39.0302L59.2016 39.2962C59.2098 39.3143 59.2169 39.333 59.2228 39.352C59.4882 39.6952 59.7535 40.0383 59.9976 40.3894C60.2974 40.8097 60.5866 41.2353 60.8785 41.6609C61.1704 42.0865 61.4649 42.6159 61.7806 43.0441C61.8098 43.0814 61.25 43.3101 61.1889 43.3394C61.1279 43.3686 61.0961 43.3181 61.1544 43.2995C61.2128 43.2809 61.6586 43.0069 61.6639 43.0016C61.372 42.5706 61.035 42.1743 60.7299 41.7567C60.4248 41.3391 60.1223 40.9214 59.8278 40.4985C59.2308 39.6367 58.6842 38.7429 58.0898 37.8784L58.1084 37.8465Z" fill="#263238"></path><path d="M54.0695 40.847C54.1624 41.0278 54.2632 41.2061 54.3349 41.3923L54.4357 41.6237C54.2951 40.9613 54.1703 40.2937 54.0244 39.6313C54.3057 40.6953 54.5896 41.7833 54.8496 42.8632C55.0964 43.8953 55.3962 44.938 55.5395 45.9914C55.7245 45.91 55.9163 45.8451 56.1126 45.7972C55.9156 45.9251 55.7034 46.0278 55.4811 46.1031C55.1612 45.032 54.8956 43.9453 54.6851 42.8473C54.6188 42.5494 54.5577 42.2514 54.4941 41.9535C54.4251 41.7726 54.3428 41.5997 54.2606 41.4215C54.1783 41.2433 54.104 41.0438 54.0297 40.8549C54.0456 40.8443 54.0642 40.8337 54.0695 40.847Z" fill="#263238"></path><path d="M55.6912 44.9939C56.5403 44.5151 60.0878 42.6744 60.8811 42.3339C60.9369 42.31 60.966 42.3339 60.9103 42.3711C59.2264 43.3521 57.4903 44.2401 55.7098 45.0311C55.6886 45.0365 55.6673 45.0072 55.6912 44.9939Z" fill="#263238"></path><path d="M152.917 114.925H72.0752L83.7631 48.4652H164.605L152.917 114.925Z" fill="#A9BBFD"></path><path d="M111.432 41.5811H84.9753L83.7627 48.4652H112.076L111.432 41.5811Z" fill="#A9BBFD"></path><g opacity="0.1"><path d="M152.917 114.925H72.0752L83.7631 48.4652H164.605L152.917 114.925Z" fill="black"></path><path d="M111.432 41.5811H84.9753L83.7627 48.4652H112.076L111.432 41.5811Z" fill="black"></path></g><path d="M82.121 44.3901C81.9441 43.6289 81.9441 42.8371 82.121 42.0759C82.2979 42.8371 82.2979 43.6289 82.121 44.3901Z" fill="#263238"></path><path d="M79.7701 45.071C79.5 44.7902 79.2672 44.4755 79.0776 44.1347C78.8788 43.8011 78.7228 43.4436 78.6133 43.0707C78.8842 43.3499 79.1171 43.6639 79.3058 44.0044C79.5042 44.3392 79.6602 44.6975 79.7701 45.071Z" fill="#263238"></path><path d="M78.0712 46.8399C77.3256 46.6127 76.6421 46.2168 76.0732 45.6828C76.4452 45.7912 76.8019 45.9468 77.1346 46.1457C77.4745 46.337 77.7892 46.5702 78.0712 46.8399Z" fill="#263238"></path><path d="M77.4773 49.2233C76.7181 49.4007 75.9282 49.4007 75.1689 49.2233C75.9282 49.0459 76.7181 49.0459 77.4773 49.2233Z" fill="#263238"></path><path d="M78.1672 51.5801C77.8859 51.8495 77.5721 52.0827 77.2332 52.2743C76.9005 52.4732 76.5439 52.6288 76.1719 52.7372C76.452 52.4663 76.766 52.233 77.1059 52.0429C77.4381 51.843 77.7948 51.6874 78.1672 51.5801Z" fill="#263238"></path><path d="M79.9286 53.2798C79.7027 54.0284 79.3078 54.7147 78.7744 55.2854C78.8825 54.9121 79.0385 54.5544 79.2387 54.2214C79.4279 53.8795 79.6597 53.563 79.9286 53.2798Z" fill="#263238"></path><path d="M82.3062 53.8677C82.3987 54.2462 82.4433 54.635 82.4389 55.0248C82.4446 55.4146 82.4 55.8035 82.3062 56.1819C82.2112 55.8037 82.1665 55.4146 82.1736 55.0248C82.1692 54.635 82.2137 54.2462 82.3062 53.8677Z" fill="#263238"></path><path d="M84.6572 53.2C84.9274 53.4808 85.1602 53.7956 85.3498 54.1363C85.5491 54.4694 85.7043 54.827 85.8114 55.2003C85.2781 54.6296 84.8831 53.9433 84.6572 53.1947V53.2Z" fill="#263238"></path><path d="M86.3525 51.4178C86.7249 51.5252 87.0817 51.6808 87.4139 51.8806C87.7538 52.0707 88.0677 52.3041 88.3478 52.5749C87.9755 52.4675 87.6187 52.3119 87.2865 52.1121C86.9466 51.922 86.6327 51.6886 86.3525 51.4178Z" fill="#263238"></path><path d="M86.9395 49.0344C87.6997 48.8571 88.4903 48.8571 89.2505 49.0344C88.4903 49.2117 87.6997 49.2117 86.9395 49.0344Z" fill="#263238"></path><path d="M86.2602 46.6777C86.5411 46.4085 86.8549 46.1761 87.1942 45.9861C87.5257 45.7843 87.8827 45.6278 88.2555 45.5206C87.6862 46.0553 87.0016 46.4512 86.2549 46.6777H86.2602Z" fill="#263238"></path><path d="M84.4951 44.9779C84.6044 44.6054 84.7594 44.248 84.9568 43.9139C85.1464 43.5732 85.3791 43.2585 85.6493 42.9776C85.5422 43.3509 85.387 43.7086 85.1876 44.0416C84.9981 44.3824 84.7653 44.6971 84.4951 44.9779Z" fill="#263238"></path><path d="M152.797 114.925H71.7832L60.2783 50.8778H141.295L152.797 114.925Z" fill="#A9BBFD"></path><path d="M88.3534 90.0304C90.213 90.0304 91.7205 88.5191 91.7205 86.6548C91.7205 84.7906 90.213 83.2793 88.3534 83.2793C86.4938 83.2793 84.9863 84.7906 84.9863 86.6548C84.9863 88.5191 86.4938 90.0304 88.3534 90.0304Z" fill="#263238"></path><path d="M114.972 90.0304C116.831 90.0304 118.339 88.5191 118.339 86.6548C118.339 84.7906 116.831 83.2793 114.972 83.2793C113.112 83.2793 111.604 84.7906 111.604 86.6548C111.604 88.5191 113.112 90.0304 114.972 90.0304Z" fill="#263238"></path><path d="M106.499 90.5703L106.314 90.2166C106.298 90.1846 104.557 86.9607 101.057 86.9607C97.8733 86.9607 97.0773 89.9958 97.0561 90.1261L96.9606 90.5118L96.1885 90.3256L96.2813 89.9373C96.2813 89.9 97.2312 86.1627 101.057 86.1627C105.037 86.1627 106.94 89.6952 107.019 89.8468L107.205 90.1979L106.499 90.5703Z" fill="#263238"></path><path d="M147.448 86.3968L147.393 86.1308C147.565 86.0936 147.735 86.0537 147.905 86.0084L147.971 86.2744C147.791 86.3197 147.623 86.3596 147.448 86.3968Z" fill="#263238"></path><path d="M148.998 85.9685L148.913 85.7185C149.245 85.6041 149.576 85.4791 149.897 85.3434L150.001 85.5882C149.675 85.7265 149.338 85.8542 148.998 85.9685ZM150.975 85.12L150.855 84.8859C151.166 84.7237 151.476 84.5481 151.771 84.3539L151.909 84.58C151.606 84.7902 151.29 84.9684 150.975 85.12ZM152.8 83.9948L152.644 83.7794C152.93 83.5692 153.206 83.3484 153.466 83.1223L153.641 83.3218C153.363 83.5639 153.097 83.79 152.798 84.0055L152.8 83.9948ZM154.419 82.5797L154.225 82.3962C154.469 82.1302 154.7 81.8642 154.912 81.5982L155.122 81.7604C154.902 82.053 154.665 82.327 154.424 82.5903L154.419 82.5797ZM155.732 80.8773L155.507 80.7363C155.69 80.4392 155.853 80.1299 155.995 79.8106L156.239 79.9197C156.089 80.2525 155.919 80.5759 155.729 80.8879L155.732 80.8773ZM156.61 78.9036L156.345 78.8291C156.442 78.4954 156.514 78.1548 156.56 77.8103L156.825 77.8449C156.781 78.2066 156.709 78.5642 156.608 78.9142L156.61 78.9036ZM156.905 76.7756H156.64V76.6984C156.64 76.3766 156.621 76.0494 156.589 75.7275L156.854 75.7009C156.889 76.0323 156.907 76.3652 156.908 76.6984L156.905 76.7756ZM156.427 74.6928C156.356 74.3498 156.267 74.0107 156.162 73.6767L156.427 73.5969C156.536 73.9427 156.629 74.2938 156.693 74.6369L156.427 74.6928ZM155.798 72.6898C155.671 72.3759 155.533 72.0541 155.363 71.7296L155.602 71.6099C155.764 71.9397 155.913 72.2695 156.043 72.5887L155.798 72.6898ZM154.87 70.7932C154.705 70.5033 154.525 70.1974 154.339 69.8835L154.565 69.7425C154.758 70.0591 154.941 70.3676 155.095 70.6629L154.87 70.7932ZM153.761 68.9871C153.567 68.6945 153.371 68.3992 153.169 68.104L153.389 67.955C153.591 68.2503 153.787 68.5455 153.981 68.8435L153.761 68.9871ZM152.567 67.2262C152.368 66.9336 152.166 66.6383 151.97 66.3457L152.19 66.1968C152.386 66.4894 152.585 66.7846 152.784 67.0746L152.567 67.2262ZM151.381 65.4546C151.187 65.1567 150.999 64.8535 150.813 64.5502L151.038 64.4119C151.224 64.7151 151.413 65.0131 151.604 65.311L151.381 65.4546ZM150.274 63.6272C150.094 63.3053 149.927 62.9861 149.775 62.6802L150.014 62.5605C150.163 62.8638 150.33 63.1777 150.505 63.4969L150.274 63.6272ZM149.332 61.712C149.192 61.3795 149.067 61.0417 148.95 60.7118L149.216 60.6267C149.327 60.9486 149.452 61.2811 149.59 61.6083L149.332 61.712ZM148.642 59.6824C148.555 59.3366 148.478 58.9828 148.42 58.6184L148.685 58.5759C148.743 58.9163 148.815 59.2621 148.902 59.6026L148.642 59.6824ZM148.287 57.5544C148.26 57.2272 148.247 56.8974 148.247 56.5676V56.4798H148.512V56.5649C148.512 56.8868 148.512 57.2113 148.552 57.5305L148.287 57.5544ZM148.552 55.4264L148.287 55.3998C148.287 55.328 148.3 55.2535 148.308 55.1764C148.34 54.8918 148.38 54.6071 148.428 54.3358L148.693 54.381C148.648 54.647 148.608 54.9263 148.576 55.2056C148.587 55.2881 148.587 55.3599 148.565 55.4344L148.552 55.4264ZM148.921 53.3569L148.656 53.2851C148.754 52.934 148.868 52.5909 148.995 52.2637L149.242 52.3594C149.121 52.6888 149.019 53.0244 148.934 53.3649L148.921 53.3569ZM162.143 51.8062C161.994 51.8062 161.84 51.7849 161.689 51.7636C161.482 51.7343 161.275 51.6998 161.071 51.6599L161.124 51.3939C161.32 51.4311 161.524 51.4657 161.726 51.4949C161.869 51.5136 162.015 51.5269 162.156 51.5348L162.143 51.8062ZM163.233 51.7237L163.177 51.4577C163.51 51.3888 163.83 51.2647 164.122 51.0906L164.26 51.3167C163.947 51.5106 163.605 51.6508 163.246 51.7317L163.233 51.7237ZM149.685 51.4072L149.449 51.2821C149.618 50.9649 149.805 50.6576 150.009 50.3618L150.226 50.5134C150.033 50.8031 149.856 51.1042 149.698 51.4151L149.685 51.4072ZM160.033 51.3912C159.691 51.2823 159.354 51.1553 159.025 51.0108L159.134 50.7661C159.453 50.9082 159.78 51.0316 160.113 51.1358L160.033 51.3912ZM165.075 50.5613L164.854 50.4123C165.043 50.1375 165.155 49.8169 165.178 49.484L165.443 49.5026C165.421 49.8842 165.296 50.2527 165.082 50.5693L165.075 50.5613ZM158.07 50.5214C157.759 50.3404 157.459 50.1424 157.17 49.9282L157.327 49.7154C157.608 49.9231 157.9 50.115 158.202 50.29L158.07 50.5214ZM150.879 49.6915L150.683 49.5132C150.923 49.2454 151.179 48.9922 151.45 48.7551L151.625 48.9546C151.364 49.1881 151.118 49.4368 150.887 49.6994L150.879 49.6915ZM156.342 49.2419C156.078 48.9979 155.827 48.7395 155.592 48.4679L155.791 48.2923C156.02 48.5561 156.264 48.8074 156.52 49.0451L156.342 49.2419ZM164.979 48.5211C164.827 48.2171 164.617 47.946 164.361 47.7231L164.536 47.5236C164.818 47.768 165.049 48.0653 165.218 48.3987L164.979 48.5211ZM152.45 48.3109L152.299 48.0928C152.596 47.8896 152.903 47.7023 153.219 47.5315L153.344 47.7656C153.039 47.9345 152.744 48.1192 152.458 48.3189L152.45 48.3109ZM154.928 47.6193C154.827 47.4757 154.729 47.3294 154.636 47.1778L154.291 47.3134L154.191 47.0687L154.496 46.9463C154.448 46.8665 154.4 46.7867 154.355 46.7069L154.586 46.5766C154.639 46.6697 154.692 46.7628 154.748 46.8426C154.896 46.7894 155.048 46.7389 155.201 46.691L155.278 46.957C155.148 46.9969 155.013 47.0394 154.891 47.0847C154.973 47.215 155.058 47.3507 155.156 47.465L154.928 47.6193ZM163.506 47.1618C163.25 47.0335 162.984 46.925 162.71 46.8373L162.535 46.7814L162.612 46.5154L162.793 46.5739C163.077 46.6648 163.354 46.7777 163.62 46.9118L163.506 47.1618ZM156.295 46.6857L156.239 46.4197C156.581 46.3425 156.937 46.2787 157.3 46.2281L157.34 46.4941C156.99 46.55 156.642 46.6165 156.303 46.6936L156.295 46.6857ZM161.522 46.542C161.19 46.4835 160.84 46.4383 160.482 46.4064L160.503 46.1404C160.872 46.1723 161.23 46.2175 161.564 46.2787L161.522 46.542ZM158.378 46.3877L158.359 46.1217C158.675 46.1031 158.99 46.0925 159.304 46.0925H159.434V46.3585H159.306C159.006 46.3665 158.693 46.3744 158.385 46.3957L158.378 46.3877ZM153.893 45.752C153.75 45.4275 153.628 45.0897 153.509 44.7465L153.774 44.6641C153.885 44.9992 154.01 45.3291 154.148 45.6456L153.893 45.752ZM153.222 43.7091C153.142 43.366 153.076 43.0095 153.026 42.6451L153.291 42.6079C153.341 42.959 153.405 43.3075 153.482 43.6453L153.222 43.7091ZM152.925 41.5811C152.912 41.3417 152.904 41.097 152.904 40.8523C152.904 40.7379 152.904 40.6209 152.904 40.5065H153.169C153.169 40.6209 153.169 40.7326 153.169 40.847C153.169 41.0864 153.169 41.3284 153.188 41.5598L152.925 41.5811ZM153.241 39.4531L152.975 39.4265C153.012 39.0754 153.063 38.7163 153.124 38.3625L153.389 38.4077C153.318 38.7615 153.267 39.102 153.233 39.4584L153.241 39.4531ZM153.604 37.3757L153.339 37.3118C153.424 36.9687 153.522 36.6229 153.631 36.2771L153.896 36.3595C153.777 36.708 153.678 37.0458 153.596 37.381L153.604 37.3757ZM154.241 35.362L153.994 35.2663C154.124 34.9338 154.26 34.6013 154.421 34.2794L154.66 34.3965C154.501 34.7157 154.36 35.0402 154.233 35.378L154.241 35.362ZM155.154 33.4655L154.923 33.3298C155.103 33.0239 155.297 32.718 155.499 32.4254L155.716 32.577C155.509 32.8696 155.321 33.1675 155.146 33.4708L155.154 33.4655ZM156.35 31.7338L156.143 31.5662C156.366 31.3002 156.605 31.0183 156.852 30.7682L157.043 30.9518C156.793 31.2018 156.56 31.4678 156.342 31.7391L156.35 31.7338ZM157.794 30.2016L157.616 30.0048C157.881 29.7681 158.147 29.534 158.431 29.3079L158.595 29.518C158.311 29.7441 158.041 29.9755 157.786 30.207L157.794 30.2016ZM159.441 28.8876L159.29 28.6668C159.579 28.4673 159.882 28.2705 160.19 28.0843L160.325 28.3104C160.017 28.4992 159.731 28.6934 159.434 28.8929L159.441 28.8876ZM161.243 27.789L161.118 27.5549C161.431 27.3874 161.755 27.2278 162.079 27.0788L162.19 27.3209C161.853 27.4725 161.543 27.6321 161.235 27.7943L161.243 27.789ZM163.161 26.9059L163.063 26.6559C163.398 26.5255 163.735 26.3899 164.069 26.2914L164.154 26.5574C163.817 26.6585 163.483 26.7809 163.154 26.9112L163.161 26.9059Z" fill="#263238"></path><path d="M165.207 26.2329L165.141 25.9669C165.47 25.8818 165.671 25.8446 165.671 25.8446L165.719 26.1106C165.719 26.1106 165.528 26.1505 165.207 26.2329Z" fill="#263238"></path><path d="M169.898 24.5146C169.221 22.4132 164.689 23.1686 165.573 25.9164C166.456 28.6642 170.574 26.6186 169.898 24.5146Z" fill="#263238"></path><path d="M163.108 23.674C163.143 22.751 164.422 22.0408 166.231 22.3679C168.041 22.6951 169.741 23.9187 169.741 23.9187C169.741 23.9187 167.956 25.004 166.128 25.2035C164.299 25.403 163.074 24.5944 163.108 23.674Z" fill="#EBEBEB"></path><path d="M169.741 23.9134C168.802 23.9134 167.865 23.8868 166.929 23.8575C165.992 23.8283 165.053 23.7804 164.116 23.7059C165.055 23.7059 165.995 23.7299 166.931 23.7591C167.868 23.7884 168.807 23.8363 169.741 23.9134Z" fill="#263238"></path><path d="M164.926 22.8521C165.459 23.1078 165.962 23.4228 166.425 23.791C166.158 23.6655 165.899 23.5234 165.65 23.3654C165.399 23.2086 165.157 23.0372 164.926 22.8521Z" fill="#263238"></path><path d="M167.385 23.8256C166.905 24.2156 166.385 24.5527 165.833 24.8311C166.315 24.4406 166.839 24.1035 167.393 23.8256H167.385Z" fill="#263238"></path><path d="M167.659 23.3069C167.927 23.4358 168.161 23.6252 168.344 23.8602C168.21 23.7969 168.084 23.7174 167.97 23.6235C167.854 23.5302 167.75 23.424 167.659 23.3069Z" fill="#263238"></path><path d="M164.833 29.1403C165.398 29.8691 166.849 29.6936 168.125 28.3689C169.402 27.0442 170.078 25.0519 170.078 25.0519C170.078 25.0519 167.987 25.2115 166.393 26.1159C164.798 27.0203 164.265 28.4088 164.833 29.1403Z" fill="#EBEBEB"></path><path d="M170.078 25.0519C169.314 25.5839 168.571 26.1744 167.826 26.7463C167.08 27.3182 166.35 27.9087 165.637 28.5179C166.401 27.9859 167.144 27.398 167.887 26.8261C168.63 26.2542 169.354 25.6637 170.078 25.0519Z" fill="#263238"></path><path d="M166.783 28.728C166.925 28.4696 167.052 28.2032 167.163 27.93C167.276 27.6561 167.371 27.3753 167.449 27.0894C167.307 27.3476 167.18 27.6141 167.07 27.8874C166.958 28.1618 166.862 28.4424 166.783 28.728Z" fill="#263238"></path><path d="M168.222 26.5042C167.601 26.471 166.978 26.504 166.364 26.6027C166.674 26.6213 166.984 26.6213 167.293 26.6027C167.604 26.5874 167.914 26.5546 168.222 26.5042Z" fill="#263238"></path><path d="M168.733 26.7676C168.804 26.6362 168.86 26.4969 168.898 26.3526C168.937 26.2094 168.96 26.0621 168.967 25.9137C168.826 26.177 168.746 26.4689 168.733 26.7676Z" fill="#263238"></path><path d="M169.898 24.5146C169.748 24.5633 169.588 24.5664 169.436 24.5235C169.284 24.4805 169.149 24.3934 169.047 24.2732C168.944 24.153 168.88 24.0051 168.862 23.8482C168.844 23.6913 168.872 23.5325 168.944 23.3919C169.016 23.2513 169.127 23.1353 169.265 23.0584C169.403 22.9816 169.56 22.9474 169.717 22.9602C169.874 22.973 170.024 23.0323 170.147 23.1305C170.271 23.2287 170.362 23.3613 170.41 23.5117C170.475 23.7128 170.457 23.9312 170.361 24.1192C170.265 24.3072 170.099 24.4493 169.898 24.5146Z" fill="#455A64"></path><path d="M170.387 26.0334C170.237 26.082 170.076 26.085 169.925 26.042C169.773 25.999 169.638 25.9119 169.536 25.7918C169.434 25.6717 169.369 25.524 169.351 25.3672C169.333 25.2105 169.361 25.0518 169.433 24.9113C169.504 24.7708 169.616 24.6546 169.753 24.5776C169.891 24.5006 170.048 24.4662 170.205 24.4787C170.362 24.4912 170.511 24.55 170.635 24.6478C170.758 24.7455 170.85 24.8778 170.899 25.0279C170.931 25.1277 170.943 25.2328 170.935 25.3373C170.927 25.4418 170.898 25.5437 170.851 25.6371C170.803 25.7304 170.738 25.8135 170.658 25.8815C170.578 25.9495 170.486 26.0011 170.387 26.0334Z" fill="#455A64"></path><path d="M83.3962 25.3551C83.2691 26.5769 82.8058 27.7392 82.0581 28.7124C81.3103 29.6856 80.3076 30.4313 79.1617 30.8664C78.0158 31.3014 76.7718 31.4087 75.5686 31.1763C74.3654 30.9438 73.2503 30.3808 72.3478 29.5499L69.0391 30.0367L70.6947 27.1692C70.3161 26.2362 70.1546 25.229 70.2224 24.224C70.2902 23.219 70.5856 22.2427 71.0861 21.3693C71.5866 20.4959 72.2791 19.7483 73.1109 19.1834C73.9428 18.6184 74.8921 18.2509 75.8868 18.1089C76.8815 17.9668 77.8955 18.0539 78.8516 18.3634C79.8077 18.673 80.6809 19.197 81.4048 19.8955C82.1287 20.594 82.6843 21.4488 83.0293 22.3948C83.3744 23.3408 83.4999 24.3532 83.3962 25.3551Z" fill="white"></path><path d="M83.3966 25.3551C83.2721 26.5763 82.813 27.7391 82.0699 28.7147C81.7069 29.2081 81.2691 29.6416 80.7725 29.9995C80.2867 30.3707 79.7506 30.6708 79.1805 30.8906C78.61 31.1158 78.0106 31.2591 77.4001 31.3162C77.0948 31.3436 76.7881 31.3499 76.482 31.3348C76.1749 31.3269 75.8688 31.2949 75.5666 31.239C74.3472 31.0141 73.2144 30.4532 72.2951 29.6191L72.372 29.643L69.0686 30.1511L68.8271 30.1883L68.9492 29.9755L70.5943 27.1027V27.2171C70.2061 26.2669 70.041 25.2399 70.1119 24.2155C70.1827 23.1911 70.4876 22.1967 71.0029 21.3093C71.5175 20.4246 72.225 19.668 73.0725 19.0961C73.9186 18.5318 74.8811 18.1669 75.8879 18.0287C76.8947 17.8905 77.9197 17.9826 78.8859 18.2981C79.8419 18.6242 80.7132 19.1604 81.4358 19.8675C82.1568 20.5729 82.7082 21.4337 83.0479 22.3845C83.3877 23.3353 83.5069 24.3512 83.3966 25.3551ZM83.3966 25.3551C83.5038 24.3562 83.3806 23.3458 83.0365 22.4022C82.6923 21.4585 82.1365 20.6068 81.4119 19.9127C80.6872 19.2187 79.8132 18.7008 78.8572 18.3992C77.9012 18.0976 76.8888 18.0202 75.8983 18.1731C74.9177 18.3186 73.9835 18.6881 73.168 19.2531C72.3595 19.8225 71.6841 20.5613 71.1886 21.4183C70.7008 22.2773 70.4132 23.2358 70.3475 24.222C70.2829 25.2148 70.4425 26.2095 70.8145 27.132L70.8384 27.1905L70.8065 27.2464L69.1402 30.1085L69.0235 29.933L72.3349 29.4675H72.38L72.4118 29.4967C73.297 30.3227 74.3939 30.8854 75.5799 31.122C75.8754 31.1824 76.1753 31.2188 76.4767 31.2311C76.7779 31.2523 77.0803 31.2523 77.3815 31.2311C77.9856 31.1823 78.5802 31.0507 79.1486 30.84C79.7183 30.6321 80.2547 30.3417 80.7406 29.9782C81.2352 29.6233 81.6735 29.1955 82.0408 28.7094C82.7933 27.7385 83.2627 26.5774 83.3966 25.3551Z" fill="#263238"></path><path d="M73.587 27.7571C73.5819 27.669 73.5949 27.5809 73.6253 27.498C73.6556 27.4152 73.7025 27.3396 73.7632 27.2757C73.824 27.2118 73.8971 27.1612 73.9782 27.1269C74.0592 27.0925 74.1464 27.0753 74.2344 27.0761C74.4146 27.0761 74.5873 27.1479 74.7147 27.2756C74.8421 27.4033 74.9137 27.5765 74.9137 27.7571C74.9137 27.9377 74.8421 28.1109 74.7147 28.2386C74.5873 28.3663 74.4146 28.4381 74.2344 28.4381C74.1464 28.4389 74.0592 28.4217 73.9782 28.3873C73.8971 28.353 73.824 28.3024 73.7632 28.2385C73.7025 28.1746 73.6556 28.099 73.6253 28.0162C73.5949 27.9333 73.5819 27.8452 73.587 27.7571ZM73.8523 26.185L73.6985 20.9076H74.7598L74.6059 26.185H73.8523Z" fill="#A9BBFD"></path><path d="M76.1105 27.7571C76.1054 27.6693 76.1183 27.5813 76.1485 27.4987C76.1786 27.416 76.2254 27.3405 76.2858 27.2767C76.3462 27.2129 76.419 27.1621 76.4998 27.1277C76.5805 27.0932 76.6674 27.0756 76.7552 27.0761C76.9354 27.0761 77.1081 27.1479 77.2355 27.2756C77.3629 27.4033 77.4345 27.5765 77.4345 27.7571C77.4345 27.9377 77.3629 28.1109 77.2355 28.2386C77.1081 28.3663 76.9354 28.4381 76.7552 28.4381C76.6674 28.4386 76.5805 28.421 76.4998 28.3865C76.419 28.3521 76.3462 28.3013 76.2858 28.2375C76.2254 28.1737 76.1786 28.0981 76.1485 28.0155C76.1183 27.9329 76.1054 27.8449 76.1105 27.7571ZM76.3758 26.185L76.2298 20.9076H77.2912L77.1373 26.185H76.3758Z" fill="#A9BBFD"></path><path d="M78.631 27.7571C78.6259 27.669 78.6389 27.5809 78.6692 27.498C78.6995 27.4152 78.7465 27.3396 78.8072 27.2757C78.8679 27.2118 78.941 27.1612 79.0221 27.1269C79.1032 27.0925 79.1904 27.0753 79.2784 27.0761C79.4585 27.0761 79.6313 27.1479 79.7587 27.2756C79.8861 27.4033 79.9576 27.5765 79.9576 27.7571C79.9576 27.9377 79.8861 28.1109 79.7587 28.2386C79.6313 28.3663 79.4585 28.4381 79.2784 28.4381C79.1904 28.4389 79.1032 28.4217 79.0221 28.3873C78.941 28.353 78.8679 28.3024 78.8072 28.2385C78.7465 28.1746 78.6995 28.099 78.6692 28.0162C78.6389 27.9333 78.6259 27.8452 78.631 27.7571ZM78.8963 26.185L78.7424 20.9076H79.8037L79.6525 26.185H78.8963Z" fill="#A9BBFD"></path></svg>