<svg width="42" height="42" viewBox="0 0 42 42" fill="none" xmlns="http://www.w3.org/2000/svg">
<path d="M0 21C0 9.40202 9.40202 0 21 0C32.598 0 42 9.40202 42 21C42 32.598 32.598 42 21 42C9.40202 42 0 32.598 0 21Z" fill="#F3F8FF"/>
<path fill-rule="evenodd" clip-rule="evenodd" d="M15 14.0753V13H27V14.0753H21.904C22.8832 14.8563 23.5515 16.0012 23.6973 17.3012H27V18.3765H23.6973C23.426 20.7959 21.345 22.6777 18.8182 22.6777H17.02L23.5368 28.1836L22.8268 29L15.1905 22.5482C15.0172 22.4018 14.9547 22.1645 15.0339 21.9535C15.1131 21.7425 15.3172 21.6024 15.5455 21.6024H18.8182C20.7417 21.6024 22.333 20.2004 22.5977 18.3765H15V17.3012H22.5977C22.333 15.4773 20.7417 14.0753 18.8182 14.0753H15Z" fill="#38479B"/>
</svg>
