<svg width="546" height="73" viewBox="0 0 546 73" fill="none" xmlns="http://www.w3.org/2000/svg">
<path d="M77.9141 30.625V42H76.9453L70.4062 32.2812V42H69.4453V30.625H70.4062L76.9609 40.3438V30.625H77.9141ZM82.1406 33.5469V42H81.2109V33.5469H82.1406ZM81.0469 31.1016C81.0469 30.9245 81.1016 30.776 81.2109 30.6562C81.3255 30.5312 81.4818 30.4688 81.6797 30.4688C81.8776 30.4688 82.0339 30.5312 82.1484 30.6562C82.2682 30.776 82.3281 30.9245 82.3281 31.1016C82.3281 31.2734 82.2682 31.4219 82.1484 31.5469C82.0339 31.6667 81.8776 31.7266 81.6797 31.7266C81.4818 31.7266 81.3255 31.6667 81.2109 31.5469C81.1016 31.4219 81.0469 31.2734 81.0469 31.1016ZM86.1172 35.1719V45.25H85.1797V33.5469H86.0547L86.1172 35.1719ZM91.9922 37.6953V37.8594C91.9922 38.4896 91.9193 39.0677 91.7734 39.5938C91.6276 40.1198 91.4167 40.5755 91.1406 40.9609C90.8698 41.3411 90.5339 41.6354 90.1328 41.8438C89.7318 42.0521 89.276 42.1562 88.7656 42.1562C88.2604 42.1562 87.8099 42.0781 87.4141 41.9219C87.0182 41.7656 86.6771 41.5443 86.3906 41.2578C86.1094 40.9661 85.8828 40.6276 85.7109 40.2422C85.5443 39.8516 85.4271 39.4245 85.3594 38.9609V36.7969C85.4375 36.2865 85.5651 35.8229 85.7422 35.4062C85.9193 34.9896 86.1458 34.6302 86.4219 34.3281C86.7031 34.026 87.0365 33.7943 87.4219 33.6328C87.8073 33.4714 88.2474 33.3906 88.7422 33.3906C89.2578 33.3906 89.7161 33.4922 90.1172 33.6953C90.5234 33.8932 90.8646 34.1823 91.1406 34.5625C91.4219 34.9375 91.6328 35.3906 91.7734 35.9219C91.9193 36.4479 91.9922 37.0391 91.9922 37.6953ZM91.0547 37.8594V37.6953C91.0547 37.2005 91.0026 36.7422 90.8984 36.3203C90.7995 35.8984 90.6458 35.5312 90.4375 35.2188C90.2344 34.901 89.974 34.6536 89.6562 34.4766C89.3438 34.2995 88.9714 34.2109 88.5391 34.2109C88.0911 34.2109 87.7083 34.2865 87.3906 34.4375C87.0781 34.5833 86.8177 34.7786 86.6094 35.0234C86.401 35.263 86.237 35.526 86.1172 35.8125C85.9974 36.099 85.9089 36.3802 85.8516 36.6562V39.1484C85.9505 39.5443 86.1094 39.9115 86.3281 40.25C86.5469 40.5833 86.8385 40.8516 87.2031 41.0547C87.5729 41.2526 88.0234 41.3516 88.5547 41.3516C88.9818 41.3516 89.3516 41.263 89.6641 41.0859C89.9766 40.9089 90.2344 40.6615 90.4375 40.3438C90.6458 40.026 90.7995 39.6562 90.8984 39.2344C91.0026 38.8125 91.0547 38.3542 91.0547 37.8594ZM95.4922 35.1719V45.25H94.5547V33.5469H95.4297L95.4922 35.1719ZM101.367 37.6953V37.8594C101.367 38.4896 101.294 39.0677 101.148 39.5938C101.003 40.1198 100.792 40.5755 100.516 40.9609C100.245 41.3411 99.9089 41.6354 99.5078 41.8438C99.1068 42.0521 98.651 42.1562 98.1406 42.1562C97.6354 42.1562 97.1849 42.0781 96.7891 41.9219C96.3932 41.7656 96.0521 41.5443 95.7656 41.2578C95.4844 40.9661 95.2578 40.6276 95.0859 40.2422C94.9193 39.8516 94.8021 39.4245 94.7344 38.9609V36.7969C94.8125 36.2865 94.9401 35.8229 95.1172 35.4062C95.2943 34.9896 95.5208 34.6302 95.7969 34.3281C96.0781 34.026 96.4115 33.7943 96.7969 33.6328C97.1823 33.4714 97.6224 33.3906 98.1172 33.3906C98.6328 33.3906 99.0911 33.4922 99.4922 33.6953C99.8984 33.8932 100.24 34.1823 100.516 34.5625C100.797 34.9375 101.008 35.3906 101.148 35.9219C101.294 36.4479 101.367 37.0391 101.367 37.6953ZM100.43 37.8594V37.6953C100.43 37.2005 100.378 36.7422 100.273 36.3203C100.174 35.8984 100.021 35.5312 99.8125 35.2188C99.6094 34.901 99.349 34.6536 99.0312 34.4766C98.7188 34.2995 98.3464 34.2109 97.9141 34.2109C97.4661 34.2109 97.0833 34.2865 96.7656 34.4375C96.4531 34.5833 96.1927 34.7786 95.9844 35.0234C95.776 35.263 95.612 35.526 95.4922 35.8125C95.3724 36.099 95.2839 36.3802 95.2266 36.6562V39.1484C95.3255 39.5443 95.4844 39.9115 95.7031 40.25C95.9219 40.5833 96.2135 40.8516 96.5781 41.0547C96.9479 41.2526 97.3984 41.3516 97.9297 41.3516C98.3568 41.3516 98.7266 41.263 99.0391 41.0859C99.3516 40.9089 99.6094 40.6615 99.8125 40.3438C100.021 40.026 100.174 39.6562 100.273 39.2344C100.378 38.8125 100.43 38.3542 100.43 37.8594ZM103.43 37.9062V37.6484C103.43 37.0339 103.518 36.4661 103.695 35.9453C103.872 35.4245 104.125 34.974 104.453 34.5938C104.786 34.2135 105.185 33.9193 105.648 33.7109C106.112 33.4974 106.628 33.3906 107.195 33.3906C107.768 33.3906 108.286 33.4974 108.75 33.7109C109.214 33.9193 109.612 34.2135 109.945 34.5938C110.279 34.974 110.534 35.4245 110.711 35.9453C110.888 36.4661 110.977 37.0339 110.977 37.6484V37.9062C110.977 38.5208 110.888 39.0885 110.711 39.6094C110.534 40.125 110.279 40.5729 109.945 40.9531C109.617 41.3333 109.221 41.6302 108.758 41.8438C108.294 42.0521 107.779 42.1562 107.211 42.1562C106.638 42.1562 106.12 42.0521 105.656 41.8438C105.193 41.6302 104.794 41.3333 104.461 40.9531C104.128 40.5729 103.872 40.125 103.695 39.6094C103.518 39.0885 103.43 38.5208 103.43 37.9062ZM104.359 37.6484V37.9062C104.359 38.3698 104.422 38.8099 104.547 39.2266C104.672 39.638 104.854 40.0052 105.094 40.3281C105.333 40.6458 105.63 40.8958 105.984 41.0781C106.339 41.2604 106.747 41.3516 107.211 41.3516C107.669 41.3516 108.073 41.2604 108.422 41.0781C108.776 40.8958 109.073 40.6458 109.312 40.3281C109.552 40.0052 109.732 39.638 109.852 39.2266C109.977 38.8099 110.039 38.3698 110.039 37.9062V37.6484C110.039 37.1901 109.977 36.7552 109.852 36.3438C109.732 35.9323 109.549 35.5651 109.305 35.2422C109.065 34.9193 108.768 34.6641 108.414 34.4766C108.06 34.2891 107.654 34.1953 107.195 34.1953C106.737 34.1953 106.331 34.2891 105.977 34.4766C105.628 34.6641 105.331 34.9193 105.086 35.2422C104.846 35.5651 104.664 35.9323 104.539 36.3438C104.419 36.7552 104.359 37.1901 104.359 37.6484ZM114.344 35.3516V42H113.414V33.5469H114.305L114.344 35.3516ZM114.133 37.25L113.719 37.0156C113.75 36.5156 113.852 36.0469 114.023 35.6094C114.195 35.1719 114.427 34.7865 114.719 34.4531C115.016 34.1198 115.362 33.8594 115.758 33.6719C116.159 33.4844 116.602 33.3906 117.086 33.3906C117.508 33.3906 117.885 33.4479 118.219 33.5625C118.552 33.6771 118.836 33.8594 119.07 34.1094C119.305 34.3594 119.482 34.6797 119.602 35.0703C119.727 35.4609 119.789 35.9375 119.789 36.5V42H118.852V36.4922C118.852 35.9089 118.771 35.4531 118.609 35.125C118.448 34.7917 118.219 34.5547 117.922 34.4141C117.625 34.2734 117.273 34.2031 116.867 34.2031C116.419 34.2031 116.026 34.3021 115.688 34.5C115.354 34.6927 115.073 34.9453 114.844 35.2578C114.62 35.5651 114.448 35.8958 114.328 36.25C114.208 36.599 114.143 36.9323 114.133 37.25ZM128.508 30.625V42H127.547V30.625H128.508ZM132.812 35.3516V42H131.883V33.5469H132.773L132.812 35.3516ZM132.602 37.25L132.188 37.0156C132.219 36.5156 132.32 36.0469 132.492 35.6094C132.664 35.1719 132.896 34.7865 133.188 34.4531C133.484 34.1198 133.831 33.8594 134.227 33.6719C134.628 33.4844 135.07 33.3906 135.555 33.3906C135.977 33.3906 136.354 33.4479 136.688 33.5625C137.021 33.6771 137.305 33.8594 137.539 34.1094C137.773 34.3594 137.951 34.6797 138.07 35.0703C138.195 35.4609 138.258 35.9375 138.258 36.5V42H137.32V36.4922C137.32 35.9089 137.24 35.4531 137.078 35.125C136.917 34.7917 136.688 34.5547 136.391 34.4141C136.094 34.2734 135.742 34.2031 135.336 34.2031C134.888 34.2031 134.495 34.3021 134.156 34.5C133.823 34.6927 133.542 34.9453 133.312 35.2578C133.089 35.5651 132.917 35.8958 132.797 36.25C132.677 36.599 132.612 36.9323 132.602 37.25ZM146.672 40.3594V30H147.609V42H146.734L146.672 40.3594ZM140.805 37.8594V37.6953C140.805 37.0391 140.88 36.4479 141.031 35.9219C141.182 35.3906 141.398 34.9375 141.68 34.5625C141.966 34.1823 142.31 33.8932 142.711 33.6953C143.112 33.4922 143.565 33.3906 144.07 33.3906C144.565 33.3906 145.003 33.4714 145.383 33.6328C145.763 33.7943 146.089 34.026 146.359 34.3281C146.635 34.6302 146.857 34.9896 147.023 35.4062C147.195 35.8229 147.32 36.2865 147.398 36.7969V38.8828C147.336 39.362 147.221 39.8021 147.055 40.2031C146.888 40.599 146.667 40.9453 146.391 41.2422C146.115 41.5339 145.781 41.7604 145.391 41.9219C145.005 42.0781 144.56 42.1562 144.055 42.1562C143.555 42.1562 143.104 42.0521 142.703 41.8438C142.302 41.6354 141.961 41.3411 141.68 40.9609C141.398 40.5755 141.182 40.1198 141.031 39.5938C140.88 39.0677 140.805 38.4896 140.805 37.8594ZM141.742 37.6953V37.8594C141.742 38.3542 141.792 38.8125 141.891 39.2344C141.99 39.6562 142.141 40.0234 142.344 40.3359C142.547 40.6484 142.805 40.8932 143.117 41.0703C143.43 41.2474 143.799 41.3359 144.227 41.3359C144.763 41.3359 145.214 41.2344 145.578 41.0312C145.943 40.8229 146.234 40.5495 146.453 40.2109C146.672 39.8672 146.831 39.4922 146.93 39.0859V36.6562C146.867 36.3802 146.776 36.099 146.656 35.8125C146.536 35.526 146.372 35.263 146.164 35.0234C145.961 34.7786 145.701 34.5833 145.383 34.4375C145.07 34.2865 144.69 34.2109 144.242 34.2109C143.81 34.2109 143.438 34.2995 143.125 34.4766C142.812 34.6536 142.552 34.901 142.344 35.2188C142.141 35.5312 141.99 35.8984 141.891 36.3203C141.792 36.7422 141.742 37.2005 141.742 37.6953ZM151.609 33.5469V42H150.68V33.5469H151.609ZM150.516 31.1016C150.516 30.9245 150.57 30.776 150.68 30.6562C150.794 30.5312 150.951 30.4688 151.148 30.4688C151.346 30.4688 151.503 30.5312 151.617 30.6562C151.737 30.776 151.797 30.9245 151.797 31.1016C151.797 31.2734 151.737 31.4219 151.617 31.5469C151.503 31.6667 151.346 31.7266 151.148 31.7266C150.951 31.7266 150.794 31.6667 150.68 31.5469C150.57 31.4219 150.516 31.2734 150.516 31.1016ZM159.805 40.4844V36.125C159.805 35.724 159.721 35.3776 159.555 35.0859C159.388 34.7943 159.143 34.5703 158.82 34.4141C158.497 34.2578 158.099 34.1797 157.625 34.1797C157.188 34.1797 156.797 34.2578 156.453 34.4141C156.115 34.5651 155.846 34.7708 155.648 35.0312C155.456 35.2865 155.359 35.5703 155.359 35.8828L154.422 35.875C154.422 35.5573 154.5 35.25 154.656 34.9531C154.812 34.6562 155.034 34.3906 155.32 34.1562C155.607 33.9219 155.948 33.737 156.344 33.6016C156.745 33.4609 157.185 33.3906 157.664 33.3906C158.268 33.3906 158.799 33.4922 159.258 33.6953C159.721 33.8984 160.083 34.2031 160.344 34.6094C160.604 35.0156 160.734 35.526 160.734 36.1406V40.2266C160.734 40.5182 160.755 40.8203 160.797 41.1328C160.844 41.4453 160.909 41.7031 160.992 41.9062V42H160C159.938 41.8125 159.888 41.5781 159.852 41.2969C159.82 41.0104 159.805 40.7396 159.805 40.4844ZM160.023 37.0781L160.039 37.7969H158.203C157.724 37.7969 157.294 37.8411 156.914 37.9297C156.539 38.013 156.221 38.138 155.961 38.3047C155.701 38.4661 155.5 38.6615 155.359 38.8906C155.224 39.1198 155.156 39.3802 155.156 39.6719C155.156 39.974 155.232 40.25 155.383 40.5C155.539 40.75 155.758 40.9505 156.039 41.1016C156.326 41.2474 156.664 41.3203 157.055 41.3203C157.576 41.3203 158.034 41.224 158.43 41.0312C158.831 40.8385 159.161 40.5859 159.422 40.2734C159.682 39.9609 159.857 39.6198 159.945 39.25L160.352 39.7891C160.284 40.0495 160.159 40.3177 159.977 40.5938C159.799 40.8646 159.568 41.1198 159.281 41.3594C158.995 41.5938 158.656 41.7865 158.266 41.9375C157.88 42.0833 157.443 42.1562 156.953 42.1562C156.401 42.1562 155.919 42.0521 155.508 41.8438C155.102 41.6354 154.784 41.3516 154.555 40.9922C154.331 40.6276 154.219 40.2161 154.219 39.7578C154.219 39.3411 154.307 38.9688 154.484 38.6406C154.661 38.3073 154.917 38.026 155.25 37.7969C155.589 37.5625 155.995 37.3854 156.469 37.2656C156.948 37.1406 157.484 37.0781 158.078 37.0781H160.023ZM169.078 34.9453V42H168.148V33.5469H169.055L169.078 34.9453ZM172.07 33.4844L172.047 34.3438C171.943 34.3281 171.841 34.3151 171.742 34.3047C171.643 34.2943 171.536 34.2891 171.422 34.2891C171.016 34.2891 170.659 34.3646 170.352 34.5156C170.049 34.6615 169.794 34.8672 169.586 35.1328C169.378 35.3932 169.219 35.7005 169.109 36.0547C169 36.4036 168.938 36.7786 168.922 37.1797L168.578 37.3125C168.578 36.7604 168.635 36.2474 168.75 35.7734C168.865 35.2995 169.039 34.8854 169.273 34.5312C169.513 34.1719 169.812 33.8932 170.172 33.6953C170.536 33.4922 170.964 33.3906 171.453 33.3906C171.573 33.3906 171.69 33.401 171.805 33.4219C171.924 33.4375 172.013 33.4583 172.07 33.4844ZM177.148 42.1562C176.596 42.1562 176.089 42.0547 175.625 41.8516C175.167 41.6484 174.766 41.362 174.422 40.9922C174.083 40.6224 173.82 40.1849 173.633 39.6797C173.451 39.1693 173.359 38.612 173.359 38.0078V37.6719C173.359 37.0208 173.456 36.4323 173.648 35.9062C173.841 35.3802 174.107 34.9297 174.445 34.5547C174.784 34.1797 175.169 33.8932 175.602 33.6953C176.039 33.4922 176.497 33.3906 176.977 33.3906C177.513 33.3906 177.99 33.487 178.406 33.6797C178.823 33.8672 179.172 34.1354 179.453 34.4844C179.74 34.8281 179.956 35.237 180.102 35.7109C180.247 36.1797 180.32 36.6979 180.32 37.2656V37.8359H173.922V37.0391H179.391V36.9297C179.38 36.4557 179.284 36.013 179.102 35.6016C178.924 35.1849 178.659 34.8464 178.305 34.5859C177.951 34.3255 177.508 34.1953 176.977 34.1953C176.581 34.1953 176.216 34.2786 175.883 34.4453C175.555 34.612 175.271 34.8516 175.031 35.1641C174.797 35.4714 174.615 35.8385 174.484 36.2656C174.359 36.6875 174.297 37.1562 174.297 37.6719V38.0078C174.297 38.4766 174.365 38.9141 174.5 39.3203C174.641 39.7214 174.839 40.0755 175.094 40.3828C175.354 40.6901 175.661 40.9297 176.016 41.1016C176.37 41.2734 176.76 41.3594 177.188 41.3594C177.688 41.3594 178.13 41.2682 178.516 41.0859C178.901 40.8984 179.247 40.6042 179.555 40.2031L180.141 40.6562C179.958 40.9271 179.729 41.1771 179.453 41.4062C179.182 41.6354 178.857 41.8177 178.477 41.9531C178.096 42.0885 177.654 42.1562 177.148 42.1562ZM185.859 33.5469V34.3125H181.625V33.5469H185.859ZM183.18 31.375H184.109V39.9453C184.109 40.3359 184.161 40.6302 184.266 40.8281C184.37 41.026 184.505 41.1589 184.672 41.2266C184.839 41.2943 185.018 41.3281 185.211 41.3281C185.352 41.3281 185.487 41.3203 185.617 41.3047C185.747 41.2839 185.865 41.263 185.969 41.2422L186.008 42.0312C185.893 42.0677 185.745 42.0964 185.562 42.1172C185.38 42.1432 185.198 42.1562 185.016 42.1562C184.656 42.1562 184.339 42.0911 184.062 41.9609C183.786 41.8255 183.57 41.5964 183.414 41.2734C183.258 40.9453 183.18 40.5 183.18 39.9375V31.375ZM189.359 33.5469V42H188.43V33.5469H189.359ZM188.266 31.1016C188.266 30.9245 188.32 30.776 188.43 30.6562C188.544 30.5312 188.701 30.4688 188.898 30.4688C189.096 30.4688 189.253 30.5312 189.367 30.6562C189.487 30.776 189.547 30.9245 189.547 31.1016C189.547 31.2734 189.487 31.4219 189.367 31.5469C189.253 31.6667 189.096 31.7266 188.898 31.7266C188.701 31.7266 188.544 31.6667 188.43 31.5469C188.32 31.4219 188.266 31.2734 188.266 31.1016ZM193.344 34.9453V42H192.414V33.5469H193.32L193.344 34.9453ZM196.336 33.4844L196.312 34.3438C196.208 34.3281 196.107 34.3151 196.008 34.3047C195.909 34.2943 195.802 34.2891 195.688 34.2891C195.281 34.2891 194.924 34.3646 194.617 34.5156C194.315 34.6615 194.06 34.8672 193.852 35.1328C193.643 35.3932 193.484 35.7005 193.375 36.0547C193.266 36.4036 193.203 36.7786 193.188 37.1797L192.844 37.3125C192.844 36.7604 192.901 36.2474 193.016 35.7734C193.13 35.2995 193.305 34.8854 193.539 34.5312C193.779 34.1719 194.078 33.8932 194.438 33.6953C194.802 33.4922 195.229 33.3906 195.719 33.3906C195.839 33.3906 195.956 33.401 196.07 33.4219C196.19 33.4375 196.279 33.4583 196.336 33.4844ZM201.414 42.1562C200.862 42.1562 200.354 42.0547 199.891 41.8516C199.432 41.6484 199.031 41.362 198.688 40.9922C198.349 40.6224 198.086 40.1849 197.898 39.6797C197.716 39.1693 197.625 38.612 197.625 38.0078V37.6719C197.625 37.0208 197.721 36.4323 197.914 35.9062C198.107 35.3802 198.372 34.9297 198.711 34.5547C199.049 34.1797 199.435 33.8932 199.867 33.6953C200.305 33.4922 200.763 33.3906 201.242 33.3906C201.779 33.3906 202.255 33.487 202.672 33.6797C203.089 33.8672 203.438 34.1354 203.719 34.4844C204.005 34.8281 204.221 35.237 204.367 35.7109C204.513 36.1797 204.586 36.6979 204.586 37.2656V37.8359H198.188V37.0391H203.656V36.9297C203.646 36.4557 203.549 36.013 203.367 35.6016C203.19 35.1849 202.924 34.8464 202.57 34.5859C202.216 34.3255 201.773 34.1953 201.242 34.1953C200.846 34.1953 200.482 34.2786 200.148 34.4453C199.82 34.612 199.536 34.8516 199.297 35.1641C199.062 35.4714 198.88 35.8385 198.75 36.2656C198.625 36.6875 198.562 37.1562 198.562 37.6719V38.0078C198.562 38.4766 198.63 38.9141 198.766 39.3203C198.906 39.7214 199.104 40.0755 199.359 40.3828C199.62 40.6901 199.927 40.9297 200.281 41.1016C200.635 41.2734 201.026 41.3594 201.453 41.3594C201.953 41.3594 202.396 41.2682 202.781 41.0859C203.167 40.8984 203.513 40.6042 203.82 40.2031L204.406 40.6562C204.224 40.9271 203.995 41.1771 203.719 41.4062C203.448 41.6354 203.122 41.8177 202.742 41.9531C202.362 42.0885 201.919 42.1562 201.414 42.1562ZM207.812 35.2969V42H206.875V33.5469H207.773L207.812 35.2969ZM207.641 37.25L207.188 37.0156C207.219 36.5156 207.312 36.0469 207.469 35.6094C207.63 35.1719 207.854 34.7865 208.141 34.4531C208.427 34.1198 208.771 33.8594 209.172 33.6719C209.573 33.4844 210.029 33.3906 210.539 33.3906C210.951 33.3906 211.323 33.4479 211.656 33.5625C211.995 33.6719 212.281 33.8464 212.516 34.0859C212.755 34.3203 212.94 34.6276 213.07 35.0078C213.201 35.388 213.266 35.8438 213.266 36.375V42H212.336V36.4062C212.336 35.8438 212.247 35.4036 212.07 35.0859C211.898 34.7682 211.656 34.5417 211.344 34.4062C211.036 34.2708 210.68 34.2031 210.273 34.2031C209.794 34.2031 209.388 34.3021 209.055 34.5C208.727 34.6927 208.458 34.9453 208.25 35.2578C208.047 35.5651 207.896 35.8958 207.797 36.25C207.698 36.599 207.646 36.9323 207.641 37.25ZM213.258 36.5156L212.633 36.5312C212.659 36.1198 212.753 35.7266 212.914 35.3516C213.081 34.9766 213.307 34.6432 213.594 34.3516C213.88 34.0547 214.221 33.8203 214.617 33.6484C215.018 33.4766 215.469 33.3906 215.969 33.3906C216.406 33.3906 216.797 33.4505 217.141 33.5703C217.484 33.6849 217.773 33.8698 218.008 34.125C218.247 34.375 218.43 34.6953 218.555 35.0859C218.68 35.4766 218.742 35.9453 218.742 36.4922V42H217.805V36.4844C217.805 35.8854 217.716 35.4219 217.539 35.0938C217.367 34.7604 217.128 34.5286 216.82 34.3984C216.513 34.2682 216.154 34.2031 215.742 34.2031C215.336 34.2083 214.979 34.2839 214.672 34.4297C214.365 34.5703 214.107 34.7578 213.898 34.9922C213.695 35.2214 213.539 35.4688 213.43 35.7344C213.326 36 213.268 36.2604 213.258 36.5156ZM224.883 42.1562C224.331 42.1562 223.823 42.0547 223.359 41.8516C222.901 41.6484 222.5 41.362 222.156 40.9922C221.818 40.6224 221.555 40.1849 221.367 39.6797C221.185 39.1693 221.094 38.612 221.094 38.0078V37.6719C221.094 37.0208 221.19 36.4323 221.383 35.9062C221.576 35.3802 221.841 34.9297 222.18 34.5547C222.518 34.1797 222.904 33.8932 223.336 33.6953C223.773 33.4922 224.232 33.3906 224.711 33.3906C225.247 33.3906 225.724 33.487 226.141 33.6797C226.557 33.8672 226.906 34.1354 227.188 34.4844C227.474 34.8281 227.69 35.237 227.836 35.7109C227.982 36.1797 228.055 36.6979 228.055 37.2656V37.8359H221.656V37.0391H227.125V36.9297C227.115 36.4557 227.018 36.013 226.836 35.6016C226.659 35.1849 226.393 34.8464 226.039 34.5859C225.685 34.3255 225.242 34.1953 224.711 34.1953C224.315 34.1953 223.951 34.2786 223.617 34.4453C223.289 34.612 223.005 34.8516 222.766 35.1641C222.531 35.4714 222.349 35.8385 222.219 36.2656C222.094 36.6875 222.031 37.1562 222.031 37.6719V38.0078C222.031 38.4766 222.099 38.9141 222.234 39.3203C222.375 39.7214 222.573 40.0755 222.828 40.3828C223.089 40.6901 223.396 40.9297 223.75 41.1016C224.104 41.2734 224.495 41.3594 224.922 41.3594C225.422 41.3594 225.865 41.2682 226.25 41.0859C226.635 40.8984 226.982 40.6042 227.289 40.2031L227.875 40.6562C227.693 40.9271 227.464 41.1771 227.188 41.4062C226.917 41.6354 226.591 41.8177 226.211 41.9531C225.831 42.0885 225.388 42.1562 224.883 42.1562ZM231.328 35.3516V42H230.398V33.5469H231.289L231.328 35.3516ZM231.117 37.25L230.703 37.0156C230.734 36.5156 230.836 36.0469 231.008 35.6094C231.18 35.1719 231.411 34.7865 231.703 34.4531C232 34.1198 232.346 33.8594 232.742 33.6719C233.143 33.4844 233.586 33.3906 234.07 33.3906C234.492 33.3906 234.87 33.4479 235.203 33.5625C235.536 33.6771 235.82 33.8594 236.055 34.1094C236.289 34.3594 236.466 34.6797 236.586 35.0703C236.711 35.4609 236.773 35.9375 236.773 36.5V42H235.836V36.4922C235.836 35.9089 235.755 35.4531 235.594 35.125C235.432 34.7917 235.203 34.5547 234.906 34.4141C234.609 34.2734 234.258 34.2031 233.852 34.2031C233.404 34.2031 233.01 34.3021 232.672 34.5C232.339 34.6927 232.057 34.9453 231.828 35.2578C231.604 35.5651 231.432 35.8958 231.312 36.25C231.193 36.599 231.128 36.9323 231.117 37.25ZM242.891 33.5469V34.3125H238.656V33.5469H242.891ZM240.211 31.375H241.141V39.9453C241.141 40.3359 241.193 40.6302 241.297 40.8281C241.401 41.026 241.536 41.1589 241.703 41.2266C241.87 41.2943 242.049 41.3281 242.242 41.3281C242.383 41.3281 242.518 41.3203 242.648 41.3047C242.779 41.2839 242.896 41.263 243 41.2422L243.039 42.0312C242.924 42.0677 242.776 42.0964 242.594 42.1172C242.411 42.1432 242.229 42.1562 242.047 42.1562C241.688 42.1562 241.37 42.0911 241.094 41.9609C240.818 41.8255 240.602 41.5964 240.445 41.2734C240.289 40.9453 240.211 40.5 240.211 39.9375V31.375ZM251.359 42H250.43V32.5C250.43 31.9219 250.529 31.4349 250.727 31.0391C250.93 30.6432 251.216 30.3438 251.586 30.1406C251.961 29.9375 252.406 29.8359 252.922 29.8359C253.083 29.8359 253.25 29.8464 253.422 29.8672C253.594 29.8828 253.76 29.9167 253.922 29.9688L253.852 30.7578C253.721 30.7214 253.589 30.6979 253.453 30.6875C253.323 30.6719 253.169 30.6641 252.992 30.6641C252.654 30.6641 252.362 30.737 252.117 30.8828C251.872 31.0234 251.685 31.2292 251.555 31.5C251.424 31.7708 251.359 32.1042 251.359 32.5V42ZM253.375 33.5469V34.3125H249.031V33.5469H253.375ZM260.969 40.0469V33.5469H261.906V42H261.008L260.969 40.0469ZM261.141 38.4844L261.625 38.4688C261.625 39 261.562 39.4896 261.438 39.9375C261.312 40.3854 261.117 40.776 260.852 41.1094C260.586 41.4427 260.242 41.7005 259.82 41.8828C259.398 42.0651 258.891 42.1562 258.297 42.1562C257.885 42.1562 257.508 42.099 257.164 41.9844C256.826 41.8646 256.534 41.6771 256.289 41.4219C256.044 41.1667 255.854 40.8359 255.719 40.4297C255.589 40.0234 255.523 39.5312 255.523 38.9531V33.5469H256.453V38.9688C256.453 39.4219 256.503 39.7995 256.602 40.1016C256.706 40.4036 256.846 40.6458 257.023 40.8281C257.206 41.0104 257.414 41.1406 257.648 41.2188C257.883 41.2969 258.135 41.3359 258.406 41.3359C259.094 41.3359 259.635 41.2031 260.031 40.9375C260.432 40.6719 260.716 40.3229 260.883 39.8906C261.055 39.4531 261.141 38.9844 261.141 38.4844ZM265.781 35.3516V42H264.852V33.5469H265.742L265.781 35.3516ZM265.57 37.25L265.156 37.0156C265.188 36.5156 265.289 36.0469 265.461 35.6094C265.633 35.1719 265.865 34.7865 266.156 34.4531C266.453 34.1198 266.799 33.8594 267.195 33.6719C267.596 33.4844 268.039 33.3906 268.523 33.3906C268.945 33.3906 269.323 33.4479 269.656 33.5625C269.99 33.6771 270.273 33.8594 270.508 34.1094C270.742 34.3594 270.919 34.6797 271.039 35.0703C271.164 35.4609 271.227 35.9375 271.227 36.5V42H270.289V36.4922C270.289 35.9089 270.208 35.4531 270.047 35.125C269.885 34.7917 269.656 34.5547 269.359 34.4141C269.062 34.2734 268.711 34.2031 268.305 34.2031C267.857 34.2031 267.464 34.3021 267.125 34.5C266.792 34.6927 266.51 34.9453 266.281 35.2578C266.057 35.5651 265.885 35.8958 265.766 36.25C265.646 36.599 265.581 36.9323 265.57 37.25ZM279.641 40.3594V30H280.578V42H279.703L279.641 40.3594ZM273.773 37.8594V37.6953C273.773 37.0391 273.849 36.4479 274 35.9219C274.151 35.3906 274.367 34.9375 274.648 34.5625C274.935 34.1823 275.279 33.8932 275.68 33.6953C276.081 33.4922 276.534 33.3906 277.039 33.3906C277.534 33.3906 277.971 33.4714 278.352 33.6328C278.732 33.7943 279.057 34.026 279.328 34.3281C279.604 34.6302 279.826 34.9896 279.992 35.4062C280.164 35.8229 280.289 36.2865 280.367 36.7969V38.8828C280.305 39.362 280.19 39.8021 280.023 40.2031C279.857 40.599 279.635 40.9453 279.359 41.2422C279.083 41.5339 278.75 41.7604 278.359 41.9219C277.974 42.0781 277.529 42.1562 277.023 42.1562C276.523 42.1562 276.073 42.0521 275.672 41.8438C275.271 41.6354 274.93 41.3411 274.648 40.9609C274.367 40.5755 274.151 40.1198 274 39.5938C273.849 39.0677 273.773 38.4896 273.773 37.8594ZM274.711 37.6953V37.8594C274.711 38.3542 274.76 38.8125 274.859 39.2344C274.958 39.6562 275.109 40.0234 275.312 40.3359C275.516 40.6484 275.773 40.8932 276.086 41.0703C276.398 41.2474 276.768 41.3359 277.195 41.3359C277.732 41.3359 278.182 41.2344 278.547 41.0312C278.911 40.8229 279.203 40.5495 279.422 40.2109C279.641 39.8672 279.799 39.4922 279.898 39.0859V36.6562C279.836 36.3802 279.745 36.099 279.625 35.8125C279.505 35.526 279.341 35.263 279.133 35.0234C278.93 34.7786 278.669 34.5833 278.352 34.4375C278.039 34.2865 277.659 34.2109 277.211 34.2109C276.779 34.2109 276.406 34.2995 276.094 34.4766C275.781 34.6536 275.521 34.901 275.312 35.2188C275.109 35.5312 274.958 35.8984 274.859 36.3203C274.76 36.7422 274.711 37.2005 274.711 37.6953ZM290.289 40.0234L292.328 33.5469H292.984L292.594 35.2891L290.461 42H289.805L290.289 40.0234ZM288.172 33.5469L289.961 40.0625L290.344 42H289.664L287.211 33.5469H288.172ZM295.523 40.0391L297.266 33.5469H298.227L295.773 42H295.102L295.523 40.0391ZM293.117 33.5469L295.125 39.9688L295.633 42H294.977L292.797 35.2812L292.43 33.5469H293.117ZM303.789 42.1562C303.237 42.1562 302.729 42.0547 302.266 41.8516C301.807 41.6484 301.406 41.362 301.062 40.9922C300.724 40.6224 300.461 40.1849 300.273 39.6797C300.091 39.1693 300 38.612 300 38.0078V37.6719C300 37.0208 300.096 36.4323 300.289 35.9062C300.482 35.3802 300.747 34.9297 301.086 34.5547C301.424 34.1797 301.81 33.8932 302.242 33.6953C302.68 33.4922 303.138 33.3906 303.617 33.3906C304.154 33.3906 304.63 33.487 305.047 33.6797C305.464 33.8672 305.812 34.1354 306.094 34.4844C306.38 34.8281 306.596 35.237 306.742 35.7109C306.888 36.1797 306.961 36.6979 306.961 37.2656V37.8359H300.562V37.0391H306.031V36.9297C306.021 36.4557 305.924 36.013 305.742 35.6016C305.565 35.1849 305.299 34.8464 304.945 34.5859C304.591 34.3255 304.148 34.1953 303.617 34.1953C303.221 34.1953 302.857 34.2786 302.523 34.4453C302.195 34.612 301.911 34.8516 301.672 35.1641C301.438 35.4714 301.255 35.8385 301.125 36.2656C301 36.6875 300.938 37.1562 300.938 37.6719V38.0078C300.938 38.4766 301.005 38.9141 301.141 39.3203C301.281 39.7214 301.479 40.0755 301.734 40.3828C301.995 40.6901 302.302 40.9297 302.656 41.1016C303.01 41.2734 303.401 41.3594 303.828 41.3594C304.328 41.3594 304.771 41.2682 305.156 41.0859C305.542 40.8984 305.888 40.6042 306.195 40.2031L306.781 40.6562C306.599 40.9271 306.37 41.1771 306.094 41.4062C305.823 41.6354 305.497 41.8177 305.117 41.9531C304.737 42.0885 304.294 42.1562 303.789 42.1562ZM314.445 40.4844V36.125C314.445 35.724 314.362 35.3776 314.195 35.0859C314.029 34.7943 313.784 34.5703 313.461 34.4141C313.138 34.2578 312.74 34.1797 312.266 34.1797C311.828 34.1797 311.438 34.2578 311.094 34.4141C310.755 34.5651 310.487 34.7708 310.289 35.0312C310.096 35.2865 310 35.5703 310 35.8828L309.062 35.875C309.062 35.5573 309.141 35.25 309.297 34.9531C309.453 34.6562 309.674 34.3906 309.961 34.1562C310.247 33.9219 310.589 33.737 310.984 33.6016C311.385 33.4609 311.826 33.3906 312.305 33.3906C312.909 33.3906 313.44 33.4922 313.898 33.6953C314.362 33.8984 314.724 34.2031 314.984 34.6094C315.245 35.0156 315.375 35.526 315.375 36.1406V40.2266C315.375 40.5182 315.396 40.8203 315.438 41.1328C315.484 41.4453 315.549 41.7031 315.633 41.9062V42H314.641C314.578 41.8125 314.529 41.5781 314.492 41.2969C314.461 41.0104 314.445 40.7396 314.445 40.4844ZM314.664 37.0781L314.68 37.7969H312.844C312.365 37.7969 311.935 37.8411 311.555 37.9297C311.18 38.013 310.862 38.138 310.602 38.3047C310.341 38.4661 310.141 38.6615 310 38.8906C309.865 39.1198 309.797 39.3802 309.797 39.6719C309.797 39.974 309.872 40.25 310.023 40.5C310.18 40.75 310.398 40.9505 310.68 41.1016C310.966 41.2474 311.305 41.3203 311.695 41.3203C312.216 41.3203 312.674 41.224 313.07 41.0312C313.471 40.8385 313.802 40.5859 314.062 40.2734C314.323 39.9609 314.497 39.6198 314.586 39.25L314.992 39.7891C314.924 40.0495 314.799 40.3177 314.617 40.5938C314.44 40.8646 314.208 41.1198 313.922 41.3594C313.635 41.5938 313.297 41.7865 312.906 41.9375C312.521 42.0833 312.083 42.1562 311.594 42.1562C311.042 42.1562 310.56 42.0521 310.148 41.8438C309.742 41.6354 309.424 41.3516 309.195 40.9922C308.971 40.6276 308.859 40.2161 308.859 39.7578C308.859 39.3411 308.948 38.9688 309.125 38.6406C309.302 38.3073 309.557 38.026 309.891 37.7969C310.229 37.5625 310.635 37.3854 311.109 37.2656C311.589 37.1406 312.125 37.0781 312.719 37.0781H314.664ZM319.422 30V42H318.492V30H319.422ZM325.672 33.5469V34.3125H321.438V33.5469H325.672ZM322.992 31.375H323.922V39.9453C323.922 40.3359 323.974 40.6302 324.078 40.8281C324.182 41.026 324.318 41.1589 324.484 41.2266C324.651 41.2943 324.831 41.3281 325.023 41.3281C325.164 41.3281 325.299 41.3203 325.43 41.3047C325.56 41.2839 325.677 41.263 325.781 41.2422L325.82 42.0312C325.706 42.0677 325.557 42.0964 325.375 42.1172C325.193 42.1432 325.01 42.1562 324.828 42.1562C324.469 42.1562 324.151 42.0911 323.875 41.9609C323.599 41.8255 323.383 41.5964 323.227 41.2734C323.07 40.9453 322.992 40.5 322.992 39.9375V31.375ZM329.062 30V42H328.133V30H329.062ZM328.852 37.25L328.438 37.0156C328.469 36.5156 328.57 36.0469 328.742 35.6094C328.914 35.1719 329.146 34.7865 329.438 34.4531C329.734 34.1198 330.081 33.8594 330.477 33.6719C330.878 33.4844 331.32 33.3906 331.805 33.3906C332.227 33.3906 332.604 33.4479 332.938 33.5625C333.271 33.6771 333.555 33.8594 333.789 34.1094C334.023 34.3594 334.201 34.6797 334.32 35.0703C334.445 35.4609 334.508 35.9375 334.508 36.5V42H333.57V36.4922C333.57 35.9089 333.49 35.4531 333.328 35.125C333.167 34.7917 332.938 34.5547 332.641 34.4141C332.344 34.2734 331.992 34.2031 331.586 34.2031C331.138 34.2031 330.745 34.3021 330.406 34.5C330.073 34.6927 329.792 34.9453 329.562 35.2578C329.339 35.5651 329.167 35.8958 329.047 36.25C328.927 36.599 328.862 36.9323 328.852 37.25ZM344.938 41.3516C345.333 41.3516 345.703 41.2786 346.047 41.1328C346.396 40.9818 346.682 40.7604 346.906 40.4688C347.135 40.1719 347.266 39.8099 347.297 39.3828H348.188C348.161 39.9193 347.997 40.3984 347.695 40.8203C347.398 41.237 347.008 41.5651 346.523 41.8047C346.044 42.0391 345.516 42.1562 344.938 42.1562C344.349 42.1562 343.828 42.0495 343.375 41.8359C342.927 41.6224 342.552 41.3255 342.25 40.9453C341.948 40.5599 341.719 40.112 341.562 39.6016C341.411 39.0859 341.336 38.5312 341.336 37.9375V37.6094C341.336 37.0156 341.411 36.4635 341.562 35.9531C341.719 35.4375 341.948 34.9896 342.25 34.6094C342.552 34.224 342.927 33.9245 343.375 33.7109C343.823 33.4974 344.341 33.3906 344.93 33.3906C345.534 33.3906 346.076 33.513 346.555 33.7578C347.039 34.0026 347.424 34.349 347.711 34.7969C348.003 35.2448 348.161 35.776 348.188 36.3906H347.297C347.271 35.9375 347.151 35.5469 346.938 35.2188C346.724 34.8906 346.443 34.638 346.094 34.4609C345.745 34.2839 345.357 34.1953 344.93 34.1953C344.451 34.1953 344.042 34.2891 343.703 34.4766C343.365 34.6589 343.089 34.9115 342.875 35.2344C342.667 35.5521 342.513 35.9167 342.414 36.3281C342.315 36.7344 342.266 37.1615 342.266 37.6094V37.9375C342.266 38.3906 342.312 38.8229 342.406 39.2344C342.505 39.6406 342.659 40.0026 342.867 40.3203C343.081 40.638 343.357 40.8906 343.695 41.0781C344.039 41.2604 344.453 41.3516 344.938 41.3516ZM351.5 34.9453V42H350.57V33.5469H351.477L351.5 34.9453ZM354.492 33.4844L354.469 34.3438C354.365 34.3281 354.263 34.3151 354.164 34.3047C354.065 34.2943 353.958 34.2891 353.844 34.2891C353.438 34.2891 353.081 34.3646 352.773 34.5156C352.471 34.6615 352.216 34.8672 352.008 35.1328C351.799 35.3932 351.641 35.7005 351.531 36.0547C351.422 36.4036 351.359 36.7786 351.344 37.1797L351 37.3125C351 36.7604 351.057 36.2474 351.172 35.7734C351.286 35.2995 351.461 34.8854 351.695 34.5312C351.935 34.1719 352.234 33.8932 352.594 33.6953C352.958 33.4922 353.385 33.3906 353.875 33.3906C353.995 33.3906 354.112 33.401 354.227 33.4219C354.346 33.4375 354.435 33.4583 354.492 33.4844ZM359.57 42.1562C359.018 42.1562 358.51 42.0547 358.047 41.8516C357.589 41.6484 357.188 41.362 356.844 40.9922C356.505 40.6224 356.242 40.1849 356.055 39.6797C355.872 39.1693 355.781 38.612 355.781 38.0078V37.6719C355.781 37.0208 355.878 36.4323 356.07 35.9062C356.263 35.3802 356.529 34.9297 356.867 34.5547C357.206 34.1797 357.591 33.8932 358.023 33.6953C358.461 33.4922 358.919 33.3906 359.398 33.3906C359.935 33.3906 360.411 33.487 360.828 33.6797C361.245 33.8672 361.594 34.1354 361.875 34.4844C362.161 34.8281 362.378 35.237 362.523 35.7109C362.669 36.1797 362.742 36.6979 362.742 37.2656V37.8359H356.344V37.0391H361.812V36.9297C361.802 36.4557 361.706 36.013 361.523 35.6016C361.346 35.1849 361.081 34.8464 360.727 34.5859C360.372 34.3255 359.93 34.1953 359.398 34.1953C359.003 34.1953 358.638 34.2786 358.305 34.4453C357.977 34.612 357.693 34.8516 357.453 35.1641C357.219 35.4714 357.036 35.8385 356.906 36.2656C356.781 36.6875 356.719 37.1562 356.719 37.6719V38.0078C356.719 38.4766 356.786 38.9141 356.922 39.3203C357.062 39.7214 357.26 40.0755 357.516 40.3828C357.776 40.6901 358.083 40.9297 358.438 41.1016C358.792 41.2734 359.182 41.3594 359.609 41.3594C360.109 41.3594 360.552 41.2682 360.938 41.0859C361.323 40.8984 361.669 40.6042 361.977 40.2031L362.562 40.6562C362.38 40.9271 362.151 41.1771 361.875 41.4062C361.604 41.6354 361.279 41.8177 360.898 41.9531C360.518 42.0885 360.076 42.1562 359.57 42.1562ZM370.227 40.4844V36.125C370.227 35.724 370.143 35.3776 369.977 35.0859C369.81 34.7943 369.565 34.5703 369.242 34.4141C368.919 34.2578 368.521 34.1797 368.047 34.1797C367.609 34.1797 367.219 34.2578 366.875 34.4141C366.536 34.5651 366.268 34.7708 366.07 35.0312C365.878 35.2865 365.781 35.5703 365.781 35.8828L364.844 35.875C364.844 35.5573 364.922 35.25 365.078 34.9531C365.234 34.6562 365.456 34.3906 365.742 34.1562C366.029 33.9219 366.37 33.737 366.766 33.6016C367.167 33.4609 367.607 33.3906 368.086 33.3906C368.69 33.3906 369.221 33.4922 369.68 33.6953C370.143 33.8984 370.505 34.2031 370.766 34.6094C371.026 35.0156 371.156 35.526 371.156 36.1406V40.2266C371.156 40.5182 371.177 40.8203 371.219 41.1328C371.266 41.4453 371.331 41.7031 371.414 41.9062V42H370.422C370.359 41.8125 370.31 41.5781 370.273 41.2969C370.242 41.0104 370.227 40.7396 370.227 40.4844ZM370.445 37.0781L370.461 37.7969H368.625C368.146 37.7969 367.716 37.8411 367.336 37.9297C366.961 38.013 366.643 38.138 366.383 38.3047C366.122 38.4661 365.922 38.6615 365.781 38.8906C365.646 39.1198 365.578 39.3802 365.578 39.6719C365.578 39.974 365.654 40.25 365.805 40.5C365.961 40.75 366.18 40.9505 366.461 41.1016C366.747 41.2474 367.086 41.3203 367.477 41.3203C367.997 41.3203 368.456 41.224 368.852 41.0312C369.253 40.8385 369.583 40.5859 369.844 40.2734C370.104 39.9609 370.279 39.6198 370.367 39.25L370.773 39.7891C370.706 40.0495 370.581 40.3177 370.398 40.5938C370.221 40.8646 369.99 41.1198 369.703 41.3594C369.417 41.5938 369.078 41.7865 368.688 41.9375C368.302 42.0833 367.865 42.1562 367.375 42.1562C366.823 42.1562 366.341 42.0521 365.93 41.8438C365.523 41.6354 365.206 41.3516 364.977 40.9922C364.753 40.6276 364.641 40.2161 364.641 39.7578C364.641 39.3411 364.729 38.9688 364.906 38.6406C365.083 38.3073 365.339 38.026 365.672 37.7969C366.01 37.5625 366.417 37.3854 366.891 37.2656C367.37 37.1406 367.906 37.0781 368.5 37.0781H370.445ZM377.359 33.5469V34.3125H373.125V33.5469H377.359ZM374.68 31.375H375.609V39.9453C375.609 40.3359 375.661 40.6302 375.766 40.8281C375.87 41.026 376.005 41.1589 376.172 41.2266C376.339 41.2943 376.518 41.3281 376.711 41.3281C376.852 41.3281 376.987 41.3203 377.117 41.3047C377.247 41.2839 377.365 41.263 377.469 41.2422L377.508 42.0312C377.393 42.0677 377.245 42.0964 377.062 42.1172C376.88 42.1432 376.698 42.1562 376.516 42.1562C376.156 42.1562 375.839 42.0911 375.562 41.9609C375.286 41.8255 375.07 41.5964 374.914 41.2734C374.758 40.9453 374.68 40.5 374.68 39.9375V31.375ZM380.859 33.5469V42H379.93V33.5469H380.859ZM379.766 31.1016C379.766 30.9245 379.82 30.776 379.93 30.6562C380.044 30.5312 380.201 30.4688 380.398 30.4688C380.596 30.4688 380.753 30.5312 380.867 30.6562C380.987 30.776 381.047 30.9245 381.047 31.1016C381.047 31.2734 380.987 31.4219 380.867 31.5469C380.753 31.6667 380.596 31.7266 380.398 31.7266C380.201 31.7266 380.044 31.6667 379.93 31.5469C379.82 31.4219 379.766 31.2734 379.766 31.1016ZM383.398 37.9062V37.6484C383.398 37.0339 383.487 36.4661 383.664 35.9453C383.841 35.4245 384.094 34.974 384.422 34.5938C384.755 34.2135 385.154 33.9193 385.617 33.7109C386.081 33.4974 386.596 33.3906 387.164 33.3906C387.737 33.3906 388.255 33.4974 388.719 33.7109C389.182 33.9193 389.581 34.2135 389.914 34.5938C390.247 34.974 390.503 35.4245 390.68 35.9453C390.857 36.4661 390.945 37.0339 390.945 37.6484V37.9062C390.945 38.5208 390.857 39.0885 390.68 39.6094C390.503 40.125 390.247 40.5729 389.914 40.9531C389.586 41.3333 389.19 41.6302 388.727 41.8438C388.263 42.0521 387.747 42.1562 387.18 42.1562C386.607 42.1562 386.089 42.0521 385.625 41.8438C385.161 41.6302 384.763 41.3333 384.43 40.9531C384.096 40.5729 383.841 40.125 383.664 39.6094C383.487 39.0885 383.398 38.5208 383.398 37.9062ZM384.328 37.6484V37.9062C384.328 38.3698 384.391 38.8099 384.516 39.2266C384.641 39.638 384.823 40.0052 385.062 40.3281C385.302 40.6458 385.599 40.8958 385.953 41.0781C386.307 41.2604 386.716 41.3516 387.18 41.3516C387.638 41.3516 388.042 41.2604 388.391 41.0781C388.745 40.8958 389.042 40.6458 389.281 40.3281C389.521 40.0052 389.701 39.638 389.82 39.2266C389.945 38.8099 390.008 38.3698 390.008 37.9062V37.6484C390.008 37.1901 389.945 36.7552 389.82 36.3438C389.701 35.9323 389.518 35.5651 389.273 35.2422C389.034 34.9193 388.737 34.6641 388.383 34.4766C388.029 34.2891 387.622 34.1953 387.164 34.1953C386.706 34.1953 386.299 34.2891 385.945 34.4766C385.596 34.6641 385.299 34.9193 385.055 35.2422C384.815 35.5651 384.633 35.9323 384.508 36.3438C384.388 36.7552 384.328 37.1901 384.328 37.6484ZM394.312 35.3516V42H393.383V33.5469H394.273L394.312 35.3516ZM394.102 37.25L393.688 37.0156C393.719 36.5156 393.82 36.0469 393.992 35.6094C394.164 35.1719 394.396 34.7865 394.688 34.4531C394.984 34.1198 395.331 33.8594 395.727 33.6719C396.128 33.4844 396.57 33.3906 397.055 33.3906C397.477 33.3906 397.854 33.4479 398.188 33.5625C398.521 33.6771 398.805 33.8594 399.039 34.1094C399.273 34.3594 399.451 34.6797 399.57 35.0703C399.695 35.4609 399.758 35.9375 399.758 36.5V42H398.82V36.4922C398.82 35.9089 398.74 35.4531 398.578 35.125C398.417 34.7917 398.188 34.5547 397.891 34.4141C397.594 34.2734 397.242 34.2031 396.836 34.2031C396.388 34.2031 395.995 34.3021 395.656 34.5C395.323 34.6927 395.042 34.9453 394.812 35.2578C394.589 35.5651 394.417 35.8958 394.297 36.25C394.177 36.599 394.112 36.9323 394.102 37.25ZM69.1016 61.5156V61.3984C69.1016 60.3828 69.2083 59.4323 69.4219 58.5469C69.6354 57.6615 69.9141 56.8646 70.2578 56.1562C70.6068 55.4479 70.987 54.8464 71.3984 54.3516C71.8151 53.8516 72.224 53.4818 72.625 53.2422L72.8516 53.8828C72.5078 54.1276 72.1667 54.4818 71.8281 54.9453C71.4948 55.4089 71.1927 55.9661 70.9219 56.6172C70.651 57.2682 70.4349 57.9948 70.2734 58.7969C70.112 59.599 70.0312 60.4583 70.0312 61.375V61.5312C70.0312 62.4479 70.112 63.3073 70.2734 64.1094C70.4349 64.9115 70.651 65.638 70.9219 66.2891C71.1927 66.9453 71.4948 67.5078 71.8281 67.9766C72.1667 68.4505 72.5078 68.8151 72.8516 69.0703L72.625 69.6719C72.224 69.4323 71.8151 69.0677 71.3984 68.5781C70.987 68.0938 70.6068 67.5 70.2578 66.7969C69.9141 66.099 69.6354 65.3047 69.4219 64.4141C69.2083 63.5234 69.1016 62.5573 69.1016 61.5156ZM83.2578 60.5938V64.6406C83.1276 64.8333 82.9036 65.0469 82.5859 65.2812C82.2682 65.5156 81.8411 65.7214 81.3047 65.8984C80.7682 66.0703 80.1016 66.1562 79.3047 66.1562C78.638 66.1562 78.026 66.0365 77.4688 65.7969C76.9115 65.5573 76.4271 65.2109 76.0156 64.7578C75.6094 64.2995 75.2943 63.75 75.0703 63.1094C74.8516 62.4688 74.7422 61.75 74.7422 60.9531V59.5781C74.7422 58.7969 74.8438 58.0938 75.0469 57.4688C75.25 56.8385 75.5443 56.2995 75.9297 55.8516C76.3151 55.4036 76.7786 55.0625 77.3203 54.8281C77.8672 54.5885 78.4792 54.4688 79.1562 54.4688C80 54.4688 80.7109 54.6146 81.2891 54.9062C81.8672 55.1979 82.3177 55.599 82.6406 56.1094C82.9688 56.6146 83.1719 57.1875 83.25 57.8281H82.2891C82.2161 57.375 82.0651 56.9583 81.8359 56.5781C81.6068 56.1927 81.2734 55.8828 80.8359 55.6484C80.4036 55.4141 79.8438 55.2969 79.1562 55.2969C78.6042 55.2969 78.112 55.3984 77.6797 55.6016C77.2526 55.8047 76.8932 56.0938 76.6016 56.4688C76.3099 56.8438 76.0885 57.2943 75.9375 57.8203C75.7865 58.3411 75.7109 58.9219 75.7109 59.5625V60.9531C75.7109 61.6198 75.7943 62.2214 75.9609 62.7578C76.1328 63.2943 76.3776 63.7552 76.6953 64.1406C77.013 64.526 77.3932 64.8229 77.8359 65.0312C78.2786 65.2344 78.7708 65.3359 79.3125 65.3359C79.8906 65.3359 80.3828 65.2812 80.7891 65.1719C81.1953 65.0625 81.5208 64.9323 81.7656 64.7812C82.0156 64.625 82.1953 64.4792 82.3047 64.3438V61.4141H79.25V60.5938H83.2578ZM89.0781 61.3984V61.5156C89.0781 62.5573 88.9714 63.5234 88.7578 64.4141C88.5443 65.3047 88.263 66.099 87.9141 66.7969C87.5651 67.5 87.1849 68.0938 86.7734 68.5781C86.362 69.0677 85.9531 69.4323 85.5469 69.6719L85.3203 69.0703C85.6693 68.8255 86.0104 68.4688 86.3438 68C86.6771 67.5312 86.9792 66.9661 87.25 66.3047C87.526 65.6484 87.7448 64.9193 87.9062 64.1172C88.0677 63.3099 88.1484 62.4479 88.1484 61.5312V61.375C88.1484 60.4583 88.0651 59.599 87.8984 58.7969C87.7318 57.9896 87.5104 57.2578 87.2344 56.6016C86.9583 55.9453 86.6536 55.3828 86.3203 54.9141C85.987 54.4453 85.6536 54.0911 85.3203 53.8516L85.5469 53.2422C85.9531 53.4818 86.362 53.8516 86.7734 54.3516C87.1849 54.8464 87.5651 55.4479 87.9141 56.1562C88.263 56.8646 88.5443 57.6615 88.7578 58.5469C88.9714 59.4323 89.0781 60.3828 89.0781 61.3984ZM98.2344 59.8672L100.062 58.4922C100.396 58.2474 100.669 57.9844 100.883 57.7031C101.102 57.4167 101.211 57.0807 101.211 56.6953C101.211 56.3255 101.078 55.9948 100.812 55.7031C100.547 55.4115 100.164 55.2656 99.6641 55.2656C99.2995 55.2656 98.9922 55.3464 98.7422 55.5078C98.4922 55.6641 98.3047 55.8776 98.1797 56.1484C98.0547 56.4141 97.9922 56.7057 97.9922 57.0234C97.9922 57.2734 98.0417 57.5339 98.1406 57.8047C98.2448 58.0703 98.3906 58.349 98.5781 58.6406C98.7708 58.9271 99.0026 59.2292 99.2734 59.5469L104.805 66H103.68L98.9688 60.5234C98.5833 60.0755 98.2448 59.6615 97.9531 59.2812C97.6667 58.901 97.4453 58.5312 97.2891 58.1719C97.1328 57.8125 97.0547 57.4401 97.0547 57.0547C97.0547 56.5182 97.1615 56.0573 97.375 55.6719C97.5885 55.2865 97.8906 54.9896 98.2812 54.7812C98.6719 54.5677 99.1328 54.4609 99.6641 54.4609C100.174 54.4609 100.609 54.5651 100.969 54.7734C101.333 54.9766 101.612 55.2474 101.805 55.5859C101.997 55.9193 102.094 56.2891 102.094 56.6953C102.094 57.0339 102.018 57.349 101.867 57.6406C101.721 57.9323 101.531 58.1979 101.297 58.4375C101.068 58.6719 100.826 58.888 100.57 59.0859L98.4922 60.6875C98.0443 61.0469 97.7109 61.3776 97.4922 61.6797C97.2786 61.9818 97.138 62.25 97.0703 62.4844C97.0026 62.7188 96.9688 62.9219 96.9688 63.0938C96.9688 63.4948 97.0625 63.8672 97.25 64.2109C97.4375 64.5547 97.724 64.8307 98.1094 65.0391C98.4948 65.2474 98.9792 65.3516 99.5625 65.3516C100.052 65.3516 100.526 65.2474 100.984 65.0391C101.443 64.8255 101.852 64.5234 102.211 64.1328C102.576 63.737 102.862 63.2682 103.07 62.7266C103.284 62.1797 103.391 61.5729 103.391 60.9062H104.25C104.25 61.401 104.201 61.8646 104.102 62.2969C104.008 62.7292 103.867 63.1276 103.68 63.4922C103.492 63.8568 103.26 64.1927 102.984 64.5C102.943 64.5521 102.914 64.5938 102.898 64.625C102.888 64.6562 102.862 64.6927 102.82 64.7344C102.404 65.1719 101.914 65.5182 101.352 65.7734C100.789 66.0286 100.193 66.1562 99.5625 66.1562C98.8385 66.1562 98.2109 66.0286 97.6797 65.7734C97.1536 65.5182 96.7474 65.1615 96.4609 64.7031C96.1797 64.2396 96.0391 63.7031 96.0391 63.0938C96.0391 62.6406 96.1354 62.2292 96.3281 61.8594C96.5208 61.4896 96.7839 61.1432 97.1172 60.8203C97.4505 60.4974 97.8229 60.1797 98.2344 59.8672ZM116.391 54.5391H116.523V55.3594H116.391C115.672 55.3594 115.031 55.4766 114.469 55.7109C113.911 55.9453 113.44 56.2839 113.055 56.7266C112.674 57.1641 112.385 57.6953 112.188 58.3203C111.99 58.9453 111.891 59.6458 111.891 60.4219V61.9922C111.891 62.5182 111.961 62.9896 112.102 63.4062C112.242 63.8177 112.438 64.1693 112.688 64.4609C112.938 64.7526 113.229 64.974 113.562 65.125C113.896 65.276 114.255 65.3516 114.641 65.3516C115.021 65.3516 115.362 65.2734 115.664 65.1172C115.966 64.9609 116.221 64.7422 116.43 64.4609C116.643 64.1797 116.805 63.8568 116.914 63.4922C117.029 63.1224 117.086 62.7266 117.086 62.3047C117.086 61.9036 117.034 61.526 116.93 61.1719C116.831 60.8125 116.677 60.4948 116.469 60.2188C116.26 59.9427 116 59.7266 115.688 59.5703C115.375 59.4141 115.008 59.3359 114.586 59.3359C114.107 59.3359 113.659 59.4453 113.242 59.6641C112.826 59.8828 112.484 60.1745 112.219 60.5391C111.958 60.9036 111.82 61.3021 111.805 61.7344L111.266 61.7266C111.302 61.237 111.414 60.7969 111.602 60.4062C111.789 60.0104 112.036 59.6745 112.344 59.3984C112.656 59.1172 113.013 58.9036 113.414 58.7578C113.82 58.6068 114.258 58.5312 114.727 58.5312C115.273 58.5312 115.75 58.6302 116.156 58.8281C116.568 59.026 116.909 59.2995 117.18 59.6484C117.456 59.9922 117.661 60.3906 117.797 60.8438C117.938 61.2917 118.008 61.7656 118.008 62.2656C118.008 62.8125 117.93 63.3229 117.773 63.7969C117.622 64.2656 117.398 64.6771 117.102 65.0312C116.81 65.3854 116.456 65.6615 116.039 65.8594C115.628 66.0573 115.161 66.1562 114.641 66.1562C114.068 66.1562 113.555 66.0469 113.102 65.8281C112.648 65.6094 112.26 65.3073 111.938 64.9219C111.62 64.5365 111.375 64.0938 111.203 63.5938C111.036 63.0885 110.953 62.5495 110.953 61.9766V60.9766C110.953 60.0078 111.065 59.1302 111.289 58.3438C111.513 57.5521 111.849 56.8724 112.297 56.3047C112.75 55.737 113.315 55.3021 113.992 55C114.674 54.6927 115.474 54.5391 116.391 54.5391ZM127.242 59.3359V61.25C127.242 62.0833 127.164 62.8099 127.008 63.4297C126.852 64.0443 126.622 64.5547 126.32 64.9609C126.023 65.362 125.659 65.6615 125.227 65.8594C124.799 66.0573 124.31 66.1562 123.758 66.1562C123.32 66.1562 122.919 66.0938 122.555 65.9688C122.19 65.8438 121.865 65.6536 121.578 65.3984C121.297 65.138 121.057 64.8125 120.859 64.4219C120.661 64.0312 120.51 63.5729 120.406 63.0469C120.302 62.5156 120.25 61.9167 120.25 61.25V59.3359C120.25 58.4974 120.328 57.7734 120.484 57.1641C120.646 56.5547 120.875 56.0495 121.172 55.6484C121.474 55.2474 121.841 54.9505 122.273 54.7578C122.706 54.5599 123.195 54.4609 123.742 54.4609C124.18 54.4609 124.581 54.526 124.945 54.6562C125.315 54.7812 125.641 54.9688 125.922 55.2188C126.208 55.4688 126.448 55.7891 126.641 56.1797C126.839 56.5651 126.987 57.0208 127.086 57.5469C127.19 58.0729 127.242 58.6693 127.242 59.3359ZM126.312 61.3594V59.2188C126.312 58.7031 126.276 58.2344 126.203 57.8125C126.135 57.3906 126.034 57.0208 125.898 56.7031C125.763 56.3854 125.591 56.1198 125.383 55.9062C125.18 55.6927 124.94 55.5339 124.664 55.4297C124.393 55.3203 124.086 55.2656 123.742 55.2656C123.32 55.2656 122.948 55.3516 122.625 55.5234C122.307 55.6901 122.042 55.9401 121.828 56.2734C121.615 56.6016 121.453 57.013 121.344 57.5078C121.24 58.0026 121.188 58.5729 121.188 59.2188V61.3594C121.188 61.8698 121.221 62.3359 121.289 62.7578C121.357 63.1745 121.461 63.5443 121.602 63.8672C121.742 64.1901 121.914 64.4635 122.117 64.6875C122.326 64.9062 122.565 65.0729 122.836 65.1875C123.112 65.2969 123.419 65.3516 123.758 65.3516C124.19 65.3516 124.565 65.2656 124.883 65.0938C125.201 64.9167 125.466 64.6589 125.68 64.3203C125.893 63.9766 126.052 63.5573 126.156 63.0625C126.26 62.5625 126.312 61.9948 126.312 61.3594ZM135.203 59.2969V66H134.266V57.5469H135.164L135.203 59.2969ZM135.031 61.25L134.578 61.0156C134.609 60.5156 134.703 60.0469 134.859 59.6094C135.021 59.1719 135.245 58.7865 135.531 58.4531C135.818 58.1198 136.161 57.8594 136.562 57.6719C136.964 57.4844 137.419 57.3906 137.93 57.3906C138.341 57.3906 138.714 57.4479 139.047 57.5625C139.385 57.6719 139.672 57.8464 139.906 58.0859C140.146 58.3203 140.331 58.6276 140.461 59.0078C140.591 59.388 140.656 59.8438 140.656 60.375V66H139.727V60.4062C139.727 59.8438 139.638 59.4036 139.461 59.0859C139.289 58.7682 139.047 58.5417 138.734 58.4062C138.427 58.2708 138.07 58.2031 137.664 58.2031C137.185 58.2031 136.779 58.3021 136.445 58.5C136.117 58.6927 135.849 58.9453 135.641 59.2578C135.438 59.5651 135.286 59.8958 135.188 60.25C135.089 60.599 135.036 60.9323 135.031 61.25ZM140.648 60.5156L140.023 60.5312C140.049 60.1198 140.143 59.7266 140.305 59.3516C140.471 58.9766 140.698 58.6432 140.984 58.3516C141.271 58.0547 141.612 57.8203 142.008 57.6484C142.409 57.4766 142.859 57.3906 143.359 57.3906C143.797 57.3906 144.188 57.4505 144.531 57.5703C144.875 57.6849 145.164 57.8698 145.398 58.125C145.638 58.375 145.82 58.6953 145.945 59.0859C146.07 59.4766 146.133 59.9453 146.133 60.4922V66H145.195V60.4844C145.195 59.8854 145.107 59.4219 144.93 59.0938C144.758 58.7604 144.518 58.5286 144.211 58.3984C143.904 58.2682 143.544 58.2031 143.133 58.2031C142.727 58.2083 142.37 58.2839 142.062 58.4297C141.755 58.5703 141.497 58.7578 141.289 58.9922C141.086 59.2214 140.93 59.4688 140.82 59.7344C140.716 60 140.659 60.2604 140.648 60.5156ZM148.492 61.9062V61.6484C148.492 61.0339 148.581 60.4661 148.758 59.9453C148.935 59.4245 149.188 58.974 149.516 58.5938C149.849 58.2135 150.247 57.9193 150.711 57.7109C151.174 57.4974 151.69 57.3906 152.258 57.3906C152.831 57.3906 153.349 57.4974 153.812 57.7109C154.276 57.9193 154.674 58.2135 155.008 58.5938C155.341 58.974 155.596 59.4245 155.773 59.9453C155.951 60.4661 156.039 61.0339 156.039 61.6484V61.9062C156.039 62.5208 155.951 63.0885 155.773 63.6094C155.596 64.125 155.341 64.5729 155.008 64.9531C154.68 65.3333 154.284 65.6302 153.82 65.8438C153.357 66.0521 152.841 66.1562 152.273 66.1562C151.701 66.1562 151.182 66.0521 150.719 65.8438C150.255 65.6302 149.857 65.3333 149.523 64.9531C149.19 64.5729 148.935 64.125 148.758 63.6094C148.581 63.0885 148.492 62.5208 148.492 61.9062ZM149.422 61.6484V61.9062C149.422 62.3698 149.484 62.8099 149.609 63.2266C149.734 63.638 149.917 64.0052 150.156 64.3281C150.396 64.6458 150.693 64.8958 151.047 65.0781C151.401 65.2604 151.81 65.3516 152.273 65.3516C152.732 65.3516 153.135 65.2604 153.484 65.0781C153.839 64.8958 154.135 64.6458 154.375 64.3281C154.615 64.0052 154.794 63.638 154.914 63.2266C155.039 62.8099 155.102 62.3698 155.102 61.9062V61.6484C155.102 61.1901 155.039 60.7552 154.914 60.3438C154.794 59.9323 154.612 59.5651 154.367 59.2422C154.128 58.9193 153.831 58.6641 153.477 58.4766C153.122 58.2891 152.716 58.1953 152.258 58.1953C151.799 58.1953 151.393 58.2891 151.039 58.4766C150.69 58.6641 150.393 58.9193 150.148 59.2422C149.909 59.5651 149.727 59.9323 149.602 60.3438C149.482 60.7552 149.422 61.1901 149.422 61.6484ZM159.406 58.9453V66H158.477V57.5469H159.383L159.406 58.9453ZM162.398 57.4844L162.375 58.3438C162.271 58.3281 162.169 58.3151 162.07 58.3047C161.971 58.2943 161.865 58.2891 161.75 58.2891C161.344 58.2891 160.987 58.3646 160.68 58.5156C160.378 58.6615 160.122 58.8672 159.914 59.1328C159.706 59.3932 159.547 59.7005 159.438 60.0547C159.328 60.4036 159.266 60.7786 159.25 61.1797L158.906 61.3125C158.906 60.7604 158.964 60.2474 159.078 59.7734C159.193 59.2995 159.367 58.8854 159.602 58.5312C159.841 58.1719 160.141 57.8932 160.5 57.6953C160.865 57.4922 161.292 57.3906 161.781 57.3906C161.901 57.3906 162.018 57.401 162.133 57.4219C162.253 57.4375 162.341 57.4583 162.398 57.4844ZM167.477 66.1562C166.924 66.1562 166.417 66.0547 165.953 65.8516C165.495 65.6484 165.094 65.362 164.75 64.9922C164.411 64.6224 164.148 64.1849 163.961 63.6797C163.779 63.1693 163.688 62.612 163.688 62.0078V61.6719C163.688 61.0208 163.784 60.4323 163.977 59.9062C164.169 59.3802 164.435 58.9297 164.773 58.5547C165.112 58.1797 165.497 57.8932 165.93 57.6953C166.367 57.4922 166.826 57.3906 167.305 57.3906C167.841 57.3906 168.318 57.487 168.734 57.6797C169.151 57.8672 169.5 58.1354 169.781 58.4844C170.068 58.8281 170.284 59.237 170.43 59.7109C170.576 60.1797 170.648 60.6979 170.648 61.2656V61.8359H164.25V61.0391H169.719V60.9297C169.708 60.4557 169.612 60.013 169.43 59.6016C169.253 59.1849 168.987 58.8464 168.633 58.5859C168.279 58.3255 167.836 58.1953 167.305 58.1953C166.909 58.1953 166.544 58.2786 166.211 58.4453C165.883 58.612 165.599 58.8516 165.359 59.1641C165.125 59.4714 164.943 59.8385 164.812 60.2656C164.688 60.6875 164.625 61.1562 164.625 61.6719V62.0078C164.625 62.4766 164.693 62.9141 164.828 63.3203C164.969 63.7214 165.167 64.0755 165.422 64.3828C165.682 64.6901 165.99 64.9297 166.344 65.1016C166.698 65.2734 167.089 65.3594 167.516 65.3594C168.016 65.3594 168.458 65.2682 168.844 65.0859C169.229 64.8984 169.576 64.6042 169.883 64.2031L170.469 64.6562C170.286 64.9271 170.057 65.1771 169.781 65.4062C169.51 65.6354 169.185 65.8177 168.805 65.9531C168.424 66.0885 167.982 66.1562 167.477 66.1562Z" fill="black"/>
<path d="M74.5469 6.55469H74.7812V8.09375H74.6484C73.9766 8.09375 73.3958 8.19792 72.9062 8.40625C72.4219 8.61458 72.0234 8.90104 71.7109 9.26562C71.3984 9.63021 71.1641 10.0573 71.0078 10.5469C70.8568 11.0312 70.7812 11.5469 70.7812 12.0938V13.8828C70.7812 14.3359 70.8307 14.737 70.9297 15.0859C71.0286 15.4297 71.1667 15.7188 71.3438 15.9531C71.526 16.1823 71.7344 16.3568 71.9688 16.4766C72.2031 16.5964 72.4557 16.6562 72.7266 16.6562C73.0078 16.6562 73.263 16.599 73.4922 16.4844C73.7214 16.3646 73.9167 16.2005 74.0781 15.9922C74.2396 15.7839 74.362 15.5365 74.4453 15.25C74.5286 14.9635 74.5703 14.651 74.5703 14.3125C74.5703 13.9896 74.5286 13.6875 74.4453 13.4062C74.3672 13.1198 74.25 12.8698 74.0938 12.6562C73.9375 12.4375 73.7422 12.2682 73.5078 12.1484C73.2786 12.0234 73.013 11.9609 72.7109 11.9609C72.3359 11.9609 71.9948 12.0495 71.6875 12.2266C71.3854 12.4036 71.1406 12.6354 70.9531 12.9219C70.7708 13.2031 70.6719 13.5026 70.6562 13.8203L69.9375 13.5859C69.9792 13.1016 70.0859 12.6667 70.2578 12.2812C70.4349 11.8958 70.6667 11.5677 70.9531 11.2969C71.2396 11.026 71.5703 10.8203 71.9453 10.6797C72.3255 10.5339 72.7422 10.4609 73.1953 10.4609C73.7474 10.4609 74.2266 10.5651 74.6328 10.7734C75.0391 10.9818 75.375 11.2656 75.6406 11.625C75.9115 11.9792 76.112 12.3854 76.2422 12.8438C76.3776 13.2969 76.4453 13.7708 76.4453 14.2656C76.4453 14.8125 76.362 15.3229 76.1953 15.7969C76.0286 16.2656 75.7839 16.6771 75.4609 17.0312C75.1432 17.3854 74.7552 17.6615 74.2969 17.8594C73.8438 18.0573 73.3281 18.1562 72.75 18.1562C72.1406 18.1562 71.5964 18.0391 71.1172 17.8047C70.6432 17.5703 70.2396 17.2474 69.9062 16.8359C69.5781 16.4245 69.3281 15.9505 69.1562 15.4141C68.9844 14.8776 68.8984 14.3099 68.8984 13.7109V12.9297C68.8984 12.0651 69.0078 11.25 69.2266 10.4844C69.4453 9.71354 69.7812 9.03385 70.2344 8.44531C70.6927 7.85677 71.2786 7.39583 71.9922 7.0625C72.7057 6.72396 73.5573 6.55469 74.5469 6.55469ZM83.5938 6.58594V18H81.7109V8.82031L78.9219 9.76562V8.21094L83.3672 6.58594H83.5938ZM98.8125 15.0703C98.8125 14.8359 98.776 14.6276 98.7031 14.4453C98.6354 14.263 98.513 14.0964 98.3359 13.9453C98.1589 13.7943 97.9089 13.6484 97.5859 13.5078C97.2682 13.362 96.862 13.2135 96.3672 13.0625C95.8255 12.8958 95.3255 12.7109 94.8672 12.5078C94.4141 12.2995 94.0182 12.0599 93.6797 11.7891C93.3411 11.513 93.0781 11.1979 92.8906 10.8438C92.7031 10.4844 92.6094 10.0703 92.6094 9.60156C92.6094 9.13802 92.7057 8.71615 92.8984 8.33594C93.0964 7.95573 93.375 7.6276 93.7344 7.35156C94.099 7.07031 94.5286 6.85417 95.0234 6.70312C95.5182 6.54688 96.0651 6.46875 96.6641 6.46875C97.5078 6.46875 98.2344 6.625 98.8438 6.9375C99.4583 7.25 99.9297 7.66927 100.258 8.19531C100.591 8.72135 100.758 9.30208 100.758 9.9375H98.8125C98.8125 9.5625 98.7318 9.23177 98.5703 8.94531C98.4141 8.65365 98.1745 8.42448 97.8516 8.25781C97.5339 8.09115 97.1302 8.00781 96.6406 8.00781C96.1771 8.00781 95.7917 8.07812 95.4844 8.21875C95.1771 8.35938 94.9479 8.54948 94.7969 8.78906C94.6458 9.02865 94.5703 9.29948 94.5703 9.60156C94.5703 9.8151 94.6198 10.0104 94.7188 10.1875C94.8177 10.3594 94.9688 10.5208 95.1719 10.6719C95.375 10.8177 95.6302 10.9557 95.9375 11.0859C96.2448 11.2161 96.6068 11.3411 97.0234 11.4609C97.6536 11.6484 98.2031 11.8568 98.6719 12.0859C99.1406 12.3099 99.5312 12.5651 99.8438 12.8516C100.156 13.138 100.391 13.4635 100.547 13.8281C100.703 14.1875 100.781 14.5964 100.781 15.0547C100.781 15.5339 100.685 15.9661 100.492 16.3516C100.299 16.7318 100.023 17.0573 99.6641 17.3281C99.3099 17.5938 98.8828 17.7995 98.3828 17.9453C97.888 18.0859 97.3359 18.1562 96.7266 18.1562C96.1797 18.1562 95.6406 18.0833 95.1094 17.9375C94.5833 17.7917 94.1042 17.5703 93.6719 17.2734C93.2396 16.9714 92.8958 16.5964 92.6406 16.1484C92.3854 15.6953 92.2578 15.1667 92.2578 14.5625H94.2188C94.2188 14.9323 94.2812 15.2474 94.4062 15.5078C94.5365 15.7682 94.7161 15.9818 94.9453 16.1484C95.1745 16.3099 95.4401 16.4297 95.7422 16.5078C96.0495 16.5859 96.3776 16.625 96.7266 16.625C97.1849 16.625 97.5677 16.5599 97.875 16.4297C98.1875 16.2995 98.4219 16.1172 98.5781 15.8828C98.7344 15.6484 98.8125 15.3776 98.8125 15.0703ZM105.109 6.625V18H103.148V6.625H105.109ZM112.367 13.7578H109.406V12.2031H112.367C112.883 12.2031 113.299 12.1198 113.617 11.9531C113.935 11.7865 114.167 11.5573 114.312 11.2656C114.464 10.9688 114.539 10.6302 114.539 10.25C114.539 9.89062 114.464 9.55469 114.312 9.24219C114.167 8.92448 113.935 8.66927 113.617 8.47656C113.299 8.28385 112.883 8.1875 112.367 8.1875H110.008V18H108.047V6.625H112.367C113.247 6.625 113.995 6.78125 114.609 7.09375C115.229 7.40104 115.701 7.82812 116.023 8.375C116.346 8.91667 116.508 9.53646 116.508 10.2344C116.508 10.9688 116.346 11.599 116.023 12.125C115.701 12.651 115.229 13.0547 114.609 13.3359C113.995 13.6172 113.247 13.7578 112.367 13.7578ZM120.367 6V7.10156C120.367 7.42969 120.307 7.77083 120.188 8.125C120.073 8.47396 119.911 8.8099 119.703 9.13281C119.495 9.45052 119.255 9.72656 118.984 9.96094L118.039 9.36719C118.253 9.04427 118.424 8.70312 118.555 8.34375C118.69 7.97917 118.758 7.57031 118.758 7.11719V6H120.367ZM126.055 15.7109C126.055 15.5234 126.008 15.3542 125.914 15.2031C125.82 15.0469 125.641 14.9062 125.375 14.7812C125.115 14.6562 124.729 14.5417 124.219 14.4375C123.771 14.3385 123.359 14.2214 122.984 14.0859C122.615 13.9453 122.297 13.776 122.031 13.5781C121.766 13.3802 121.56 13.1458 121.414 12.875C121.268 12.6042 121.195 12.2917 121.195 11.9375C121.195 11.5938 121.271 11.2682 121.422 10.9609C121.573 10.6536 121.789 10.3828 122.07 10.1484C122.352 9.91406 122.693 9.72917 123.094 9.59375C123.5 9.45833 123.953 9.39062 124.453 9.39062C125.161 9.39062 125.768 9.51042 126.273 9.75C126.784 9.98438 127.174 10.3047 127.445 10.7109C127.716 11.112 127.852 11.5651 127.852 12.0703H125.969C125.969 11.8464 125.911 11.638 125.797 11.4453C125.688 11.2474 125.521 11.0885 125.297 10.9688C125.073 10.8438 124.792 10.7812 124.453 10.7812C124.13 10.7812 123.862 10.8333 123.648 10.9375C123.44 11.0365 123.284 11.1667 123.18 11.3281C123.081 11.4896 123.031 11.6667 123.031 11.8594C123.031 12 123.057 12.1276 123.109 12.2422C123.167 12.3516 123.26 12.4531 123.391 12.5469C123.521 12.6354 123.698 12.7188 123.922 12.7969C124.151 12.875 124.438 12.9505 124.781 13.0234C125.427 13.1589 125.982 13.3333 126.445 13.5469C126.914 13.7552 127.273 14.026 127.523 14.3594C127.773 14.6875 127.898 15.1042 127.898 15.6094C127.898 15.9844 127.818 16.3281 127.656 16.6406C127.5 16.9479 127.271 17.2161 126.969 17.4453C126.667 17.6693 126.305 17.8438 125.883 17.9688C125.466 18.0938 124.997 18.1562 124.477 18.1562C123.711 18.1562 123.062 18.0208 122.531 17.75C122 17.474 121.596 17.1224 121.32 16.6953C121.049 16.263 120.914 15.8151 120.914 15.3516H122.734C122.755 15.7005 122.852 15.9792 123.023 16.1875C123.201 16.3906 123.419 16.5391 123.68 16.6328C123.945 16.7214 124.219 16.7656 124.5 16.7656C124.839 16.7656 125.122 16.7214 125.352 16.6328C125.581 16.5391 125.755 16.4141 125.875 16.2578C125.995 16.0964 126.055 15.9141 126.055 15.7109ZM139.148 8.14062L135.75 18H133.695L137.977 6.625H139.289L139.148 8.14062ZM141.992 18L138.586 8.14062L138.438 6.625H139.758L144.055 18H141.992ZM141.828 13.7812V15.3359H135.641V13.7812H141.828ZM149.094 16.6562C149.401 16.6562 149.677 16.5964 149.922 16.4766C150.172 16.3516 150.372 16.1797 150.523 15.9609C150.68 15.7422 150.766 15.4896 150.781 15.2031H152.555C152.544 15.75 152.383 16.2474 152.07 16.6953C151.758 17.1432 151.344 17.5 150.828 17.7656C150.312 18.026 149.742 18.1562 149.117 18.1562C148.471 18.1562 147.909 18.0469 147.43 17.8281C146.951 17.6042 146.552 17.2969 146.234 16.9062C145.917 16.5156 145.677 16.0651 145.516 15.5547C145.359 15.0443 145.281 14.4974 145.281 13.9141V13.6406C145.281 13.0573 145.359 12.5104 145.516 12C145.677 11.4844 145.917 11.0312 146.234 10.6406C146.552 10.25 146.951 9.94531 147.43 9.72656C147.909 9.5026 148.469 9.39062 149.109 9.39062C149.786 9.39062 150.38 9.52604 150.891 9.79688C151.401 10.0625 151.802 10.4349 152.094 10.9141C152.391 11.388 152.544 11.9401 152.555 12.5703H150.781C150.766 12.2578 150.688 11.9766 150.547 11.7266C150.411 11.4714 150.219 11.2682 149.969 11.1172C149.724 10.9661 149.43 10.8906 149.086 10.8906C148.706 10.8906 148.391 10.9688 148.141 11.125C147.891 11.276 147.695 11.4844 147.555 11.75C147.414 12.0104 147.312 12.3047 147.25 12.6328C147.193 12.9557 147.164 13.2917 147.164 13.6406V13.9141C147.164 14.263 147.193 14.6016 147.25 14.9297C147.307 15.2578 147.406 15.5521 147.547 15.8125C147.693 16.0677 147.891 16.2734 148.141 16.4297C148.391 16.5807 148.708 16.6562 149.094 16.6562ZM158.375 9.54688V10.9219H153.609V9.54688H158.375ZM154.984 7.47656H156.867V15.6641C156.867 15.9245 156.904 16.125 156.977 16.2656C157.055 16.401 157.161 16.4922 157.297 16.5391C157.432 16.5859 157.591 16.6094 157.773 16.6094C157.904 16.6094 158.029 16.6016 158.148 16.5859C158.268 16.5703 158.365 16.5547 158.438 16.5391L158.445 17.9766C158.289 18.0234 158.107 18.0651 157.898 18.1016C157.695 18.138 157.461 18.1562 157.195 18.1562C156.763 18.1562 156.38 18.0807 156.047 17.9297C155.714 17.7734 155.453 17.5208 155.266 17.1719C155.078 16.8229 154.984 16.3594 154.984 15.7812V7.47656ZM162.344 9.54688V18H160.453V9.54688H162.344ZM160.328 7.32812C160.328 7.04167 160.422 6.80469 160.609 6.61719C160.802 6.42448 161.068 6.32812 161.406 6.32812C161.74 6.32812 162.003 6.42448 162.195 6.61719C162.388 6.80469 162.484 7.04167 162.484 7.32812C162.484 7.60938 162.388 7.84375 162.195 8.03125C162.003 8.21875 161.74 8.3125 161.406 8.3125C161.068 8.3125 160.802 8.21875 160.609 8.03125C160.422 7.84375 160.328 7.60938 160.328 7.32812ZM167.656 16.5078L169.727 9.54688H171.68L168.742 18H167.523L167.656 16.5078ZM166.07 9.54688L168.18 16.5391L168.281 18H167.062L164.109 9.54688H166.07ZM176.961 18.1562C176.336 18.1562 175.771 18.0547 175.266 17.8516C174.766 17.6432 174.339 17.3542 173.984 16.9844C173.635 16.6146 173.367 16.1797 173.18 15.6797C172.992 15.1797 172.898 14.6406 172.898 14.0625V13.75C172.898 13.0885 172.995 12.4896 173.188 11.9531C173.38 11.4167 173.648 10.9583 173.992 10.5781C174.336 10.1927 174.742 9.89844 175.211 9.69531C175.68 9.49219 176.188 9.39062 176.734 9.39062C177.339 9.39062 177.867 9.49219 178.32 9.69531C178.773 9.89844 179.148 10.1849 179.445 10.5547C179.747 10.9193 179.971 11.3542 180.117 11.8594C180.268 12.3646 180.344 12.9219 180.344 13.5312V14.3359H173.812V12.9844H178.484V12.8359C178.474 12.4974 178.406 12.1797 178.281 11.8828C178.161 11.5859 177.977 11.3464 177.727 11.1641C177.477 10.9818 177.143 10.8906 176.727 10.8906C176.414 10.8906 176.135 10.9583 175.891 11.0938C175.651 11.224 175.451 11.4141 175.289 11.6641C175.128 11.9141 175.003 12.2161 174.914 12.5703C174.831 12.9193 174.789 13.3125 174.789 13.75V14.0625C174.789 14.4323 174.839 14.776 174.938 15.0938C175.042 15.4062 175.193 15.6797 175.391 15.9141C175.589 16.1484 175.828 16.3333 176.109 16.4688C176.391 16.599 176.711 16.6641 177.07 16.6641C177.523 16.6641 177.927 16.5729 178.281 16.3906C178.635 16.2083 178.943 15.9505 179.203 15.6172L180.195 16.5781C180.013 16.8438 179.776 17.099 179.484 17.3438C179.193 17.5833 178.836 17.7786 178.414 17.9297C177.997 18.0807 177.513 18.1562 176.961 18.1562Z" fill="black"/>
<path d="M466.156 5.625H470.18C471.044 5.625 471.781 5.75521 472.391 6.01562C473 6.27604 473.466 6.66146 473.789 7.17188C474.117 7.67708 474.281 8.30208 474.281 9.04688C474.281 9.61458 474.177 10.1146 473.969 10.5469C473.76 10.9792 473.466 11.3438 473.086 11.6406C472.706 11.9323 472.253 12.1589 471.727 12.3203L471.133 12.6094H467.516L467.5 11.0547H470.211C470.68 11.0547 471.07 10.9714 471.383 10.8047C471.695 10.638 471.93 10.4115 472.086 10.125C472.247 9.83333 472.328 9.50521 472.328 9.14062C472.328 8.74479 472.25 8.40104 472.094 8.10938C471.943 7.8125 471.708 7.58594 471.391 7.42969C471.073 7.26823 470.669 7.1875 470.18 7.1875H468.117V17H466.156V5.625ZM472.648 17L469.977 11.8906L472.031 11.8828L474.742 16.8984V17H472.648ZM481.289 14.7109C481.289 14.5234 481.242 14.3542 481.148 14.2031C481.055 14.0469 480.875 13.9062 480.609 13.7812C480.349 13.6562 479.964 13.5417 479.453 13.4375C479.005 13.3385 478.594 13.2214 478.219 13.0859C477.849 12.9453 477.531 12.776 477.266 12.5781C477 12.3802 476.794 12.1458 476.648 11.875C476.503 11.6042 476.43 11.2917 476.43 10.9375C476.43 10.5938 476.505 10.2682 476.656 9.96094C476.807 9.65365 477.023 9.38281 477.305 9.14844C477.586 8.91406 477.927 8.72917 478.328 8.59375C478.734 8.45833 479.188 8.39062 479.688 8.39062C480.396 8.39062 481.003 8.51042 481.508 8.75C482.018 8.98438 482.409 9.30469 482.68 9.71094C482.951 10.112 483.086 10.5651 483.086 11.0703H481.203C481.203 10.8464 481.146 10.638 481.031 10.4453C480.922 10.2474 480.755 10.0885 480.531 9.96875C480.307 9.84375 480.026 9.78125 479.688 9.78125C479.365 9.78125 479.096 9.83333 478.883 9.9375C478.674 10.0365 478.518 10.1667 478.414 10.3281C478.315 10.4896 478.266 10.6667 478.266 10.8594C478.266 11 478.292 11.1276 478.344 11.2422C478.401 11.3516 478.495 11.4531 478.625 11.5469C478.755 11.6354 478.932 11.7188 479.156 11.7969C479.385 11.875 479.672 11.9505 480.016 12.0234C480.661 12.1589 481.216 12.3333 481.68 12.5469C482.148 12.7552 482.508 13.026 482.758 13.3594C483.008 13.6875 483.133 14.1042 483.133 14.6094C483.133 14.9844 483.052 15.3281 482.891 15.6406C482.734 15.9479 482.505 16.2161 482.203 16.4453C481.901 16.6693 481.539 16.8438 481.117 16.9688C480.701 17.0938 480.232 17.1562 479.711 17.1562C478.945 17.1562 478.297 17.0208 477.766 16.75C477.234 16.474 476.831 16.1224 476.555 15.6953C476.284 15.263 476.148 14.8151 476.148 14.3516H477.969C477.99 14.7005 478.086 14.9792 478.258 15.1875C478.435 15.3906 478.654 15.5391 478.914 15.6328C479.18 15.7214 479.453 15.7656 479.734 15.7656C480.073 15.7656 480.357 15.7214 480.586 15.6328C480.815 15.5391 480.99 15.4141 481.109 15.2578C481.229 15.0964 481.289 14.9141 481.289 14.7109ZM497.492 12.9453V14.4453H489.289L489.227 13.3125L494.133 5.625H495.641L494.008 8.42188L491.188 12.9453H497.492ZM496.07 5.625V17H494.188V5.625H496.07ZM500.766 15.5156H500.922C501.641 15.5156 502.24 15.4219 502.719 15.2344C503.203 15.0417 503.589 14.776 503.875 14.4375C504.161 14.099 504.367 13.7005 504.492 13.2422C504.617 12.7839 504.68 12.2865 504.68 11.75V9.78906C504.68 9.32552 504.63 8.91927 504.531 8.57031C504.438 8.21615 504.302 7.92188 504.125 7.6875C503.953 7.44792 503.753 7.26823 503.523 7.14844C503.299 7.02865 503.057 6.96875 502.797 6.96875C502.51 6.96875 502.253 7.03385 502.023 7.16406C501.799 7.28906 501.609 7.46354 501.453 7.6875C501.302 7.90625 501.185 8.16406 501.102 8.46094C501.023 8.7526 500.984 9.0651 500.984 9.39844C500.984 9.71094 501.021 10.013 501.094 10.3047C501.172 10.5911 501.286 10.8464 501.438 11.0703C501.589 11.2943 501.779 11.4714 502.008 11.6016C502.237 11.7318 502.505 11.7969 502.812 11.7969C503.104 11.7969 503.372 11.7422 503.617 11.6328C503.862 11.5182 504.076 11.3646 504.258 11.1719C504.44 10.9792 504.583 10.763 504.688 10.5234C504.792 10.2839 504.849 10.0391 504.859 9.78906L505.578 10.0078C505.578 10.4036 505.495 10.7943 505.328 11.1797C505.167 11.5599 504.94 11.9089 504.648 12.2266C504.362 12.5391 504.026 12.7891 503.641 12.9766C503.26 13.1641 502.846 13.2578 502.398 13.2578C501.857 13.2578 501.378 13.1562 500.961 12.9531C500.549 12.7448 500.206 12.4635 499.93 12.1094C499.659 11.7552 499.456 11.349 499.32 10.8906C499.185 10.4323 499.117 9.95052 499.117 9.44531C499.117 8.89844 499.201 8.38542 499.367 7.90625C499.534 7.42708 499.776 7.00521 500.094 6.64062C500.411 6.27083 500.797 5.98438 501.25 5.78125C501.708 5.57292 502.227 5.46875 502.805 5.46875C503.419 5.46875 503.958 5.58854 504.422 5.82812C504.885 6.06771 505.276 6.39844 505.594 6.82031C505.911 7.24219 506.151 7.73177 506.312 8.28906C506.474 8.84635 506.555 9.44531 506.555 10.0859V10.75C506.555 11.4219 506.495 12.0703 506.375 12.6953C506.255 13.3151 506.06 13.8906 505.789 14.4219C505.523 14.9479 505.172 15.4115 504.734 15.8125C504.302 16.2083 503.771 16.5182 503.141 16.7422C502.516 16.9609 501.781 17.0703 500.938 17.0703H500.766V15.5156ZM516.398 5.625V6.65625L511.852 17H509.867L514.406 7.125H508.516V5.625H516.398ZM520.414 11.7109L518.914 11.3438L519.531 5.625H525.664V7.21875H521.094L520.781 10.0078C520.958 9.90365 521.203 9.80208 521.516 9.70312C521.828 9.59896 522.185 9.54688 522.586 9.54688C523.122 9.54688 523.602 9.63542 524.023 9.8125C524.451 9.98438 524.812 10.237 525.109 10.5703C525.406 10.8984 525.633 11.2995 525.789 11.7734C525.945 12.2422 526.023 12.7708 526.023 13.3594C526.023 13.8854 525.945 14.3776 525.789 14.8359C525.638 15.2943 525.409 15.6979 525.102 16.0469C524.794 16.3958 524.406 16.6693 523.938 16.8672C523.474 17.0599 522.924 17.1562 522.289 17.1562C521.815 17.1562 521.359 17.0885 520.922 16.9531C520.49 16.8125 520.102 16.6068 519.758 16.3359C519.414 16.0599 519.138 15.7214 518.93 15.3203C518.721 14.9141 518.602 14.4479 518.57 13.9219H520.414C520.461 14.2917 520.562 14.6068 520.719 14.8672C520.88 15.1224 521.094 15.3177 521.359 15.4531C521.625 15.5885 521.932 15.6562 522.281 15.6562C522.599 15.6562 522.872 15.6016 523.102 15.4922C523.331 15.3776 523.521 15.2161 523.672 15.0078C523.828 14.7943 523.943 14.5443 524.016 14.2578C524.094 13.9714 524.133 13.6536 524.133 13.3047C524.133 12.9714 524.089 12.6667 524 12.3906C523.917 12.1146 523.789 11.875 523.617 11.6719C523.451 11.4688 523.24 11.3125 522.984 11.2031C522.729 11.0885 522.435 11.0312 522.102 11.0312C521.654 11.0312 521.31 11.0964 521.07 11.2266C520.836 11.3568 520.617 11.5182 520.414 11.7109ZM535.445 10.3594V12.2188C535.445 13.1094 535.357 13.8698 535.18 14.5C535.008 15.125 534.758 15.6328 534.43 16.0234C534.102 16.4141 533.708 16.7005 533.25 16.8828C532.797 17.0651 532.289 17.1562 531.727 17.1562C531.279 17.1562 530.862 17.099 530.477 16.9844C530.096 16.8698 529.753 16.6901 529.445 16.4453C529.138 16.2005 528.875 15.8854 528.656 15.5C528.443 15.1094 528.276 14.6432 528.156 14.1016C528.042 13.5599 527.984 12.9323 527.984 12.2188V10.3594C527.984 9.46354 528.073 8.70833 528.25 8.09375C528.427 7.47396 528.68 6.97135 529.008 6.58594C529.336 6.19531 529.727 5.91146 530.18 5.73438C530.638 5.55729 531.148 5.46875 531.711 5.46875C532.164 5.46875 532.581 5.52604 532.961 5.64062C533.346 5.75 533.69 5.92448 533.992 6.16406C534.299 6.40365 534.56 6.71615 534.773 7.10156C534.992 7.48177 535.159 7.94271 535.273 8.48438C535.388 9.02083 535.445 9.64583 535.445 10.3594ZM533.562 12.4844V10.0781C533.562 9.625 533.536 9.22656 533.484 8.88281C533.432 8.53385 533.354 8.23958 533.25 8C533.151 7.75521 533.026 7.55729 532.875 7.40625C532.724 7.25 532.552 7.13802 532.359 7.07031C532.167 6.9974 531.951 6.96094 531.711 6.96094C531.419 6.96094 531.159 7.01823 530.93 7.13281C530.701 7.24219 530.508 7.41927 530.352 7.66406C530.195 7.90885 530.076 8.23177 529.992 8.63281C529.914 9.02865 529.875 9.51042 529.875 10.0781V12.4844C529.875 12.9427 529.901 13.3464 529.953 13.6953C530.005 14.0443 530.083 14.3438 530.188 14.5938C530.292 14.8385 530.417 15.0417 530.562 15.2031C530.714 15.3594 530.885 15.474 531.078 15.5469C531.276 15.6198 531.492 15.6562 531.727 15.6562C532.023 15.6562 532.286 15.599 532.516 15.4844C532.745 15.3698 532.938 15.1875 533.094 14.9375C533.25 14.6823 533.367 14.3516 533.445 13.9453C533.523 13.5391 533.562 13.0521 533.562 12.4844ZM545.039 10.3594V12.2188C545.039 13.1094 544.951 13.8698 544.773 14.5C544.602 15.125 544.352 15.6328 544.023 16.0234C543.695 16.4141 543.302 16.7005 542.844 16.8828C542.391 17.0651 541.883 17.1562 541.32 17.1562C540.872 17.1562 540.456 17.099 540.07 16.9844C539.69 16.8698 539.346 16.6901 539.039 16.4453C538.732 16.2005 538.469 15.8854 538.25 15.5C538.036 15.1094 537.87 14.6432 537.75 14.1016C537.635 13.5599 537.578 12.9323 537.578 12.2188V10.3594C537.578 9.46354 537.667 8.70833 537.844 8.09375C538.021 7.47396 538.273 6.97135 538.602 6.58594C538.93 6.19531 539.32 5.91146 539.773 5.73438C540.232 5.55729 540.742 5.46875 541.305 5.46875C541.758 5.46875 542.174 5.52604 542.555 5.64062C542.94 5.75 543.284 5.92448 543.586 6.16406C543.893 6.40365 544.154 6.71615 544.367 7.10156C544.586 7.48177 544.753 7.94271 544.867 8.48438C544.982 9.02083 545.039 9.64583 545.039 10.3594ZM543.156 12.4844V10.0781C543.156 9.625 543.13 9.22656 543.078 8.88281C543.026 8.53385 542.948 8.23958 542.844 8C542.745 7.75521 542.62 7.55729 542.469 7.40625C542.318 7.25 542.146 7.13802 541.953 7.07031C541.76 6.9974 541.544 6.96094 541.305 6.96094C541.013 6.96094 540.753 7.01823 540.523 7.13281C540.294 7.24219 540.102 7.41927 539.945 7.66406C539.789 7.90885 539.669 8.23177 539.586 8.63281C539.508 9.02865 539.469 9.51042 539.469 10.0781V12.4844C539.469 12.9427 539.495 13.3464 539.547 13.6953C539.599 14.0443 539.677 14.3438 539.781 14.5938C539.885 14.8385 540.01 15.0417 540.156 15.2031C540.307 15.3594 540.479 15.474 540.672 15.5469C540.87 15.6198 541.086 15.6562 541.32 15.6562C541.617 15.6562 541.88 15.599 542.109 15.4844C542.339 15.3698 542.531 15.1875 542.688 14.9375C542.844 14.6823 542.961 14.3516 543.039 13.9453C543.117 13.5391 543.156 13.0521 543.156 12.4844Z" fill="#38479B"/>
<path d="M0 25C0 11.1929 11.1929 0 25 0H27C40.8071 0 52 11.1929 52 25V26C52 39.8071 40.8071 51 27 51H25C11.1929 51 0 39.8071 0 26V25Z" fill="#E6E6FF"/>
<path d="M18 16.7344H23.7143V22.2106" stroke="#38479B" stroke-linecap="round" stroke-linejoin="round"/>
<path d="M23.7143 16.734C19.9048 19.8408 18 22.944 18 26.0435C18 29.143 19.1429 31.8811 21.4286 34.2578" stroke="#38479B" stroke-linecap="round" stroke-linejoin="round"/>
<path d="M33.9994 34.2574H28.2852V28.7812" stroke="#38479B" stroke-linecap="round" stroke-linejoin="round"/>
<path d="M28.2852 34.2582C32.0947 31.1514 33.9994 28.0482 33.9994 24.9487C33.9994 21.8491 32.8566 19.111 30.5709 16.7344" stroke="#38479B" stroke-linecap="round" stroke-linejoin="round"/>
</svg>
