<svg width="52" height="51" viewBox="0 0 52 51" fill="none" xmlns="http://www.w3.org/2000/svg">
<path d="M0 25C0 11.1929 11.1929 0 25 0H27C40.8071 0 52 11.1929 52 25V26C52 39.8071 40.8071 51 27 51H25C11.1929 51 0 39.8071 0 26V25Z" fill="#E6E6FF"/>
<g clip-path="url(#clip0_5338_8320)">
<path d="M37 25.5007L34.56 22.8366L34.9 19.3051L31.29 18.5241L29.4 15.4766L26 16.8757L22.6 15.4766L20.71 18.5241L17.1 19.3051L17.44 22.8366L15 25.5007L17.44 28.1649L17.1 31.6964L20.71 32.4774L22.6 35.5249L26 34.1257L29.4 35.5249L31.29 32.4774L34.9 31.6964L34.56 28.1649L37 25.5007ZM27 30.2924H25V28.3757H27V30.2924ZM27 26.4591H25V20.7091H27V26.4591Z" fill="#38479B"/>
</g>
<defs>
<clipPath id="clip0_5338_8320">
<rect width="24" height="23" fill="white" transform="translate(14 14)"/>
</clipPath>
</defs>
</svg>
