<svg width="159" height="43" viewBox="0 0 159 43" fill="none" xmlns="http://www.w3.org/2000/svg">
<path d="M0.179688 2.1875H1.86719V41H0.179688V2.1875ZM10.3047 2.1875H11.9922V32.5625H25.4922V34.25H11.9922V35.9375H25.4922V37.625H11.9922V39.3125H25.4922V41H10.3047V2.1875ZM6.92969 2.1875H8.61719V41H6.92969V2.1875ZM3.55469 2.1875H5.24219V41H3.55469V2.1875ZM42.9062 15.0312C41.0938 16.8438 40.1875 19.0312 40.1875 21.5938C40.1875 24.1562 41.0938 26.3438 42.9062 28.1562C44.7188 29.9688 46.9062 30.875 49.4688 30.875C52.0312 30.875 54.2188 29.9688 56.0312 28.1562C57.8438 26.3438 58.75 24.1562 58.75 21.5938C58.75 19.0312 57.8438 16.8438 56.0312 15.0312C54.2188 13.2188 52.0312 12.3125 49.4688 12.3125C46.9062 12.3125 44.7188 13.2188 42.9062 15.0312ZM39.3672 25.8594C38.7891 24.5 38.5 23.0781 38.5 21.5938C38.5 20.1094 38.7891 18.6953 39.3672 17.3516C39.9453 15.9922 40.7266 14.8203 41.7109 13.8359C42.6953 12.8516 43.8594 12.0703 45.2031 11.4922C46.5625 10.9141 47.9844 10.625 49.4688 10.625C50.9531 10.625 52.3672 10.9141 53.7109 11.4922C55.0703 12.0703 56.2422 12.8516 57.2266 13.8359C58.2109 14.8203 58.9922 15.9922 59.5703 17.3516C60.1484 18.6953 60.4375 20.1094 60.4375 21.5938C60.4375 23.0781 60.1484 24.5 59.5703 25.8594C58.9922 27.2031 58.2109 28.3672 57.2266 29.3516C56.2422 30.3359 55.0703 31.1172 53.7109 31.6953C52.3672 32.2734 50.9531 32.5625 49.4688 32.5625C47.9844 32.5625 46.5625 32.2734 45.2031 31.6953C43.8594 31.1172 42.6953 30.3359 41.7109 29.3516C40.7266 28.3672 39.9453 27.2031 39.3672 25.8594ZM38.5 15.2422C37.375 17.1797 36.8125 19.2969 36.8125 21.5938C36.8125 23.8906 37.375 26.0078 38.5 27.9453C39.6406 29.8828 41.1797 31.4219 43.1172 32.5625C45.0547 33.6875 47.1719 34.25 49.4688 34.25C51.7656 34.25 53.8828 33.6875 55.8203 32.5625C57.7578 31.4219 59.2891 29.8828 60.4141 27.9453C61.5547 26.0078 62.125 23.8906 62.125 21.5938C62.125 19.2969 61.5547 17.1797 60.4141 15.2422C59.2891 13.3047 57.7578 11.7734 55.8203 10.6484C53.8828 9.50781 51.7656 8.9375 49.4688 8.9375C47.1719 8.9375 45.0547 9.50781 43.1172 10.6484C41.1797 11.7734 39.6406 13.3047 38.5 15.2422ZM37.0469 28.7891C35.7656 26.5859 35.125 24.1875 35.125 21.5938C35.125 19 35.7656 16.6016 37.0469 14.3984C38.3281 12.1953 40.0703 10.4531 42.2734 9.17188C44.4766 7.89062 46.875 7.25 49.4688 7.25C52.0625 7.25 54.4609 7.89062 56.6641 9.17188C58.8672 10.4531 60.6094 12.1953 61.8906 14.3984C63.1719 16.6016 63.8125 19 63.8125 21.5938C63.8125 24.1875 63.1719 26.5859 61.8906 28.7891C60.6094 30.9922 58.8672 32.7344 56.6641 34.0156C54.4609 35.2969 52.0625 35.9375 49.4688 35.9375C46.875 35.9375 44.4766 35.2969 42.2734 34.0156C40.0703 32.7344 38.3281 30.9922 37.0469 28.7891ZM34.7031 15.3594C33.8594 17.3438 33.4375 19.4219 33.4375 21.5938C33.4375 23.7656 33.8594 25.8438 34.7031 27.8281C35.5469 29.8125 36.6797 31.5234 38.1016 32.9609C39.5391 34.3828 41.25 35.5156 43.2344 36.3594C45.2188 37.2031 47.2969 37.625 49.4688 37.625C51.6406 37.625 53.7188 37.2031 55.7031 36.3594C57.6875 35.5156 59.3906 34.3828 60.8125 32.9609C62.25 31.5234 63.3906 29.8125 64.2344 27.8281C65.0781 25.8438 65.5 23.7656 65.5 21.5938C65.5 19.4219 65.0781 17.3438 64.2344 15.3594C63.3906 13.375 62.25 11.6719 60.8125 10.25C59.3906 8.8125 57.6875 7.67188 55.7031 6.82812C53.7188 5.98438 51.6406 5.5625 49.4688 5.5625C47.2969 5.5625 45.2188 5.98438 43.2344 6.82812C41.25 7.67188 39.5391 8.8125 38.1016 10.25C36.6797 11.6719 35.5469 13.375 34.7031 15.3594ZM34.1172 30.4766C32.5391 27.7578 31.75 24.7969 31.75 21.5938C31.75 18.3906 32.5391 15.4297 34.1172 12.7109C35.7109 9.99219 37.8672 7.84375 40.5859 6.26562C43.3047 4.67188 46.2656 3.875 49.4688 3.875C52.6719 3.875 55.6328 4.67188 58.3516 6.26562C61.0703 7.84375 63.2188 9.99219 64.7969 12.7109C66.3906 15.4297 67.1875 18.3906 67.1875 21.5938C67.1875 24.7969 66.3906 27.7578 64.7969 30.4766C63.2188 33.1953 61.0703 35.3516 58.3516 36.9453C55.6328 38.5234 52.6719 39.3125 49.4688 39.3125C46.2656 39.3125 43.3047 38.5234 40.5859 36.9453C37.8672 35.3516 35.7109 33.1953 34.1172 30.4766ZM31.5859 14.0703C30.5703 16.4609 30.0625 18.9688 30.0625 21.5938C30.0625 24.2188 30.5703 26.7344 31.5859 29.1406C32.6172 31.5312 34 33.5938 35.7344 35.3281C37.4688 37.0625 39.5312 38.4453 41.9219 39.4766C44.3281 40.4922 46.8438 41 49.4688 41C52.0938 41 54.6016 40.4922 56.9922 39.4766C59.3984 38.4453 61.4688 37.0625 63.2031 35.3281C64.9375 33.5938 66.3125 31.5312 67.3281 29.1406C68.3594 26.7344 68.875 24.2188 68.875 21.5938C68.875 18.9688 68.3594 16.4609 67.3281 14.0703C66.3125 11.6641 64.9375 9.59375 63.2031 7.85938C61.4688 6.125 59.3984 4.75 56.9922 3.73438C54.6016 2.70312 52.0938 2.1875 49.4688 2.1875C46.8438 2.1875 44.3281 2.70312 41.9219 3.73438C39.5312 4.75 37.4688 6.125 35.7344 7.85938C34 9.59375 32.6172 11.6641 31.5859 14.0703ZM30.0391 29.7969C28.9297 27.1875 28.375 24.4531 28.375 21.5938C28.375 18.7344 28.9297 16.0078 30.0391 13.4141C31.1641 10.8047 32.6641 8.5625 34.5391 6.6875C36.4297 4.79688 38.6719 3.29688 41.2656 2.1875C43.875 1.0625 46.6094 0.5 49.4688 0.5C52.3281 0.5 55.0547 1.0625 57.6484 2.1875C60.2578 3.29688 62.5 4.79688 64.375 6.6875C66.2656 8.5625 67.7656 10.8047 68.875 13.4141C70 16.0078 70.5625 18.7344 70.5625 21.5938C70.5625 24.4531 70 27.1875 68.875 29.7969C67.7656 32.3906 66.2656 34.6328 64.375 36.5234C62.5 38.3984 60.2578 39.8906 57.6484 41C55.0547 42.125 52.3281 42.6875 49.4688 42.6875C46.6094 42.6875 43.875 42.125 41.2656 41C38.6719 39.8906 36.4297 38.3984 34.5391 36.5234C32.6641 34.6328 31.1641 32.3906 30.0391 29.7969ZM105.062 20.7266H106.75V41H105.062V20.7266ZM111.812 20.7266H113.5V41H111.812V20.7266ZM108.438 20.7266H110.125V41H108.438V20.7266ZM103.375 20.7266V41C100.406 42.125 97.3281 42.6875 94.1406 42.6875C91.375 42.6875 88.7266 42.1797 86.1953 41.1641C83.6641 40.1484 81.4375 38.7422 79.5156 36.9453C77.5938 35.1328 76.0547 32.8984 74.8984 30.2422C73.7578 27.5703 73.1875 24.6875 73.1875 21.5938C73.1875 18.7344 73.7422 16.0078 74.8516 13.4141C75.9766 10.8047 77.4766 8.5625 79.3516 6.6875C81.2422 4.79688 83.4844 3.29688 86.0781 2.1875C88.6875 1.0625 91.4219 0.5 94.2812 0.5C97.8438 0.5 101.156 1.32812 104.219 2.98438C107.281 4.64062 109.781 6.89062 111.719 9.73438L110.312 10.6484C108.531 8.03906 106.227 5.97656 103.398 4.46094C100.586 2.94531 97.5469 2.1875 94.2812 2.1875C91.6562 2.1875 89.1406 2.70312 86.7344 3.73438C84.3438 4.75 82.2812 6.125 80.5469 7.85938C78.8125 9.59375 77.4297 11.6641 76.3984 14.0703C75.3828 16.4609 74.875 18.9688 74.875 21.5938C74.875 24.4219 75.3984 27.0625 76.4453 29.5156C77.5078 31.9688 78.9141 34.0234 80.6641 35.6797C82.4297 37.3359 84.4766 38.6406 86.8047 39.5938C89.1328 40.5312 91.5547 41 94.0703 41C96.7109 41 99.25 40.5859 101.688 39.7578V38.1406C99.3594 38.9219 96.9141 39.3125 94.3516 39.3125C92.4922 39.3125 90.6797 39.0547 88.9141 38.5391C87.1641 38.0078 85.5391 37.2344 84.0391 36.2188C82.5547 35.1875 81.25 33.9688 80.125 32.5625C79.0156 31.1406 78.1406 29.4922 77.5 27.6172C76.875 25.7266 76.5625 23.7188 76.5625 21.5938C76.5625 18.3906 77.3516 15.4297 78.9297 12.7109C80.5234 9.99219 82.6797 7.84375 85.3984 6.26562C88.1172 4.67188 91.0781 3.875 94.2812 3.875C97.2812 3.875 100.07 4.57812 102.648 5.98438C105.227 7.375 107.328 9.26562 108.953 11.6562L107.547 12.5703C106.078 10.4141 104.172 8.71094 101.828 7.46094C99.5 6.19531 96.9844 5.5625 94.2812 5.5625C92.1094 5.5625 90.0312 5.98438 88.0469 6.82812C86.0625 7.67188 84.3516 8.8125 82.9141 10.25C81.4922 11.6719 80.3594 13.375 79.5156 15.3594C78.6719 17.3438 78.25 19.4219 78.25 21.5938C78.25 23.5469 78.5312 25.3828 79.0938 27.1016C79.6719 28.8047 80.4609 30.2969 81.4609 31.5781C82.4766 32.8438 83.6562 33.9375 85 34.8594C86.3438 35.7656 87.8047 36.4531 89.3828 36.9219C90.9766 37.3906 92.6094 37.625 94.2812 37.625C96.875 37.625 99.3438 37.1875 101.688 36.3125V34.625C99.375 35.5156 96.9609 35.9609 94.4453 35.9609C92.5391 35.9609 90.7188 35.6406 88.9844 35C87.25 34.3438 85.7031 33.4219 84.3438 32.2344C83 31.0469 81.9297 29.5312 81.1328 27.6875C80.3359 25.8438 79.9375 23.8125 79.9375 21.5938C79.9375 19 80.5781 16.6016 81.8594 14.3984C83.1406 12.1953 84.8828 10.4531 87.0859 9.17188C89.2891 7.89062 91.6875 7.25 94.2812 7.25C96.7031 7.25 98.9531 7.8125 101.031 8.9375C103.125 10.0625 104.828 11.5938 106.141 13.5312L104.734 14.4453C103.578 12.7578 102.078 11.4219 100.234 10.4375C98.4062 9.4375 96.4219 8.9375 94.2812 8.9375C91.9844 8.9375 89.8672 9.50781 87.9297 10.6484C85.9922 11.7734 84.4531 13.3047 83.3125 15.2422C82.1875 17.1797 81.625 19.2969 81.625 21.5938C81.625 23.1875 81.8516 24.6719 82.3047 26.0469C82.7578 27.4219 83.3828 28.6094 84.1797 29.6094C84.9766 30.6094 85.9062 31.4609 86.9688 32.1641C88.0469 32.8672 89.2031 33.3984 90.4375 33.7578C91.6719 34.1016 92.9531 34.2734 94.2812 34.2734C96.9219 34.2734 99.3906 33.75 101.688 32.7031V31.0859C99.4688 32.0703 97.0703 32.5625 94.4922 32.5625C93.0078 32.5625 91.6094 32.3359 90.2969 31.8828C88.9844 31.4297 87.7969 30.7656 86.7344 29.8906C85.6875 29.0156 84.8516 27.8672 84.2266 26.4453C83.6172 25.0078 83.3125 23.3906 83.3125 21.5938C83.3125 20.1094 83.6016 18.6953 84.1797 17.3516C84.7578 15.9922 85.5391 14.8203 86.5234 13.8359C87.5078 12.8516 88.6719 12.0703 90.0156 11.4922C91.375 10.9141 92.7969 10.625 94.2812 10.625C96.1406 10.625 97.8672 11.0625 99.4609 11.9375C101.055 12.7969 102.352 13.9688 103.352 15.4531L101.969 16.3672C101.125 15.1172 100.023 14.1328 98.6641 13.4141C97.3203 12.6797 95.8594 12.3125 94.2812 12.3125C91.7188 12.3125 89.5312 13.2188 87.7188 15.0312C85.9062 16.8438 85 19.0312 85 21.5938C85 23.1719 85.2578 24.5703 85.7734 25.7891C86.2891 26.9922 86.9922 27.9609 87.8828 28.6953C88.7891 29.4141 89.7891 29.9609 90.8828 30.3359C91.9922 30.6953 93.1797 30.875 94.4453 30.875C97.0391 30.875 99.4531 30.3359 101.688 29.2578V20.7266H103.375ZM131.312 15.0312C129.5 16.8438 128.594 19.0312 128.594 21.5938C128.594 24.1562 129.5 26.3438 131.312 28.1562C133.125 29.9688 135.312 30.875 137.875 30.875C140.438 30.875 142.625 29.9688 144.438 28.1562C146.25 26.3438 147.156 24.1562 147.156 21.5938C147.156 19.0312 146.25 16.8438 144.438 15.0312C142.625 13.2188 140.438 12.3125 137.875 12.3125C135.312 12.3125 133.125 13.2188 131.312 15.0312ZM127.773 25.8594C127.195 24.5 126.906 23.0781 126.906 21.5938C126.906 20.1094 127.195 18.6953 127.773 17.3516C128.352 15.9922 129.133 14.8203 130.117 13.8359C131.102 12.8516 132.266 12.0703 133.609 11.4922C134.969 10.9141 136.391 10.625 137.875 10.625C139.359 10.625 140.773 10.9141 142.117 11.4922C143.477 12.0703 144.648 12.8516 145.633 13.8359C146.617 14.8203 147.398 15.9922 147.977 17.3516C148.555 18.6953 148.844 20.1094 148.844 21.5938C148.844 23.0781 148.555 24.5 147.977 25.8594C147.398 27.2031 146.617 28.3672 145.633 29.3516C144.648 30.3359 143.477 31.1172 142.117 31.6953C140.773 32.2734 139.359 32.5625 137.875 32.5625C136.391 32.5625 134.969 32.2734 133.609 31.6953C132.266 31.1172 131.102 30.3359 130.117 29.3516C129.133 28.3672 128.352 27.2031 127.773 25.8594ZM126.906 15.2422C125.781 17.1797 125.219 19.2969 125.219 21.5938C125.219 23.8906 125.781 26.0078 126.906 27.9453C128.047 29.8828 129.586 31.4219 131.523 32.5625C133.461 33.6875 135.578 34.25 137.875 34.25C140.172 34.25 142.289 33.6875 144.227 32.5625C146.164 31.4219 147.695 29.8828 148.82 27.9453C149.961 26.0078 150.531 23.8906 150.531 21.5938C150.531 19.2969 149.961 17.1797 148.82 15.2422C147.695 13.3047 146.164 11.7734 144.227 10.6484C142.289 9.50781 140.172 8.9375 137.875 8.9375C135.578 8.9375 133.461 9.50781 131.523 10.6484C129.586 11.7734 128.047 13.3047 126.906 15.2422ZM125.453 28.7891C124.172 26.5859 123.531 24.1875 123.531 21.5938C123.531 19 124.172 16.6016 125.453 14.3984C126.734 12.1953 128.477 10.4531 130.68 9.17188C132.883 7.89062 135.281 7.25 137.875 7.25C140.469 7.25 142.867 7.89062 145.07 9.17188C147.273 10.4531 149.016 12.1953 150.297 14.3984C151.578 16.6016 152.219 19 152.219 21.5938C152.219 24.1875 151.578 26.5859 150.297 28.7891C149.016 30.9922 147.273 32.7344 145.07 34.0156C142.867 35.2969 140.469 35.9375 137.875 35.9375C135.281 35.9375 132.883 35.2969 130.68 34.0156C128.477 32.7344 126.734 30.9922 125.453 28.7891ZM123.109 15.3594C122.266 17.3438 121.844 19.4219 121.844 21.5938C121.844 23.7656 122.266 25.8438 123.109 27.8281C123.953 29.8125 125.086 31.5234 126.508 32.9609C127.945 34.3828 129.656 35.5156 131.641 36.3594C133.625 37.2031 135.703 37.625 137.875 37.625C140.047 37.625 142.125 37.2031 144.109 36.3594C146.094 35.5156 147.797 34.3828 149.219 32.9609C150.656 31.5234 151.797 29.8125 152.641 27.8281C153.484 25.8438 153.906 23.7656 153.906 21.5938C153.906 19.4219 153.484 17.3438 152.641 15.3594C151.797 13.375 150.656 11.6719 149.219 10.25C147.797 8.8125 146.094 7.67188 144.109 6.82812C142.125 5.98438 140.047 5.5625 137.875 5.5625C135.703 5.5625 133.625 5.98438 131.641 6.82812C129.656 7.67188 127.945 8.8125 126.508 10.25C125.086 11.6719 123.953 13.375 123.109 15.3594ZM122.523 30.4766C120.945 27.7578 120.156 24.7969 120.156 21.5938C120.156 18.3906 120.945 15.4297 122.523 12.7109C124.117 9.99219 126.273 7.84375 128.992 6.26562C131.711 4.67188 134.672 3.875 137.875 3.875C141.078 3.875 144.039 4.67188 146.758 6.26562C149.477 7.84375 151.625 9.99219 153.203 12.7109C154.797 15.4297 155.594 18.3906 155.594 21.5938C155.594 24.7969 154.797 27.7578 153.203 30.4766C151.625 33.1953 149.477 35.3516 146.758 36.9453C144.039 38.5234 141.078 39.3125 137.875 39.3125C134.672 39.3125 131.711 38.5234 128.992 36.9453C126.273 35.3516 124.117 33.1953 122.523 30.4766ZM119.992 14.0703C118.977 16.4609 118.469 18.9688 118.469 21.5938C118.469 24.2188 118.977 26.7344 119.992 29.1406C121.023 31.5312 122.406 33.5938 124.141 35.3281C125.875 37.0625 127.938 38.4453 130.328 39.4766C132.734 40.4922 135.25 41 137.875 41C140.5 41 143.008 40.4922 145.398 39.4766C147.805 38.4453 149.875 37.0625 151.609 35.3281C153.344 33.5938 154.719 31.5312 155.734 29.1406C156.766 26.7344 157.281 24.2188 157.281 21.5938C157.281 18.9688 156.766 16.4609 155.734 14.0703C154.719 11.6641 153.344 9.59375 151.609 7.85938C149.875 6.125 147.805 4.75 145.398 3.73438C143.008 2.70312 140.5 2.1875 137.875 2.1875C135.25 2.1875 132.734 2.70312 130.328 3.73438C127.938 4.75 125.875 6.125 124.141 7.85938C122.406 9.59375 121.023 11.6641 119.992 14.0703ZM118.445 29.7969C117.336 27.1875 116.781 24.4531 116.781 21.5938C116.781 18.7344 117.336 16.0078 118.445 13.4141C119.57 10.8047 121.07 8.5625 122.945 6.6875C124.836 4.79688 127.078 3.29688 129.672 2.1875C132.281 1.0625 135.016 0.5 137.875 0.5C140.734 0.5 143.461 1.0625 146.055 2.1875C148.664 3.29688 150.906 4.79688 152.781 6.6875C154.672 8.5625 156.172 10.8047 157.281 13.4141C158.406 16.0078 158.969 18.7344 158.969 21.5938C158.969 24.4531 158.406 27.1875 157.281 29.7969C156.172 32.3906 154.672 34.6328 152.781 36.5234C150.906 38.3984 148.664 39.8906 146.055 41C143.461 42.125 140.734 42.6875 137.875 42.6875C135.016 42.6875 132.281 42.125 129.672 41C127.078 39.8906 124.836 38.3984 122.945 36.5234C121.07 34.6328 119.57 32.3906 118.445 29.7969Z" fill="black"/>
</svg>
